<?xml version="1.0"?>
<!DOCTYPE svg PUBLIC "-//W3C//DTD SVG 1.1//EN" "http://www.w3.org/Graphics/SVG/1.1/DTD/svg11.dtd">
<svg width="800px" height="800px" version="1.1" xmlns="http://www.w3.org/2000/svg" xmlns:xlink="http://www.w3.org/1999/xlink">
<g transform="translate(400,400) scale(1, -1)">
<path id = "curve" d = "M2.08129628427e-15,33.9901477833 Q-156.06282382,66.896472328 -160.287223995,-92.5418719212" fill="none" style="stroke: rgb(51, 153, 255); stroke-width: 0.5"/> 
<path id = "curve" d = "M-160.287223995,-92.5418719212 Q-5.87352640277,-250.902151396 122.045589909,-70.4630541872" fill="none" style="stroke: rgb(51, 153, 255); stroke-width: 0.5"/> 
<path id = "curve" d = "M2.15956008728e-15,35.2682926829 Q-203.091152548,84.5513342767 -214.943280705,-124.097560976" fill="none" style="stroke: rgb(0, 200, 102); stroke-width: 0.5"/> 
<path id = "curve" d = "M-214.943280705,-124.097560976 Q-22.8327657541,-249.9184716 66.2826272457,-38.2682926829" fill="none" style="stroke: rgb(0, 200, 102); stroke-width: 0.5"/> 
<path id = "curve" d = "M2.39113997934e-15,39.0502793296 Q-206.847144792,86.9891994486 -216.699876176,-125.111731844" fill="none" style="stroke: rgb(0, 200, 102); stroke-width: 0.5"/> 
<path id = "curve" d = "M-216.699876176,-125.111731844 Q-23.8754084458,-247.00779703 61.2507352621,-35.3631284916" fill="none" style="stroke: rgb(0, 200, 102); stroke-width: 0.5"/> 
<path id = "curve" d = "M2.09002221589e-15,34.1326530612 Q-143.850117398,62.4442225103 -145.757377653,-84.1530612245" fill="none" style="stroke: rgb(51, 153, 255); stroke-width: 0.5"/> 
<path id = "curve" d = "M-145.757377653,-84.1530612245 Q-1.42920790911,-250.792477162 136.45202306,-78.7806122449" fill="none" style="stroke: rgb(51, 153, 255); stroke-width: 0.5"/> 
<path id = "curve" d = "M2.10948775567e-15,34.4505494505 Q-149.446967749,64.591636024 -152.144484948,-87.8406593407" fill="none" style="stroke: rgb(51, 153, 255); stroke-width: 0.5"/> 
<path id = "curve" d = "M-152.144484948,-87.8406593407 Q-3.43348172247,-250.547819256 129.789609416,-74.9340659341" fill="none" style="stroke: rgb(51, 153, 255); stroke-width: 0.5"/> 
<path id = "curve" d = "M2.09162128077e-15,34.1587677725 Q-209.680280632,86.6650334405 -223.514589699,-129.046208531" fill="none" style="stroke: rgb(0, 200, 102); stroke-width: 0.5"/> 
<path id = "curve" d = "M-223.514589699,-129.046208531 Q-25.318116776,-250.772378883 58.6721950099,-33.8744075829" fill="none" style="stroke: rgb(0, 200, 102); stroke-width: 0.5"/> 
<path id = "curve" d = "M2.23571883184e-15,36.5120593692 Q-165.803476785,71.1836526617 -170.007695685,-98.1539888683" fill="none" style="stroke: rgb(51, 153, 255); stroke-width: 0.5"/> 
<path id = "curve" d = "M-170.007695685,-98.1539888683 Q-9.19490403062,-248.9612498 110.141078719,-63.5899814471" fill="none" style="stroke: rgb(51, 153, 255); stroke-width: 0.5"/> 
<path id = "curve" d = "M2.33048458047e-15,38.0597014925 Q-194.885936567,82.3129746261 -203.270380596,-117.358208955" fill="none" style="stroke: rgb(0, 200, 102); stroke-width: 0.5"/> 
<path id = "curve" d = "M-203.270380596,-117.358208955 Q-19.618380897,-247.770160833 75.5380964137,-43.6119402985" fill="none" style="stroke: rgb(0, 200, 102); stroke-width: 0.5"/> 
<path id = "curve" d = "M2.1549073485e-15,35.1923076923 Q-152.585027019,65.9530505226 -155.326162636,-89.67760181" fill="none" style="stroke: rgb(51, 153, 255); stroke-width: 0.5"/> 
<path id = "curve" d = "M-155.326162636,-89.67760181 Q-4.5094917146,-249.976950807 125.965550247,-72.7262443439" fill="none" style="stroke: rgb(51, 153, 255); stroke-width: 0.5"/> 
<path id = "curve" d = "M2.11861809972e-15,34.5996592845 Q-199.529980243,83.0547156447 -211.209875308,-121.942078365" fill="none" style="stroke: rgb(0, 200, 102); stroke-width: 0.5"/> 
<path id = "curve" d = "M-211.209875308,-121.942078365 Q-21.5970027553,-250.433062055 70.5950861518,-40.7580919932" fill="none" style="stroke: rgb(0, 200, 102); stroke-width: 0.5"/> 
<path id = "curve" d = "M2.08855524768e-15,34.1086956522 Q-204.228314744,84.6457168232 -217.108803401,-125.347826087" fill="none" style="stroke: rgb(0, 200, 102); stroke-width: 0.5"/> 
<path id = "curve" d = "M-217.108803401,-125.347826087 Q-23.3437291821,-250.81091515 65.1213450367,-37.597826087" fill="none" style="stroke: rgb(0, 200, 102); stroke-width: 0.5"/> 
<path id = "curve" d = "M2.10874113223e-15,34.4383561644 Q-203.695281234,84.5417347412 -216.245356989,-124.849315068" fill="none" style="stroke: rgb(0, 200, 102); stroke-width: 0.5"/> 
<path id = "curve" d = "M-216.245356989,-124.849315068 Q-23.1223450276,-250.557203395 65.6992970707,-37.9315068493" fill="none" style="stroke: rgb(0, 200, 102); stroke-width: 0.5"/> 
<path id = "curve" d = "M2.03823823789e-15,33.2869565217 Q-205.800454878,84.994458897 -219.548735843,-126.756521739" fill="none" style="stroke: rgb(0, 200, 102); stroke-width: 0.5"/> 
<path id = "curve" d = "M-219.548735843,-126.756521739 Q-23.9839250995,-251.44333811 63.393059557,-36.6" fill="none" style="stroke: rgb(0, 200, 102); stroke-width: 0.5"/> 
<path id = "curve" d = "M2.21609918322e-15,36.1916461916 Q-203.041078198,84.7908171789 -214.229576543,-123.685503686" fill="none" style="stroke: rgb(0, 200, 102); stroke-width: 0.5"/> 
<path id = "curve" d = "M-214.229576543,-123.685503686 Q-22.7363480851,-249.207844665 66.1966838126,-38.2186732187" fill="none" style="stroke: rgb(0, 200, 102); stroke-width: 0.5"/> 
<path id = "curve" d = "M2.36794844594e-15,38.6715328467 Q-200.923721942,84.7046707099 -209.970071621,-121.226277372" fill="none" style="stroke: rgb(0, 200, 102); stroke-width: 0.5"/> 
<path id = "curve" d = "M-209.970071621,-121.226277372 Q-21.7577711635,-247.299286097 68.3085438927,-39.4379562044" fill="none" style="stroke: rgb(0, 200, 102); stroke-width: 0.5"/> 
<path id = "curve" d = "M2.09066940775e-15,34.1432225064 Q-210.019396832,86.785424536 -223.926261695,-129.283887468" fill="none" style="stroke: rgb(0, 200, 102); stroke-width: 0.5"/> 
<path id = "curve" d = "M-223.926261695,-129.283887468 Q-25.4425063287,-250.784342756 58.2739856101,-33.6445012788" fill="none" style="stroke: rgb(0, 200, 102); stroke-width: 0.5"/> 
<path id = "curve" d = "M2.05336721166e-15,33.5340314136 Q-183.551549267,76.8799219481 -193.087391729,-111.479057592" fill="none" style="stroke: rgb(0, 200, 102); stroke-width: 0.5"/> 
<path id = "curve" d = "M-193.087391729,-111.479057592 Q-15.8884020611,-251.253185507 89.6404305383,-51.7539267016" fill="none" style="stroke: rgb(0, 200, 102); stroke-width: 0.5"/> 
<path id = "curve" d = "M2.29959450503e-15,37.5552282769 Q-160.531684364,69.5359593806 -163.039804662,-94.1310751105" fill="none" style="stroke: rgb(51, 153, 255); stroke-width: 0.5"/> 
<path id = "curve" d = "M-163.039804662,-94.1310751105 Q-7.19326423193,-248.158411109 116.205558967,-67.0913107511" fill="none" style="stroke: rgb(51, 153, 255); stroke-width: 0.5"/> 
<path id = "curve" d = "M2.20881364725e-15,36.0726643599 Q-204.90945597,85.4448073712 -216.521334085,-125.008650519" fill="none" style="stroke: rgb(0, 200, 102); stroke-width: 0.5"/> 
<path id = "curve" d = "M-216.521334085,-125.008650519 Q-23.4245033315,-249.299414897 64.00796756,-36.955017301" fill="none" style="stroke: rgb(0, 200, 102); stroke-width: 0.5"/> 
<path id = "curve" d = "M2.18212117552e-15,35.636743215 Q-196.249188821,82.1376487145 -206.59858641,-119.279749478" fill="none" style="stroke: rgb(0, 200, 102); stroke-width: 0.5"/> 
<path id = "curve" d = "M-206.59858641,-119.279749478 Q-20.3184538569,-249.634906454 74.3082340199,-42.9018789144" fill="none" style="stroke: rgb(0, 200, 102); stroke-width: 0.5"/> 
<path id = "curve" d = "M2.29317140701e-15,37.4503311258 Q-209.169990164,87.3967034287 -220.578390924,-127.350993377" fill="none" style="stroke: rgb(0, 200, 102); stroke-width: 0.5"/> 
<path id = "curve" d = "M-220.578390924,-127.350993377 Q-24.8539959198,-248.239141555 58.7578163031,-33.9238410596" fill="none" style="stroke: rgb(0, 200, 102); stroke-width: 0.5"/> 
<path id = "curve" d = "M2.18140211098e-15,35.625 Q-203.875528502,84.9394734885 -215.617128433,-124.486607143" fill="none" style="stroke: rgb(0, 200, 102); stroke-width: 0.5"/> 
<path id = "curve" d = "M-215.617128433,-124.486607143 Q-23.0872046856,-249.643944212 65.2998619193,-37.7008928571" fill="none" style="stroke: rgb(0, 200, 102); stroke-width: 0.5"/> 
<path id = "curve" d = "M2.1697044234e-15,35.4339622642 Q-212.286253557,87.9797306838 -225.689488247,-130.301886792" fill="none" style="stroke: rgb(0, 200, 102); stroke-width: 0.5"/> 
<path id = "curve" d = "M-225.689488247,-130.301886792 Q-26.155818474,-249.790969765 55.3929456383,-31.9811320755" fill="none" style="stroke: rgb(0, 200, 102); stroke-width: 0.5"/> 
<path id = "curve" d = "M2.17839277736e-15,35.5758538523 Q-156.519109609,67.5072047641 -159.702238282,-92.2041302621" fill="none" style="stroke: rgb(51, 153, 255); stroke-width: 0.5"/> 
<path id = "curve" d = "M-159.702238282,-92.2041302621 Q-5.90474972896,-249.681767836 121.257313883,-70.0079428118" fill="none" style="stroke: rgb(51, 153, 255); stroke-width: 0.5"/> 
<path id = "curve" d = "M2.0584613423e-15,33.6172248804 Q-154.469485076,66.2062529044 -158.669113692,-91.6076555024" fill="none" style="stroke: rgb(51, 153, 255); stroke-width: 0.5"/> 
<path id = "curve" d = "M-158.669113692,-91.6076555024 Q-5.3268723198,-251.189158547 123.986660919,-71.5837320574" fill="none" style="stroke: rgb(51, 153, 255); stroke-width: 0.5"/> 
<path id = "curve" d = "M2.09475707692e-15,34.20997921 Q-149.085138319,64.3913551725 -151.887532356,-87.6923076923" fill="none" style="stroke: rgb(51, 153, 255); stroke-width: 0.5"/> 
<path id = "curve" d = "M-151.887532356,-87.6923076923 Q-3.32255221047,-250.73296578 130.254901948,-75.2027027027" fill="none" style="stroke: rgb(51, 153, 255); stroke-width: 0.5"/> 
<path id = "curve" d = "M2.07891261514e-15,33.9512195122 Q-116.216612069,52.2294466784 -113.238102188,-65.3780487805" fill="none" style="stroke: rgb(255, 128, 0); stroke-width: 0.5"/> 
<path id = "curve" d = "M-113.238102188,-65.3780487805 Q8.58418559041,-250.932111187 169.128424588,-97.6463414634" fill="none" style="stroke: rgb(255, 128, 0); stroke-width: 0.5"/> 
<path id = "curve" d = "M2.15038691509e-15,35.1184834123 Q-155.462542051,66.9908324514 -158.77816467,-91.6706161137" fill="none" style="stroke: rgb(51, 153, 255); stroke-width: 0.5"/> 
<path id = "curve" d = "M-158.77816467,-91.6706161137 Q-5.56005701749,-250.033767098 122.577481915,-70.7701421801" fill="none" style="stroke: rgb(51, 153, 255); stroke-width: 0.5"/> 
<path id = "curve" d = "M2.12140429401e-15,34.6451612903 Q-146.628825789,63.6094296569 -148.677006417,-85.8387096774" fill="none" style="stroke: rgb(51, 153, 255); stroke-width: 0.5"/> 
<path id = "curve" d = "M-148.677006417,-85.8387096774 Q-2.39422863406,-250.398043017 133.088549149,-76.8387096774" fill="none" style="stroke: rgb(51, 153, 255); stroke-width: 0.5"/> 
<path id = "curve" d = "M2.34307423306e-15,38.2653061224 Q-210.550597586,88.132145675 -221.631807417,-127.959183673" fill="none" style="stroke: rgb(0, 200, 102); stroke-width: 0.5"/> 
<path id = "curve" d = "M-221.631807417,-127.959183673 Q-25.2859860842,-247.611924375 56.9986107593,-32.9081632653" fill="none" style="stroke: rgb(0, 200, 102); stroke-width: 0.5"/> 
<path id = "curve" d = "M2.23979818138e-15,36.578680203 Q-161.078228168,69.4642291319 -164.377776134,-94.9035532995" fill="none" style="stroke: rgb(51, 153, 255); stroke-width: 0.5"/> 
<path id = "curve" d = "M-164.377776134,-94.9035532995 Q-7.47436857841,-248.909977391 115.713302936,-66.807106599" fill="none" style="stroke: rgb(51, 153, 255); stroke-width: 0.5"/> 
<path id = "curve" d = "M2.29550513276e-15,37.4884437596 Q-201.228443874,84.4863052224 -211.168752155,-121.918335901" fill="none" style="stroke: rgb(0, 200, 102); stroke-width: 0.5"/> 
<path id = "curve" d = "M-211.168752155,-121.918335901 Q-21.9686155868,-248.209809491 68.1344485628,-39.3374422188" fill="none" style="stroke: rgb(0, 200, 102); stroke-width: 0.5"/> 
<path id = "curve" d = "M2.32642607404e-15,37.9934210526 Q-115.097783646,52.9469456386 -109.05083045,-62.9605263158" fill="none" style="stroke: rgb(255, 128, 0); stroke-width: 0.5"/> 
<path id = "curve" d = "M-109.05083045,-62.9605263158 Q9.33276622158,-247.821171269 169.815047104,-98.0427631579" fill="none" style="stroke: rgb(255, 128, 0); stroke-width: 0.5"/> 
<path id = "curve" d = "M2.20612210468e-15,36.028708134 Q-162.608184766,69.8733623889 -166.575221206,-96.1722488038" fill="none" style="stroke: rgb(51, 153, 255); stroke-width: 0.5"/> 
<path id = "curve" d = "M-166.575221206,-96.1722488038 Q-8.07622577518,-249.333244278 113.992147646,-65.8133971292" fill="none" style="stroke: rgb(51, 153, 255); stroke-width: 0.5"/> 
<path id = "curve" d = "M2.15288227111e-15,35.1592356688 Q-172.296919432,73.1942014072 -178.638424851,-103.136942675" fill="none" style="stroke: rgb(51, 153, 255); stroke-width: 0.5"/> 
<path id = "curve" d = "M-178.638424851,-103.136942675 Q-11.6661458921,-250.00240354 102.681929245,-59.2834394904" fill="none" style="stroke: rgb(51, 153, 255); stroke-width: 0.5"/> 
<path id = "curve" d = "M2.28179706299e-15,37.264573991 Q-211.199909075,88.0914603966 -223.108338329,-128.811659193" fill="none" style="stroke: rgb(0, 200, 102); stroke-width: 0.5"/> 
<path id = "curve" d = "M-223.108338329,-128.811659193 Q-25.606436288,-248.382103077 56.3887392957,-32.5560538117" fill="none" style="stroke: rgb(0, 200, 102); stroke-width: 0.5"/> 
<path id = "curve" d = "M2.18520226247e-15,35.6870611836 Q-166.08115281,71.0553572935 -170.920580444,-98.6810431294" fill="none" style="stroke: rgb(51, 153, 255); stroke-width: 0.5"/> 
<path id = "curve" d = "M-170.920580444,-98.6810431294 Q-9.36558843815,-249.596180979 109.942663347,-63.4754262788" fill="none" style="stroke: rgb(51, 153, 255); stroke-width: 0.5"/> 
<path id = "curve" d = "M2.24139123073e-15,36.6046966732 Q-159.757730223,68.9857929012 -162.799217784,-93.9921722114" fill="none" style="stroke: rgb(51, 153, 255); stroke-width: 0.5"/> 
<path id = "curve" d = "M-162.799217784,-93.9921722114 Q-6.99292805545,-248.889954719 117.269330362,-67.7054794521" fill="none" style="stroke: rgb(51, 153, 255); stroke-width: 0.5"/> 
<line x1="1.83697019872e-15" y1="30.0" x2="270.0" y2="30.0" style="stroke: rgb(0, 0, 0); stroke-width: 5.0" transform="rotate(90,1.83697019872e-15,30.0)"/> 
<line x1="1.83697019872e-15" y1="30.0" x2="4.0" y2="30.0" style="stroke: rgb(0, 0, 0); stroke-width: 1.5" transform="rotate(180,1.83697019872e-15,30.0)"/> 
<line x1="1.83697019872e-15" y1="30.0" x2="4.0" y2="30.0" style="stroke: rgb(0, 0, 0); stroke-width: 1.5" transform="rotate(0,1.83697019872e-15,30.0)"/> 
<text x="-15.0" y="-30.0" style="fill:rgb(0, 0, 0)" font-size="10.0" font-family="sans-serif" transform="scale(1,-1) rotate(-90,-15.0,-30.0)" text-anchor="middle">0</text><line x1="5.97015314584e-15" y1="97.5" x2="4.0" y2="97.5" style="stroke: rgb(0, 0, 0); stroke-width: 1.5" transform="rotate(180,5.97015314584e-15,97.5)"/> 
<line x1="5.97015314584e-15" y1="97.5" x2="4.0" y2="97.5" style="stroke: rgb(0, 0, 0); stroke-width: 1.5" transform="rotate(0,5.97015314584e-15,97.5)"/> 
<text x="-15.0" y="-97.5" style="fill:rgb(0, 0, 0)" font-size="10.0" font-family="sans-serif" transform="scale(1,-1) rotate(-90,-15.0,-97.5)" text-anchor="middle">0.25</text><line x1="1.0103336093e-14" y1="165.0" x2="4.0" y2="165.0" style="stroke: rgb(0, 0, 0); stroke-width: 1.5" transform="rotate(180,1.0103336093e-14,165.0)"/> 
<line x1="1.0103336093e-14" y1="165.0" x2="4.0" y2="165.0" style="stroke: rgb(0, 0, 0); stroke-width: 1.5" transform="rotate(0,1.0103336093e-14,165.0)"/> 
<text x="-15.0" y="-165.0" style="fill:rgb(0, 0, 0)" font-size="10.0" font-family="sans-serif" transform="scale(1,-1) rotate(-90,-15.0,-165.0)" text-anchor="middle">0.5</text><line x1="1.42365190401e-14" y1="232.5" x2="4.0" y2="232.5" style="stroke: rgb(0, 0, 0); stroke-width: 1.5" transform="rotate(180,1.42365190401e-14,232.5)"/> 
<line x1="1.42365190401e-14" y1="232.5" x2="4.0" y2="232.5" style="stroke: rgb(0, 0, 0); stroke-width: 1.5" transform="rotate(0,1.42365190401e-14,232.5)"/> 
<text x="-15.0" y="-232.5" style="fill:rgb(0, 0, 0)" font-size="10.0" font-family="sans-serif" transform="scale(1,-1) rotate(-90,-15.0,-232.5)" text-anchor="middle">0.75</text><line x1="1.83697019872e-14" y1="300.0" x2="4.0" y2="300.0" style="stroke: rgb(0, 0, 0); stroke-width: 1.5" transform="rotate(180,1.83697019872e-14,300.0)"/> 
<line x1="1.83697019872e-14" y1="300.0" x2="4.0" y2="300.0" style="stroke: rgb(0, 0, 0); stroke-width: 1.5" transform="rotate(0,1.83697019872e-14,300.0)"/> 
<text x="-15.0" y="-300.0" style="fill:rgb(0, 0, 0)" font-size="10.0" font-family="sans-serif" transform="scale(1,-1) rotate(-90,-15.0,-300.0)" text-anchor="middle">1.0</text><line x1="-25.9807621135" y1="-15.0" x2="244.019237886" y2="-15.0" style="stroke: rgb(0, 0, 0); stroke-width: 5.0" transform="rotate(210,-25.9807621135,-15.0)"/> 
<line x1="-25.9807621135" y1="-15.0" x2="-21.9807621135" y2="-15.0" style="stroke: rgb(0, 0, 0); stroke-width: 1.5" transform="rotate(300,-25.9807621135,-15.0)"/> 
<line x1="-25.9807621135" y1="-15.0" x2="-21.9807621135" y2="-15.0" style="stroke: rgb(0, 0, 0); stroke-width: 1.5" transform="rotate(120,-25.9807621135,-15.0)"/> 
<text x="-18.4807621135" y="27.9903810568" style="fill:rgb(0, 0, 0)" font-size="10.0" font-family="sans-serif" transform="scale(1,-1) rotate(-390,-18.4807621135,27.9903810568)" text-anchor="middle">0</text><line x1="-84.437476869" y1="-48.75" x2="-80.437476869" y2="-48.75" style="stroke: rgb(0, 0, 0); stroke-width: 1.5" transform="rotate(300,-84.437476869,-48.75)"/> 
<line x1="-84.437476869" y1="-48.75" x2="-80.437476869" y2="-48.75" style="stroke: rgb(0, 0, 0); stroke-width: 1.5" transform="rotate(120,-84.437476869,-48.75)"/> 
<text x="-76.937476869" y="61.7403810568" style="fill:rgb(0, 0, 0)" font-size="10.0" font-family="sans-serif" transform="scale(1,-1) rotate(-390,-76.937476869,61.7403810568)" text-anchor="middle">0.25</text><line x1="-142.894191624" y1="-82.5" x2="-138.894191624" y2="-82.5" style="stroke: rgb(0, 0, 0); stroke-width: 1.5" transform="rotate(300,-142.894191624,-82.5)"/> 
<line x1="-142.894191624" y1="-82.5" x2="-138.894191624" y2="-82.5" style="stroke: rgb(0, 0, 0); stroke-width: 1.5" transform="rotate(120,-142.894191624,-82.5)"/> 
<text x="-135.394191624" y="95.4903810568" style="fill:rgb(0, 0, 0)" font-size="10.0" font-family="sans-serif" transform="scale(1,-1) rotate(-390,-135.394191624,95.4903810568)" text-anchor="middle">0.5</text><line x1="-201.35090638" y1="-116.25" x2="-197.35090638" y2="-116.25" style="stroke: rgb(0, 0, 0); stroke-width: 1.5" transform="rotate(300,-201.35090638,-116.25)"/> 
<line x1="-201.35090638" y1="-116.25" x2="-197.35090638" y2="-116.25" style="stroke: rgb(0, 0, 0); stroke-width: 1.5" transform="rotate(120,-201.35090638,-116.25)"/> 
<text x="-193.85090638" y="129.240381057" style="fill:rgb(0, 0, 0)" font-size="10.0" font-family="sans-serif" transform="scale(1,-1) rotate(-390,-193.85090638,129.240381057)" text-anchor="middle">0.75</text><line x1="-259.807621135" y1="-150.0" x2="-255.807621135" y2="-150.0" style="stroke: rgb(0, 0, 0); stroke-width: 1.5" transform="rotate(300,-259.807621135,-150.0)"/> 
<line x1="-259.807621135" y1="-150.0" x2="-255.807621135" y2="-150.0" style="stroke: rgb(0, 0, 0); stroke-width: 1.5" transform="rotate(120,-259.807621135,-150.0)"/> 
<text x="-252.307621135" y="162.990381057" style="fill:rgb(0, 0, 0)" font-size="10.0" font-family="sans-serif" transform="scale(1,-1) rotate(-390,-252.307621135,162.990381057)" text-anchor="middle">1.0</text><line x1="25.9807621135" y1="-15.0" x2="295.980762114" y2="-15.0" style="stroke: rgb(0, 0, 0); stroke-width: 5.0" transform="rotate(330,25.9807621135,-15.0)"/> 
<line x1="25.9807621135" y1="-15.0" x2="29.9807621135" y2="-15.0" style="stroke: rgb(0, 0, 0); stroke-width: 1.5" transform="rotate(420,25.9807621135,-15.0)"/> 
<line x1="25.9807621135" y1="-15.0" x2="29.9807621135" y2="-15.0" style="stroke: rgb(0, 0, 0); stroke-width: 1.5" transform="rotate(240,25.9807621135,-15.0)"/> 
<text x="33.4807621135" y="2.00961894323" style="fill:rgb(0, 0, 0)" font-size="10.0" font-family="sans-serif" transform="scale(1,-1) rotate(-330,33.4807621135,2.00961894323)" text-anchor="middle">0</text><line x1="84.437476869" y1="-48.75" x2="88.437476869" y2="-48.75" style="stroke: rgb(0, 0, 0); stroke-width: 1.5" transform="rotate(420,84.437476869,-48.75)"/> 
<line x1="84.437476869" y1="-48.75" x2="88.437476869" y2="-48.75" style="stroke: rgb(0, 0, 0); stroke-width: 1.5" transform="rotate(240,84.437476869,-48.75)"/> 
<text x="91.937476869" y="35.7596189432" style="fill:rgb(0, 0, 0)" font-size="10.0" font-family="sans-serif" transform="scale(1,-1) rotate(-330,91.937476869,35.7596189432)" text-anchor="middle">0.25</text><line x1="142.894191624" y1="-82.5" x2="146.894191624" y2="-82.5" style="stroke: rgb(0, 0, 0); stroke-width: 1.5" transform="rotate(420,142.894191624,-82.5)"/> 
<line x1="142.894191624" y1="-82.5" x2="146.894191624" y2="-82.5" style="stroke: rgb(0, 0, 0); stroke-width: 1.5" transform="rotate(240,142.894191624,-82.5)"/> 
<text x="150.394191624" y="69.5096189432" style="fill:rgb(0, 0, 0)" font-size="10.0" font-family="sans-serif" transform="scale(1,-1) rotate(-330,150.394191624,69.5096189432)" text-anchor="middle">0.5</text><line x1="201.35090638" y1="-116.25" x2="205.35090638" y2="-116.25" style="stroke: rgb(0, 0, 0); stroke-width: 1.5" transform="rotate(420,201.35090638,-116.25)"/> 
<line x1="201.35090638" y1="-116.25" x2="205.35090638" y2="-116.25" style="stroke: rgb(0, 0, 0); stroke-width: 1.5" transform="rotate(240,201.35090638,-116.25)"/> 
<text x="208.85090638" y="103.259618943" style="fill:rgb(0, 0, 0)" font-size="10.0" font-family="sans-serif" transform="scale(1,-1) rotate(-330,208.85090638,103.259618943)" text-anchor="middle">0.75</text><line x1="259.807621135" y1="-150.0" x2="263.807621135" y2="-150.0" style="stroke: rgb(0, 0, 0); stroke-width: 1.5" transform="rotate(420,259.807621135,-150.0)"/> 
<line x1="259.807621135" y1="-150.0" x2="263.807621135" y2="-150.0" style="stroke: rgb(0, 0, 0); stroke-width: 1.5" transform="rotate(240,259.807621135,-150.0)"/> 
<text x="267.307621135" y="137.009618943" style="fill:rgb(0, 0, 0)" font-size="10.0" font-family="sans-serif" transform="scale(1,-1) rotate(-330,267.307621135,137.009618943)" text-anchor="middle">1.0</text><text y="-350.0" style="fill:rgb(0, 0, 0)" font-size="15.0" font-family="sans-serif" transform="scale(1,-1)" text-anchor="middle"><tspan x="2.14313189851e-14">CD46</tspan><tspan x="2.14313189851e-14" dy="15.0">207940540-207940952</tspan></text><text y="175.0" style="fill:rgb(0, 0, 0)" font-size="15.0" font-family="sans-serif" transform="scale(1,-1)" text-anchor="middle"><tspan x="-303.108891325">CD46</tspan><tspan x="-303.108891325" dy="15.0">207940540-207941124</tspan></text><text y="175.0" style="fill:rgb(0, 0, 0)" font-size="15.0" font-family="sans-serif" transform="scale(1,-1)" text-anchor="middle"><tspan x="303.108891325">CD46</tspan><tspan x="303.108891325" dy="15.0">207940540-207943666</tspan></text><text x="100" y="-200" style="fill:rgb(0, 0, 0)" font-size="20.0" font-family="sans-serif" transform="scale(1,-1) rotate(0,100,-200)" text-anchor="left">genotype</text><rect x="100" y="172.5" width="15.0" height="15.0" style="fill:rgb(255, 128, 0); stroke-width:1; stroke:rgb(255, 128, 0)"/>
<text x="130.0" y="-172.5" style="fill:rgb(0, 0, 0)" font-size="15.0" font-family="sans-serif" transform="scale(1,-1) rotate(0,130.0,-172.5)" text-anchor="left">GG</text><rect x="100" y="142.5" width="15.0" height="15.0" style="fill:rgb(0, 200, 102); stroke-width:1; stroke:rgb(0, 200, 102)"/>
<text x="130.0" y="-142.5" style="fill:rgb(0, 0, 0)" font-size="15.0" font-family="sans-serif" transform="scale(1,-1) rotate(0,130.0,-142.5)" text-anchor="left">TT</text><rect x="100" y="112.5" width="15.0" height="15.0" style="fill:rgb(51, 153, 255); stroke-width:1; stroke:rgb(51, 153, 255)"/>
<text x="130.0" y="-112.5" style="fill:rgb(0, 0, 0)" font-size="15.0" font-family="sans-serif" transform="scale(1,-1) rotate(0,130.0,-112.5)" text-anchor="left">GT</text></g>
</svg>
