<?xml version="1.0"?>
<!DOCTYPE svg PUBLIC "-//W3C//DTD SVG 1.1//EN" "http://www.w3.org/Graphics/SVG/1.1/DTD/svg11.dtd">
<svg width="1000px" height="400px" version="1.1" xmlns="http://www.w3.org/2000/svg" xmlns:xlink="http://www.w3.org/1999/xlink">
<g transform="translate(0,400) scale(1,-1)">
<rect x="100" y="100" width="15" height="3.65853658537" style="fill:rgb(255, 128, 0); stroke-width:1; stroke:rgb(255, 128, 0)"/>
<rect x="100" y="103.658536585" width="15" height="93.2926829268" style="fill:rgb(0, 200, 102); stroke-width:1; stroke:rgb(0, 200, 102)"/>
<rect x="100" y="196.951219512" width="15" height="153.048780488" style="fill:rgb(51, 153, 255); stroke-width:1; stroke:rgb(51, 153, 255)"/>
<rect x="115" y="100" width="15" height="7.40131578947" style="fill:rgb(255, 128, 0); stroke-width:1; stroke:rgb(255, 128, 0)"/>
<rect x="115" y="107.401315789" width="15" height="88.8157894737" style="fill:rgb(0, 200, 102); stroke-width:1; stroke:rgb(0, 200, 102)"/>
<rect x="115" y="196.217105263" width="15" height="153.782894737" style="fill:rgb(51, 153, 255); stroke-width:1; stroke:rgb(51, 153, 255)"/>
<rect x="130" y="100" width="15" height="3.69458128079" style="fill:rgb(255, 128, 0); stroke-width:1; stroke:rgb(255, 128, 0)"/>
<rect x="130" y="103.694581281" width="15" height="143.596059113" style="fill:rgb(0, 200, 102); stroke-width:1; stroke:rgb(0, 200, 102)"/>
<rect x="130" y="247.290640394" width="15" height="102.709359606" style="fill:rgb(51, 153, 255); stroke-width:1; stroke:rgb(51, 153, 255)"/>
<line x1="130" y1="95.0" x2="130" y2="350" style="stroke: rgb(0, 0, 0); stroke-width: 2.0"/> 
<text x="115.0" y="-75.0" style="fill:rgb(0, 0, 0)" font-size="20.0" font-family="sans-serif" transform="scale(1,-1) rotate(0,115.0,-75.0)" text-anchor="middle">GG</text><rect x="145" y="100" width="15" height="3.82653061224" style="fill:rgb(255, 128, 0); stroke-width:1; stroke:rgb(255, 128, 0)"/>
<rect x="145" y="103.826530612" width="15" height="128.06122449" style="fill:rgb(0, 200, 102); stroke-width:1; stroke:rgb(0, 200, 102)"/>
<rect x="145" y="231.887755102" width="15" height="118.112244898" style="fill:rgb(51, 153, 255); stroke-width:1; stroke:rgb(51, 153, 255)"/>
<rect x="160" y="100" width="15" height="4.12087912088" style="fill:rgb(255, 128, 0); stroke-width:1; stroke:rgb(255, 128, 0)"/>
<rect x="160" y="104.120879121" width="15" height="134.89010989" style="fill:rgb(0, 200, 102); stroke-width:1; stroke:rgb(0, 200, 102)"/>
<rect x="160" y="239.010989011" width="15" height="110.989010989" style="fill:rgb(51, 153, 255); stroke-width:1; stroke:rgb(51, 153, 255)"/>
<rect x="175" y="100" width="15" height="6.02968460111" style="fill:rgb(255, 128, 0); stroke-width:1; stroke:rgb(255, 128, 0)"/>
<rect x="175" y="106.029684601" width="15" height="153.988868275" style="fill:rgb(0, 200, 102); stroke-width:1; stroke:rgb(0, 200, 102)"/>
<rect x="175" y="260.018552876" width="15" height="89.9814471243" style="fill:rgb(51, 153, 255); stroke-width:1; stroke:rgb(51, 153, 255)"/>
<rect x="190" y="100" width="15" height="4.80769230769" style="fill:rgb(255, 128, 0); stroke-width:1; stroke:rgb(255, 128, 0)"/>
<rect x="190" y="104.807692308" width="15" height="138.291855204" style="fill:rgb(0, 200, 102); stroke-width:1; stroke:rgb(0, 200, 102)"/>
<rect x="190" y="243.099547511" width="15" height="106.900452489" style="fill:rgb(51, 153, 255); stroke-width:1; stroke:rgb(51, 153, 255)"/>
<rect x="205" y="100" width="15" height="6.99558173785" style="fill:rgb(255, 128, 0); stroke-width:1; stroke:rgb(255, 128, 0)"/>
<rect x="205" y="106.995581738" width="15" height="146.539027982" style="fill:rgb(0, 200, 102); stroke-width:1; stroke:rgb(0, 200, 102)"/>
<rect x="205" y="253.53460972" width="15" height="96.4653902798" style="fill:rgb(51, 153, 255); stroke-width:1; stroke:rgb(51, 153, 255)"/>
<rect x="220" y="100" width="15" height="5.16282764098" style="fill:rgb(255, 128, 0); stroke-width:1; stroke:rgb(255, 128, 0)"/>
<rect x="220" y="105.162827641" width="15" height="142.970611597" style="fill:rgb(0, 200, 102); stroke-width:1; stroke:rgb(0, 200, 102)"/>
<rect x="220" y="248.133439237" width="15" height="101.866560763" style="fill:rgb(51, 153, 255); stroke-width:1; stroke:rgb(51, 153, 255)"/>
<rect x="235" y="100" width="15" height="3.34928229665" style="fill:rgb(255, 128, 0); stroke-width:1; stroke:rgb(255, 128, 0)"/>
<rect x="235" y="103.349282297" width="15" height="141.866028708" style="fill:rgb(0, 200, 102); stroke-width:1; stroke:rgb(0, 200, 102)"/>
<rect x="235" y="245.215311005" width="15" height="104.784688995" style="fill:rgb(51, 153, 255); stroke-width:1; stroke:rgb(51, 153, 255)"/>
<rect x="250" y="100" width="15" height="3.89812889813" style="fill:rgb(255, 128, 0); stroke-width:1; stroke:rgb(255, 128, 0)"/>
<rect x="250" y="103.898128898" width="15" height="134.615384615" style="fill:rgb(0, 200, 102); stroke-width:1; stroke:rgb(0, 200, 102)"/>
<rect x="250" y="238.513513514" width="15" height="111.486486486" style="fill:rgb(51, 153, 255); stroke-width:1; stroke:rgb(51, 153, 255)"/>
<rect x="265" y="100" width="15" height="4.73933649289" style="fill:rgb(255, 128, 0); stroke-width:1; stroke:rgb(255, 128, 0)"/>
<rect x="265" y="104.739336493" width="15" height="141.982622433" style="fill:rgb(0, 200, 102); stroke-width:1; stroke:rgb(0, 200, 102)"/>
<rect x="265" y="246.721958926" width="15" height="103.278041074" style="fill:rgb(51, 153, 255); stroke-width:1; stroke:rgb(51, 153, 255)"/>
<rect x="280" y="100" width="15" height="4.30107526882" style="fill:rgb(255, 128, 0); stroke-width:1; stroke:rgb(255, 128, 0)"/>
<rect x="280" y="104.301075269" width="15" height="131.182795699" style="fill:rgb(0, 200, 102); stroke-width:1; stroke:rgb(0, 200, 102)"/>
<rect x="280" y="235.483870968" width="15" height="114.516129032" style="fill:rgb(51, 153, 255); stroke-width:1; stroke:rgb(51, 153, 255)"/>
<rect x="295" y="100" width="15" height="6.09137055838" style="fill:rgb(255, 128, 0); stroke-width:1; stroke:rgb(255, 128, 0)"/>
<rect x="295" y="106.091370558" width="15" height="147.969543147" style="fill:rgb(0, 200, 102); stroke-width:1; stroke:rgb(0, 200, 102)"/>
<rect x="295" y="254.060913706" width="15" height="95.9390862944" style="fill:rgb(51, 153, 255); stroke-width:1; stroke:rgb(51, 153, 255)"/>
<rect x="310" y="100" width="15" height="5.58213716108" style="fill:rgb(255, 128, 0); stroke-width:1; stroke:rgb(255, 128, 0)"/>
<rect x="310" y="105.582137161" width="15" height="150.318979266" style="fill:rgb(0, 200, 102); stroke-width:1; stroke:rgb(0, 200, 102)"/>
<rect x="310" y="255.901116427" width="15" height="94.0988835726" style="fill:rgb(51, 153, 255); stroke-width:1; stroke:rgb(51, 153, 255)"/>
<rect x="325" y="100" width="15" height="4.77707006369" style="fill:rgb(255, 128, 0); stroke-width:1; stroke:rgb(255, 128, 0)"/>
<rect x="325" y="104.777070064" width="15" height="163.21656051" style="fill:rgb(0, 200, 102); stroke-width:1; stroke:rgb(0, 200, 102)"/>
<rect x="325" y="267.993630573" width="15" height="82.0063694268" style="fill:rgb(51, 153, 255); stroke-width:1; stroke:rgb(51, 153, 255)"/>
<rect x="340" y="100" width="15" height="5.26579739218" style="fill:rgb(255, 128, 0); stroke-width:1; stroke:rgb(255, 128, 0)"/>
<rect x="340" y="105.265797392" width="15" height="154.964894684" style="fill:rgb(0, 200, 102); stroke-width:1; stroke:rgb(0, 200, 102)"/>
<rect x="340" y="260.230692076" width="15" height="89.7693079238" style="fill:rgb(51, 153, 255); stroke-width:1; stroke:rgb(51, 153, 255)"/>
<rect x="355" y="100" width="15" height="6.11545988258" style="fill:rgb(255, 128, 0); stroke-width:1; stroke:rgb(255, 128, 0)"/>
<rect x="355" y="106.115459883" width="15" height="146.281800391" style="fill:rgb(0, 200, 102); stroke-width:1; stroke:rgb(0, 200, 102)"/>
<rect x="355" y="252.397260274" width="15" height="97.602739726" style="fill:rgb(51, 153, 255); stroke-width:1; stroke:rgb(51, 153, 255)"/>
<rect x="370" y="100" width="15" height="4.87804878049" style="fill:rgb(255, 128, 0); stroke-width:1; stroke:rgb(255, 128, 0)"/>
<rect x="370" y="104.87804878" width="15" height="202.032520325" style="fill:rgb(0, 200, 102); stroke-width:1; stroke:rgb(0, 200, 102)"/>
<rect x="370" y="306.910569106" width="15" height="43.0894308943" style="fill:rgb(51, 153, 255); stroke-width:1; stroke:rgb(51, 153, 255)"/>
<line x1="370" y1="95.0" x2="370" y2="350" style="stroke: rgb(0, 0, 0); stroke-width: 2.0"/> 
<text x="250.0" y="-75.0" style="fill:rgb(0, 0, 0)" font-size="20.0" font-family="sans-serif" transform="scale(1,-1) rotate(0,250.0,-75.0)" text-anchor="middle">GT</text><rect x="385" y="100" width="15" height="8.37988826816" style="fill:rgb(255, 128, 0); stroke-width:1; stroke:rgb(255, 128, 0)"/>
<rect x="385" y="108.379888268" width="15" height="203.910614525" style="fill:rgb(0, 200, 102); stroke-width:1; stroke:rgb(0, 200, 102)"/>
<rect x="385" y="312.290502793" width="15" height="37.7094972067" style="fill:rgb(51, 153, 255); stroke-width:1; stroke:rgb(51, 153, 255)"/>
<rect x="400" y="100" width="15" height="3.85071090047" style="fill:rgb(255, 128, 0); stroke-width:1; stroke:rgb(255, 128, 0)"/>
<rect x="400" y="103.8507109" width="15" height="211.196682464" style="fill:rgb(0, 200, 102); stroke-width:1; stroke:rgb(0, 200, 102)"/>
<rect x="400" y="315.047393365" width="15" height="34.9526066351" style="fill:rgb(51, 153, 255); stroke-width:1; stroke:rgb(51, 153, 255)"/>
<rect x="415" y="100" width="15" height="7.46268656716" style="fill:rgb(255, 128, 0); stroke-width:1; stroke:rgb(255, 128, 0)"/>
<rect x="415" y="107.462686567" width="15" height="189.552238806" style="fill:rgb(0, 200, 102); stroke-width:1; stroke:rgb(0, 200, 102)"/>
<rect x="415" y="297.014925373" width="15" height="52.9850746269" style="fill:rgb(51, 153, 255); stroke-width:1; stroke:rgb(51, 153, 255)"/>
<rect x="430" y="100" width="15" height="4.25894378194" style="fill:rgb(255, 128, 0); stroke-width:1; stroke:rgb(255, 128, 0)"/>
<rect x="430" y="104.258943782" width="15" height="198.04088586" style="fill:rgb(0, 200, 102); stroke-width:1; stroke:rgb(0, 200, 102)"/>
<rect x="430" y="302.299829642" width="15" height="47.7001703578" style="fill:rgb(51, 153, 255); stroke-width:1; stroke:rgb(51, 153, 255)"/>
<rect x="445" y="100" width="15" height="3.80434782609" style="fill:rgb(255, 128, 0); stroke-width:1; stroke:rgb(255, 128, 0)"/>
<rect x="445" y="103.804347826" width="15" height="204.347826087" style="fill:rgb(0, 200, 102); stroke-width:1; stroke:rgb(0, 200, 102)"/>
<rect x="445" y="308.152173913" width="15" height="41.847826087" style="fill:rgb(51, 153, 255); stroke-width:1; stroke:rgb(51, 153, 255)"/>
<rect x="460" y="100" width="15" height="4.1095890411" style="fill:rgb(255, 128, 0); stroke-width:1; stroke:rgb(255, 128, 0)"/>
<rect x="460" y="104.109589041" width="15" height="203.424657534" style="fill:rgb(0, 200, 102); stroke-width:1; stroke:rgb(0, 200, 102)"/>
<rect x="460" y="307.534246575" width="15" height="42.4657534247" style="fill:rgb(51, 153, 255); stroke-width:1; stroke:rgb(51, 153, 255)"/>
<rect x="475" y="100" width="15" height="3.04347826087" style="fill:rgb(255, 128, 0); stroke-width:1; stroke:rgb(255, 128, 0)"/>
<rect x="475" y="103.043478261" width="15" height="206.956521739" style="fill:rgb(0, 200, 102); stroke-width:1; stroke:rgb(0, 200, 102)"/>
<rect x="475" y="310.0" width="15" height="40.0" style="fill:rgb(51, 153, 255); stroke-width:1; stroke:rgb(51, 153, 255)"/>
<rect x="490" y="100" width="15" height="5.73300573301" style="fill:rgb(255, 128, 0); stroke-width:1; stroke:rgb(255, 128, 0)"/>
<rect x="490" y="105.733005733" width="15" height="201.269451269" style="fill:rgb(0, 200, 102); stroke-width:1; stroke:rgb(0, 200, 102)"/>
<rect x="490" y="307.002457002" width="15" height="42.9975429975" style="fill:rgb(51, 153, 255); stroke-width:1; stroke:rgb(51, 153, 255)"/>
<rect x="505" y="100" width="15" height="8.02919708029" style="fill:rgb(255, 128, 0); stroke-width:1; stroke:rgb(255, 128, 0)"/>
<rect x="505" y="108.02919708" width="15" height="196.715328467" style="fill:rgb(0, 200, 102); stroke-width:1; stroke:rgb(0, 200, 102)"/>
<rect x="505" y="304.744525547" width="15" height="45.2554744526" style="fill:rgb(51, 153, 255); stroke-width:1; stroke:rgb(51, 153, 255)"/>
<rect x="520" y="100" width="15" height="3.83631713555" style="fill:rgb(255, 128, 0); stroke-width:1; stroke:rgb(255, 128, 0)"/>
<rect x="520" y="103.836317136" width="15" height="211.636828645" style="fill:rgb(0, 200, 102); stroke-width:1; stroke:rgb(0, 200, 102)"/>
<rect x="520" y="315.47314578" width="15" height="34.5268542199" style="fill:rgb(51, 153, 255); stroke-width:1; stroke:rgb(51, 153, 255)"/>
<rect x="535" y="100" width="15" height="3.2722513089" style="fill:rgb(255, 128, 0); stroke-width:1; stroke:rgb(255, 128, 0)"/>
<rect x="535" y="103.272251309" width="15" height="178.664921466" style="fill:rgb(0, 200, 102); stroke-width:1; stroke:rgb(0, 200, 102)"/>
<rect x="535" y="281.937172775" width="15" height="68.0628272251" style="fill:rgb(51, 153, 255); stroke-width:1; stroke:rgb(51, 153, 255)"/>
<rect x="550" y="100" width="15" height="5.62283737024" style="fill:rgb(255, 128, 0); stroke-width:1; stroke:rgb(255, 128, 0)"/>
<rect x="550" y="105.62283737" width="15" height="203.719723183" style="fill:rgb(0, 200, 102); stroke-width:1; stroke:rgb(0, 200, 102)"/>
<rect x="550" y="309.342560554" width="15" height="40.6574394464" style="fill:rgb(51, 153, 255); stroke-width:1; stroke:rgb(51, 153, 255)"/>
<rect x="565" y="100" width="15" height="5.21920668058" style="fill:rgb(255, 128, 0); stroke-width:1; stroke:rgb(255, 128, 0)"/>
<rect x="565" y="105.219206681" width="15" height="193.110647182" style="fill:rgb(0, 200, 102); stroke-width:1; stroke:rgb(0, 200, 102)"/>
<rect x="565" y="298.329853862" width="15" height="51.6701461378" style="fill:rgb(51, 153, 255); stroke-width:1; stroke:rgb(51, 153, 255)"/>
<rect x="580" y="100" width="15" height="6.89845474614" style="fill:rgb(255, 128, 0); stroke-width:1; stroke:rgb(255, 128, 0)"/>
<rect x="580" y="106.898454746" width="15" height="208.057395143" style="fill:rgb(0, 200, 102); stroke-width:1; stroke:rgb(0, 200, 102)"/>
<rect x="580" y="314.95584989" width="15" height="35.0441501104" style="fill:rgb(51, 153, 255); stroke-width:1; stroke:rgb(51, 153, 255)"/>
<rect x="595" y="100" width="15" height="5.20833333333" style="fill:rgb(255, 128, 0); stroke-width:1; stroke:rgb(255, 128, 0)"/>
<rect x="595" y="105.208333333" width="15" height="202.75297619" style="fill:rgb(0, 200, 102); stroke-width:1; stroke:rgb(0, 200, 102)"/>
<rect x="595" y="307.961309524" width="15" height="42.0386904762" style="fill:rgb(51, 153, 255); stroke-width:1; stroke:rgb(51, 153, 255)"/>
<rect x="610" y="100" width="15" height="5.03144654088" style="fill:rgb(255, 128, 0); stroke-width:1; stroke:rgb(255, 128, 0)"/>
<rect x="610" y="105.031446541" width="15" height="213.522012579" style="fill:rgb(0, 200, 102); stroke-width:1; stroke:rgb(0, 200, 102)"/>
<rect x="610" y="318.553459119" width="15" height="31.4465408805" style="fill:rgb(51, 153, 255); stroke-width:1; stroke:rgb(51, 153, 255)"/>
<rect x="625" y="100" width="15" height="7.65306122449" style="fill:rgb(255, 128, 0); stroke-width:1; stroke:rgb(255, 128, 0)"/>
<rect x="625" y="107.653061224" width="15" height="209.183673469" style="fill:rgb(0, 200, 102); stroke-width:1; stroke:rgb(0, 200, 102)"/>
<rect x="625" y="316.836734694" width="15" height="33.1632653061" style="fill:rgb(51, 153, 255); stroke-width:1; stroke:rgb(51, 153, 255)"/>
<rect x="640" y="100" width="15" height="6.93374422188" style="fill:rgb(255, 128, 0); stroke-width:1; stroke:rgb(255, 128, 0)"/>
<rect x="640" y="106.933744222" width="15" height="197.996918336" style="fill:rgb(0, 200, 102); stroke-width:1; stroke:rgb(0, 200, 102)"/>
<rect x="640" y="304.930662558" width="15" height="45.0693374422" style="fill:rgb(51, 153, 255); stroke-width:1; stroke:rgb(51, 153, 255)"/>
<rect x="655" y="100" width="15" height="6.7264573991" style="fill:rgb(255, 128, 0); stroke-width:1; stroke:rgb(255, 128, 0)"/>
<rect x="655" y="106.726457399" width="15" height="210.762331839" style="fill:rgb(0, 200, 102); stroke-width:1; stroke:rgb(0, 200, 102)"/>
<rect x="655" y="317.488789238" width="15" height="32.5112107623" style="fill:rgb(51, 153, 255); stroke-width:1; stroke:rgb(51, 153, 255)"/>
<text x="512.5" y="-75.0" style="fill:rgb(0, 0, 0)" font-size="20.0" font-family="sans-serif" transform="scale(1,-1) rotate(0,512.5,-75.0)" text-anchor="middle">TT</text><line x1="95.0" y1="150.0" x2="105.0" y2="150.0" style="stroke: rgb(0, 0, 0); stroke-width: 2.0"/> 
<text x="80.0" y="-146.25" style="fill:rgb(0, 0, 0)" font-size="15.0" font-family="sans-serif" transform="scale(1,-1) rotate(0,80.0,-146.25)" text-anchor="middle">0.2</text><line x1="95.0" y1="200.0" x2="105.0" y2="200.0" style="stroke: rgb(0, 0, 0); stroke-width: 2.0"/> 
<text x="80.0" y="-196.25" style="fill:rgb(0, 0, 0)" font-size="15.0" font-family="sans-serif" transform="scale(1,-1) rotate(0,80.0,-196.25)" text-anchor="middle">0.4</text><line x1="95.0" y1="250.0" x2="105.0" y2="250.0" style="stroke: rgb(0, 0, 0); stroke-width: 2.0"/> 
<text x="80.0" y="-246.25" style="fill:rgb(0, 0, 0)" font-size="15.0" font-family="sans-serif" transform="scale(1,-1) rotate(0,80.0,-246.25)" text-anchor="middle">0.6</text><line x1="95.0" y1="300.0" x2="105.0" y2="300.0" style="stroke: rgb(0, 0, 0); stroke-width: 2.0"/> 
<text x="80.0" y="-296.25" style="fill:rgb(0, 0, 0)" font-size="15.0" font-family="sans-serif" transform="scale(1,-1) rotate(0,80.0,-296.25)" text-anchor="middle">0.8</text><line x1="95.0" y1="350.0" x2="105.0" y2="350.0" style="stroke: rgb(0, 0, 0); stroke-width: 2.0"/> 
<text x="80.0" y="-346.25" style="fill:rgb(0, 0, 0)" font-size="15.0" font-family="sans-serif" transform="scale(1,-1) rotate(0,80.0,-346.25)" text-anchor="middle">1.0</text><line x1="99.0" y1="350" x2="671.0" y2="350" style="stroke: rgb(0, 0, 0); stroke-width: 2.0"/> 
<line x1="100" y1="351.0" x2="100" y2="99.0" style="stroke: rgb(0, 0, 0); stroke-width: 2.0"/> 
<line x1="670" y1="99.0" x2="670" y2="351.0" style="stroke: rgb(0, 0, 0); stroke-width: 2.0"/> 
<line x1="671.0" y1="100" x2="99.0" y2="100" style="stroke: rgb(0, 0, 0); stroke-width: 2.0"/> 
<text x="385.0" y="-50.0" style="fill:rgb(0, 0, 0)" font-size="27.0" font-family="sans-serif" transform="scale(1,-1) rotate(0,385.0,-50.0)" text-anchor="middle">genotype</text><rect x="710" y="270.0" width="15.0" height="15.0" style="fill:rgb(255, 128, 0); stroke-width:1; stroke:rgb(255, 128, 0)"/>
<text x="740.0" y="-270.0" style="fill:rgb(0, 0, 0)" font-size="15.0" font-family="sans-serif" transform="scale(1,-1) rotate(0,740.0,-270.0)" text-anchor="left">CD46:207940540-207940952</text><rect x="710" y="240.0" width="15.0" height="15.0" style="fill:rgb(0, 200, 102); stroke-width:1; stroke:rgb(0, 200, 102)"/>
<text x="740.0" y="-240.0" style="fill:rgb(0, 0, 0)" font-size="15.0" font-family="sans-serif" transform="scale(1,-1) rotate(0,740.0,-240.0)" text-anchor="left">CD46:207940540-207941124</text><rect x="710" y="210.0" width="15.0" height="15.0" style="fill:rgb(51, 153, 255); stroke-width:1; stroke:rgb(51, 153, 255)"/>
<text x="740.0" y="-210.0" style="fill:rgb(0, 0, 0)" font-size="15.0" font-family="sans-serif" transform="scale(1,-1) rotate(0,740.0,-210.0)" text-anchor="left">CD46:207940540-207943666</text></g>
</svg>
