<?xml version="1.0"?>
<!DOCTYPE svg PUBLIC "-//W3C//DTD SVG 1.1//EN" "http://www.w3.org/Graphics/SVG/1.1/DTD/svg11.dtd">
<svg width="9.0in" height="3.0in" version="1.1" xmlns="http://www.w3.org/2000/svg" xmlns:xlink="http://www.w3.org/1999/xlink" viewBox="0 0 9.0 3.0">
<g transform="translate(0,3.0) scale(1,-1)">
<rect x="0.5" y="1.0" width="0.0905172413793" height="0.428571428571" style="fill:rgb(204, 0, 17); stroke-width:0; stroke:rgb(204, 0, 17)"/>
<rect x="0.5" y="1.42857142857" width="0.0905172413793" height="1.37142857143" style="fill:rgb(255, 136, 0); stroke-width:0; stroke:rgb(255, 136, 0)"/>
<rect x="0.5" y="2.8" width="0.0905172413793" height="0.0" style="fill:rgb(255, 204, 51); stroke-width:0; stroke:rgb(255, 204, 51)"/>
<rect x="0.590517241379" y="1.0" width="0.0905172413793" height="0.09" style="fill:rgb(204, 0, 17); stroke-width:0; stroke:rgb(204, 0, 17)"/>
<rect x="0.590517241379" y="1.09" width="0.0905172413793" height="1.71" style="fill:rgb(255, 136, 0); stroke-width:0; stroke:rgb(255, 136, 0)"/>
<rect x="0.590517241379" y="2.8" width="0.0905172413793" height="0.0" style="fill:rgb(255, 204, 51); stroke-width:0; stroke:rgb(255, 204, 51)"/>
<rect x="0.681034482759" y="1.0" width="0.0905172413793" height="0.514285714286" style="fill:rgb(204, 0, 17); stroke-width:0; stroke:rgb(204, 0, 17)"/>
<rect x="0.681034482759" y="1.51428571429" width="0.0905172413793" height="1.28571428571" style="fill:rgb(255, 136, 0); stroke-width:0; stroke:rgb(255, 136, 0)"/>
<rect x="0.681034482759" y="2.8" width="0.0905172413793" height="0.0" style="fill:rgb(255, 204, 51); stroke-width:0; stroke:rgb(255, 204, 51)"/>
<rect x="0.771551724138" y="1.0" width="0.0905172413793" height="0.428571428571" style="fill:rgb(204, 0, 17); stroke-width:0; stroke:rgb(204, 0, 17)"/>
<rect x="0.771551724138" y="1.42857142857" width="0.0905172413793" height="1.28571428571" style="fill:rgb(255, 136, 0); stroke-width:0; stroke:rgb(255, 136, 0)"/>
<rect x="0.771551724138" y="2.71428571429" width="0.0905172413793" height="0.0857142857143" style="fill:rgb(255, 204, 51); stroke-width:0; stroke:rgb(255, 204, 51)"/>
<rect x="0.862068965517" y="1.0" width="0.0905172413793" height="0.0" style="fill:rgb(204, 0, 17); stroke-width:0; stroke:rgb(204, 0, 17)"/>
<rect x="0.862068965517" y="1.0" width="0.0905172413793" height="1.8" style="fill:rgb(255, 136, 0); stroke-width:0; stroke:rgb(255, 136, 0)"/>
<rect x="0.862068965517" y="2.8" width="0.0905172413793" height="0.0" style="fill:rgb(255, 204, 51); stroke-width:0; stroke:rgb(255, 204, 51)"/>
<rect x="0.952586206897" y="1.0" width="0.0905172413793" height="0.0947368421053" style="fill:rgb(204, 0, 17); stroke-width:0; stroke:rgb(204, 0, 17)"/>
<rect x="0.952586206897" y="1.09473684211" width="0.0905172413793" height="1.70526315789" style="fill:rgb(255, 136, 0); stroke-width:0; stroke:rgb(255, 136, 0)"/>
<rect x="0.952586206897" y="2.8" width="0.0905172413793" height="0.0" style="fill:rgb(255, 204, 51); stroke-width:0; stroke:rgb(255, 204, 51)"/>
<rect x="1.04310344828" y="1.0" width="0.0905172413793" height="1.24615384615" style="fill:rgb(204, 0, 17); stroke-width:0; stroke:rgb(204, 0, 17)"/>
<rect x="1.04310344828" y="2.24615384615" width="0.0905172413793" height="0.553846153846" style="fill:rgb(255, 136, 0); stroke-width:0; stroke:rgb(255, 136, 0)"/>
<rect x="1.04310344828" y="2.8" width="0.0905172413793" height="0.0" style="fill:rgb(255, 204, 51); stroke-width:0; stroke:rgb(255, 204, 51)"/>
<rect x="1.13362068966" y="1.0" width="0.0905172413793" height="0.4" style="fill:rgb(204, 0, 17); stroke-width:0; stroke:rgb(204, 0, 17)"/>
<rect x="1.13362068966" y="1.4" width="0.0905172413793" height="1.4" style="fill:rgb(255, 136, 0); stroke-width:0; stroke:rgb(255, 136, 0)"/>
<rect x="1.13362068966" y="2.8" width="0.0905172413793" height="0.0" style="fill:rgb(255, 204, 51); stroke-width:0; stroke:rgb(255, 204, 51)"/>
<rect x="1.22413793103" y="1.0" width="0.0905172413793" height="0.45" style="fill:rgb(204, 0, 17); stroke-width:0; stroke:rgb(204, 0, 17)"/>
<rect x="1.22413793103" y="1.45" width="0.0905172413793" height="1.35" style="fill:rgb(255, 136, 0); stroke-width:0; stroke:rgb(255, 136, 0)"/>
<rect x="1.22413793103" y="2.8" width="0.0905172413793" height="0.0" style="fill:rgb(255, 204, 51); stroke-width:0; stroke:rgb(255, 204, 51)"/>
<rect x="1.31465517241" y="1.0" width="0.0905172413793" height="0.522580645161" style="fill:rgb(204, 0, 17); stroke-width:0; stroke:rgb(204, 0, 17)"/>
<rect x="1.31465517241" y="1.52258064516" width="0.0905172413793" height="1.21935483871" style="fill:rgb(255, 136, 0); stroke-width:0; stroke:rgb(255, 136, 0)"/>
<rect x="1.31465517241" y="2.74193548387" width="0.0905172413793" height="0.058064516129" style="fill:rgb(255, 204, 51); stroke-width:0; stroke:rgb(255, 204, 51)"/>
<rect x="1.40517241379" y="1.0" width="0.0905172413793" height="0.778378378378" style="fill:rgb(204, 0, 17); stroke-width:0; stroke:rgb(204, 0, 17)"/>
<rect x="1.40517241379" y="1.77837837838" width="0.0905172413793" height="1.02162162162" style="fill:rgb(255, 136, 0); stroke-width:0; stroke:rgb(255, 136, 0)"/>
<rect x="1.40517241379" y="2.8" width="0.0905172413793" height="0.0" style="fill:rgb(255, 204, 51); stroke-width:0; stroke:rgb(255, 204, 51)"/>
<rect x="1.49568965517" y="1.0" width="0.0905172413793" height="0.0486486486486" style="fill:rgb(204, 0, 17); stroke-width:0; stroke:rgb(204, 0, 17)"/>
<rect x="1.49568965517" y="1.04864864865" width="0.0905172413793" height="1.75135135135" style="fill:rgb(255, 136, 0); stroke-width:0; stroke:rgb(255, 136, 0)"/>
<rect x="1.49568965517" y="2.8" width="0.0905172413793" height="0.0" style="fill:rgb(255, 204, 51); stroke-width:0; stroke:rgb(255, 204, 51)"/>
<rect x="1.58620689655" y="1.0" width="0.0905172413793" height="0.315" style="fill:rgb(204, 0, 17); stroke-width:0; stroke:rgb(204, 0, 17)"/>
<rect x="1.58620689655" y="1.315" width="0.0905172413793" height="1.44" style="fill:rgb(255, 136, 0); stroke-width:0; stroke:rgb(255, 136, 0)"/>
<rect x="1.58620689655" y="2.755" width="0.0905172413793" height="0.045" style="fill:rgb(255, 204, 51); stroke-width:0; stroke:rgb(255, 204, 51)"/>
<rect x="1.67672413793" y="1.0" width="0.0905172413793" height="0.219512195122" style="fill:rgb(204, 0, 17); stroke-width:0; stroke:rgb(204, 0, 17)"/>
<rect x="1.67672413793" y="1.21951219512" width="0.0905172413793" height="1.4487804878" style="fill:rgb(255, 136, 0); stroke-width:0; stroke:rgb(255, 136, 0)"/>
<rect x="1.67672413793" y="2.66829268293" width="0.0905172413793" height="0.131707317073" style="fill:rgb(255, 204, 51); stroke-width:0; stroke:rgb(255, 204, 51)"/>
<rect x="1.76724137931" y="1.0" width="0.0905172413793" height="0.368181818182" style="fill:rgb(204, 0, 17); stroke-width:0; stroke:rgb(204, 0, 17)"/>
<rect x="1.76724137931" y="1.36818181818" width="0.0905172413793" height="1.43181818182" style="fill:rgb(255, 136, 0); stroke-width:0; stroke:rgb(255, 136, 0)"/>
<rect x="1.76724137931" y="2.8" width="0.0905172413793" height="0.0" style="fill:rgb(255, 204, 51); stroke-width:0; stroke:rgb(255, 204, 51)"/>
<rect x="1.85775862069" y="1.0" width="0.0905172413793" height="1.125" style="fill:rgb(204, 0, 17); stroke-width:0; stroke:rgb(204, 0, 17)"/>
<rect x="1.85775862069" y="2.125" width="0.0905172413793" height="0.675" style="fill:rgb(255, 136, 0); stroke-width:0; stroke:rgb(255, 136, 0)"/>
<rect x="1.85775862069" y="2.8" width="0.0905172413793" height="0.0" style="fill:rgb(255, 204, 51); stroke-width:0; stroke:rgb(255, 204, 51)"/>
<rect x="1.94827586207" y="1.0" width="0.0905172413793" height="0.872727272727" style="fill:rgb(204, 0, 17); stroke-width:0; stroke:rgb(204, 0, 17)"/>
<rect x="1.94827586207" y="1.87272727273" width="0.0905172413793" height="0.927272727273" style="fill:rgb(255, 136, 0); stroke-width:0; stroke:rgb(255, 136, 0)"/>
<rect x="1.94827586207" y="2.8" width="0.0905172413793" height="0.0" style="fill:rgb(255, 204, 51); stroke-width:0; stroke:rgb(255, 204, 51)"/>
<rect x="2.03879310345" y="1.0" width="0.0905172413793" height="0.310344827586" style="fill:rgb(204, 0, 17); stroke-width:0; stroke:rgb(204, 0, 17)"/>
<rect x="2.03879310345" y="1.31034482759" width="0.0905172413793" height="1.48965517241" style="fill:rgb(255, 136, 0); stroke-width:0; stroke:rgb(255, 136, 0)"/>
<rect x="2.03879310345" y="2.8" width="0.0905172413793" height="0.0" style="fill:rgb(255, 204, 51); stroke-width:0; stroke:rgb(255, 204, 51)"/>
<rect x="2.12931034483" y="1.0" width="0.0905172413793" height="0.225" style="fill:rgb(204, 0, 17); stroke-width:0; stroke:rgb(204, 0, 17)"/>
<rect x="2.12931034483" y="1.225" width="0.0905172413793" height="1.575" style="fill:rgb(255, 136, 0); stroke-width:0; stroke:rgb(255, 136, 0)"/>
<rect x="2.12931034483" y="2.8" width="0.0905172413793" height="0.0" style="fill:rgb(255, 204, 51); stroke-width:0; stroke:rgb(255, 204, 51)"/>
<rect x="2.21982758621" y="1.0" width="0.0905172413793" height="0.174193548387" style="fill:rgb(204, 0, 17); stroke-width:0; stroke:rgb(204, 0, 17)"/>
<rect x="2.21982758621" y="1.17419354839" width="0.0905172413793" height="1.62580645161" style="fill:rgb(255, 136, 0); stroke-width:0; stroke:rgb(255, 136, 0)"/>
<rect x="2.21982758621" y="2.8" width="0.0905172413793" height="0.0" style="fill:rgb(255, 204, 51); stroke-width:0; stroke:rgb(255, 204, 51)"/>
<rect x="2.31034482759" y="1.0" width="0.0905172413793" height="0.545454545455" style="fill:rgb(204, 0, 17); stroke-width:0; stroke:rgb(204, 0, 17)"/>
<rect x="2.31034482759" y="1.54545454545" width="0.0905172413793" height="1.25454545455" style="fill:rgb(255, 136, 0); stroke-width:0; stroke:rgb(255, 136, 0)"/>
<rect x="2.31034482759" y="2.8" width="0.0905172413793" height="0.0" style="fill:rgb(255, 204, 51); stroke-width:0; stroke:rgb(255, 204, 51)"/>
<rect x="2.40086206897" y="1.0" width="0.0905172413793" height="0.0" style="fill:rgb(204, 0, 17); stroke-width:0; stroke:rgb(204, 0, 17)"/>
<rect x="2.40086206897" y="1.0" width="0.0905172413793" height="1.8" style="fill:rgb(255, 136, 0); stroke-width:0; stroke:rgb(255, 136, 0)"/>
<rect x="2.40086206897" y="2.8" width="0.0905172413793" height="0.0" style="fill:rgb(255, 204, 51); stroke-width:0; stroke:rgb(255, 204, 51)"/>
<rect x="2.49137931034" y="1.0" width="0.0905172413793" height="0.15" style="fill:rgb(204, 0, 17); stroke-width:0; stroke:rgb(204, 0, 17)"/>
<rect x="2.49137931034" y="1.15" width="0.0905172413793" height="1.65" style="fill:rgb(255, 136, 0); stroke-width:0; stroke:rgb(255, 136, 0)"/>
<rect x="2.49137931034" y="2.8" width="0.0905172413793" height="0.0" style="fill:rgb(255, 204, 51); stroke-width:0; stroke:rgb(255, 204, 51)"/>
<rect x="2.58189655172" y="1.0" width="0.0905172413793" height="0.876923076923" style="fill:rgb(204, 0, 17); stroke-width:0; stroke:rgb(204, 0, 17)"/>
<rect x="2.58189655172" y="1.87692307692" width="0.0905172413793" height="0.830769230769" style="fill:rgb(255, 136, 0); stroke-width:0; stroke:rgb(255, 136, 0)"/>
<rect x="2.58189655172" y="2.70769230769" width="0.0905172413793" height="0.0923076923077" style="fill:rgb(255, 204, 51); stroke-width:0; stroke:rgb(255, 204, 51)"/>
<rect x="2.6724137931" y="1.0" width="0.0905172413793" height="0.45" style="fill:rgb(204, 0, 17); stroke-width:0; stroke:rgb(204, 0, 17)"/>
<rect x="2.6724137931" y="1.45" width="0.0905172413793" height="1.35" style="fill:rgb(255, 136, 0); stroke-width:0; stroke:rgb(255, 136, 0)"/>
<rect x="2.6724137931" y="2.8" width="0.0905172413793" height="0.0" style="fill:rgb(255, 204, 51); stroke-width:0; stroke:rgb(255, 204, 51)"/>
<rect x="2.76293103448" y="1.0" width="0.0905172413793" height="0.8" style="fill:rgb(204, 0, 17); stroke-width:0; stroke:rgb(204, 0, 17)"/>
<rect x="2.76293103448" y="1.8" width="0.0905172413793" height="1.0" style="fill:rgb(255, 136, 0); stroke-width:0; stroke:rgb(255, 136, 0)"/>
<rect x="2.76293103448" y="2.8" width="0.0905172413793" height="0.0" style="fill:rgb(255, 204, 51); stroke-width:0; stroke:rgb(255, 204, 51)"/>
<rect x="2.85344827586" y="1.0" width="0.0905172413793" height="0.4" style="fill:rgb(204, 0, 17); stroke-width:0; stroke:rgb(204, 0, 17)"/>
<rect x="2.85344827586" y="1.4" width="0.0905172413793" height="1.4" style="fill:rgb(255, 136, 0); stroke-width:0; stroke:rgb(255, 136, 0)"/>
<rect x="2.85344827586" y="2.8" width="0.0905172413793" height="0.0" style="fill:rgb(255, 204, 51); stroke-width:0; stroke:rgb(255, 204, 51)"/>
<rect x="2.94396551724" y="1.0" width="0.0905172413793" height="0.426315789474" style="fill:rgb(204, 0, 17); stroke-width:0; stroke:rgb(204, 0, 17)"/>
<rect x="2.94396551724" y="1.42631578947" width="0.0905172413793" height="1.37368421053" style="fill:rgb(255, 136, 0); stroke-width:0; stroke:rgb(255, 136, 0)"/>
<rect x="2.94396551724" y="2.8" width="0.0905172413793" height="0.0" style="fill:rgb(255, 204, 51); stroke-width:0; stroke:rgb(255, 204, 51)"/>
<rect x="3.03448275862" y="1.0" width="0.0905172413793" height="0.48" style="fill:rgb(204, 0, 17); stroke-width:0; stroke:rgb(204, 0, 17)"/>
<rect x="3.03448275862" y="1.48" width="0.0905172413793" height="1.32" style="fill:rgb(255, 136, 0); stroke-width:0; stroke:rgb(255, 136, 0)"/>
<rect x="3.03448275862" y="2.8" width="0.0905172413793" height="0.0" style="fill:rgb(255, 204, 51); stroke-width:0; stroke:rgb(255, 204, 51)"/>
<rect x="3.125" y="1.0" width="0.0905172413793" height="0.9" style="fill:rgb(204, 0, 17); stroke-width:0; stroke:rgb(204, 0, 17)"/>
<rect x="3.125" y="1.9" width="0.0905172413793" height="0.9" style="fill:rgb(255, 136, 0); stroke-width:0; stroke:rgb(255, 136, 0)"/>
<rect x="3.125" y="2.8" width="0.0905172413793" height="0.0" style="fill:rgb(255, 204, 51); stroke-width:0; stroke:rgb(255, 204, 51)"/>
<rect x="3.21551724138" y="1.0" width="0.0905172413793" height="0.18" style="fill:rgb(204, 0, 17); stroke-width:0; stroke:rgb(204, 0, 17)"/>
<rect x="3.21551724138" y="1.18" width="0.0905172413793" height="1.56" style="fill:rgb(255, 136, 0); stroke-width:0; stroke:rgb(255, 136, 0)"/>
<rect x="3.21551724138" y="2.74" width="0.0905172413793" height="0.06" style="fill:rgb(255, 204, 51); stroke-width:0; stroke:rgb(255, 204, 51)"/>
<rect x="3.30603448276" y="1.0" width="0.0905172413793" height="0.0" style="fill:rgb(204, 0, 17); stroke-width:0; stroke:rgb(204, 0, 17)"/>
<rect x="3.30603448276" y="1.0" width="0.0905172413793" height="1.8" style="fill:rgb(255, 136, 0); stroke-width:0; stroke:rgb(255, 136, 0)"/>
<rect x="3.30603448276" y="2.8" width="0.0905172413793" height="0.0" style="fill:rgb(255, 204, 51); stroke-width:0; stroke:rgb(255, 204, 51)"/>
<rect x="3.39655172414" y="1.0" width="0.0905172413793" height="0.675" style="fill:rgb(204, 0, 17); stroke-width:0; stroke:rgb(204, 0, 17)"/>
<rect x="3.39655172414" y="1.675" width="0.0905172413793" height="1.125" style="fill:rgb(255, 136, 0); stroke-width:0; stroke:rgb(255, 136, 0)"/>
<rect x="3.39655172414" y="2.8" width="0.0905172413793" height="0.0" style="fill:rgb(255, 204, 51); stroke-width:0; stroke:rgb(255, 204, 51)"/>
<rect x="3.48706896552" y="1.0" width="0.0905172413793" height="1.18421052632" style="fill:rgb(204, 0, 17); stroke-width:0; stroke:rgb(204, 0, 17)"/>
<rect x="3.48706896552" y="2.18421052632" width="0.0905172413793" height="0.568421052632" style="fill:rgb(255, 136, 0); stroke-width:0; stroke:rgb(255, 136, 0)"/>
<rect x="3.48706896552" y="2.75263157895" width="0.0905172413793" height="0.0473684210526" style="fill:rgb(255, 204, 51); stroke-width:0; stroke:rgb(255, 204, 51)"/>
<rect x="3.5775862069" y="1.0" width="0.0905172413793" height="1.2375" style="fill:rgb(204, 0, 17); stroke-width:0; stroke:rgb(204, 0, 17)"/>
<rect x="3.5775862069" y="2.2375" width="0.0905172413793" height="0.5625" style="fill:rgb(255, 136, 0); stroke-width:0; stroke:rgb(255, 136, 0)"/>
<rect x="3.5775862069" y="2.8" width="0.0905172413793" height="0.0" style="fill:rgb(255, 204, 51); stroke-width:0; stroke:rgb(255, 204, 51)"/>
<line x1="3.5775862069" y1="0.95" x2="3.5775862069" y2="2.8" style="stroke: rgb(0, 0, 0); stroke-width: 0.02"/> 
<text x="2.03879310345" y="-0.75" style="fill:rgb(0, 0, 0)" font-size="0.2" font-family="sans-serif" transform="scale(1,-1) rotate(0,2.03879310345,-0.75)" text-anchor="middle">GG</text>
<rect x="3.66810344828" y="1.0" width="0.0905172413793" height="0.6" style="fill:rgb(204, 0, 17); stroke-width:0; stroke:rgb(204, 0, 17)"/>
<rect x="3.66810344828" y="1.6" width="0.0905172413793" height="1.2" style="fill:rgb(255, 136, 0); stroke-width:0; stroke:rgb(255, 136, 0)"/>
<rect x="3.66810344828" y="2.8" width="0.0905172413793" height="0.0" style="fill:rgb(255, 204, 51); stroke-width:0; stroke:rgb(255, 204, 51)"/>
<rect x="3.75862068966" y="1.0" width="0.0905172413793" height="1.2" style="fill:rgb(204, 0, 17); stroke-width:0; stroke:rgb(204, 0, 17)"/>
<rect x="3.75862068966" y="2.2" width="0.0905172413793" height="0.6" style="fill:rgb(255, 136, 0); stroke-width:0; stroke:rgb(255, 136, 0)"/>
<rect x="3.75862068966" y="2.8" width="0.0905172413793" height="0.0" style="fill:rgb(255, 204, 51); stroke-width:0; stroke:rgb(255, 204, 51)"/>
<rect x="3.84913793103" y="1.0" width="0.0905172413793" height="1.02857142857" style="fill:rgb(204, 0, 17); stroke-width:0; stroke:rgb(204, 0, 17)"/>
<rect x="3.84913793103" y="2.02857142857" width="0.0905172413793" height="0.771428571429" style="fill:rgb(255, 136, 0); stroke-width:0; stroke:rgb(255, 136, 0)"/>
<rect x="3.84913793103" y="2.8" width="0.0905172413793" height="0.0" style="fill:rgb(255, 204, 51); stroke-width:0; stroke:rgb(255, 204, 51)"/>
<rect x="3.93965517241" y="1.0" width="0.0905172413793" height="1.26666666667" style="fill:rgb(204, 0, 17); stroke-width:0; stroke:rgb(204, 0, 17)"/>
<rect x="3.93965517241" y="2.26666666667" width="0.0905172413793" height="0.511111111111" style="fill:rgb(255, 136, 0); stroke-width:0; stroke:rgb(255, 136, 0)"/>
<rect x="3.93965517241" y="2.77777777778" width="0.0905172413793" height="0.0222222222222" style="fill:rgb(255, 204, 51); stroke-width:0; stroke:rgb(255, 204, 51)"/>
<rect x="4.03017241379" y="1.0" width="0.0905172413793" height="1.08" style="fill:rgb(204, 0, 17); stroke-width:0; stroke:rgb(204, 0, 17)"/>
<rect x="4.03017241379" y="2.08" width="0.0905172413793" height="0.64" style="fill:rgb(255, 136, 0); stroke-width:0; stroke:rgb(255, 136, 0)"/>
<rect x="4.03017241379" y="2.72" width="0.0905172413793" height="0.08" style="fill:rgb(255, 204, 51); stroke-width:0; stroke:rgb(255, 204, 51)"/>
<rect x="4.12068965517" y="1.0" width="0.0905172413793" height="0.6" style="fill:rgb(204, 0, 17); stroke-width:0; stroke:rgb(204, 0, 17)"/>
<rect x="4.12068965517" y="1.6" width="0.0905172413793" height="1.2" style="fill:rgb(255, 136, 0); stroke-width:0; stroke:rgb(255, 136, 0)"/>
<rect x="4.12068965517" y="2.8" width="0.0905172413793" height="0.0" style="fill:rgb(255, 204, 51); stroke-width:0; stroke:rgb(255, 204, 51)"/>
<rect x="4.21120689655" y="1.0" width="0.0905172413793" height="1.48235294118" style="fill:rgb(204, 0, 17); stroke-width:0; stroke:rgb(204, 0, 17)"/>
<rect x="4.21120689655" y="2.48235294118" width="0.0905172413793" height="0.317647058824" style="fill:rgb(255, 136, 0); stroke-width:0; stroke:rgb(255, 136, 0)"/>
<rect x="4.21120689655" y="2.8" width="0.0905172413793" height="0.0" style="fill:rgb(255, 204, 51); stroke-width:0; stroke:rgb(255, 204, 51)"/>
<rect x="4.30172413793" y="1.0" width="0.0905172413793" height="1.28571428571" style="fill:rgb(204, 0, 17); stroke-width:0; stroke:rgb(204, 0, 17)"/>
<rect x="4.30172413793" y="2.28571428571" width="0.0905172413793" height="0.514285714286" style="fill:rgb(255, 136, 0); stroke-width:0; stroke:rgb(255, 136, 0)"/>
<rect x="4.30172413793" y="2.8" width="0.0905172413793" height="0.0" style="fill:rgb(255, 204, 51); stroke-width:0; stroke:rgb(255, 204, 51)"/>
<rect x="4.39224137931" y="1.0" width="0.0905172413793" height="0.6" style="fill:rgb(204, 0, 17); stroke-width:0; stroke:rgb(204, 0, 17)"/>
<rect x="4.39224137931" y="1.6" width="0.0905172413793" height="1.2" style="fill:rgb(255, 136, 0); stroke-width:0; stroke:rgb(255, 136, 0)"/>
<rect x="4.39224137931" y="2.8" width="0.0905172413793" height="0.0" style="fill:rgb(255, 204, 51); stroke-width:0; stroke:rgb(255, 204, 51)"/>
<rect x="4.48275862069" y="1.0" width="0.0905172413793" height="1.29705882353" style="fill:rgb(204, 0, 17); stroke-width:0; stroke:rgb(204, 0, 17)"/>
<rect x="4.48275862069" y="2.29705882353" width="0.0905172413793" height="0.502941176471" style="fill:rgb(255, 136, 0); stroke-width:0; stroke:rgb(255, 136, 0)"/>
<rect x="4.48275862069" y="2.8" width="0.0905172413793" height="0.0" style="fill:rgb(255, 204, 51); stroke-width:0; stroke:rgb(255, 204, 51)"/>
<rect x="4.57327586207" y="1.0" width="0.0905172413793" height="1.05" style="fill:rgb(204, 0, 17); stroke-width:0; stroke:rgb(204, 0, 17)"/>
<rect x="4.57327586207" y="2.05" width="0.0905172413793" height="0.75" style="fill:rgb(255, 136, 0); stroke-width:0; stroke:rgb(255, 136, 0)"/>
<rect x="4.57327586207" y="2.8" width="0.0905172413793" height="0.0" style="fill:rgb(255, 204, 51); stroke-width:0; stroke:rgb(255, 204, 51)"/>
<rect x="4.66379310345" y="1.0" width="0.0905172413793" height="1.23157894737" style="fill:rgb(204, 0, 17); stroke-width:0; stroke:rgb(204, 0, 17)"/>
<rect x="4.66379310345" y="2.23157894737" width="0.0905172413793" height="0.568421052632" style="fill:rgb(255, 136, 0); stroke-width:0; stroke:rgb(255, 136, 0)"/>
<rect x="4.66379310345" y="2.8" width="0.0905172413793" height="0.0" style="fill:rgb(255, 204, 51); stroke-width:0; stroke:rgb(255, 204, 51)"/>
<rect x="4.75431034483" y="1.0" width="0.0905172413793" height="0.572727272727" style="fill:rgb(204, 0, 17); stroke-width:0; stroke:rgb(204, 0, 17)"/>
<rect x="4.75431034483" y="1.57272727273" width="0.0905172413793" height="1.22727272727" style="fill:rgb(255, 136, 0); stroke-width:0; stroke:rgb(255, 136, 0)"/>
<rect x="4.75431034483" y="2.8" width="0.0905172413793" height="0.0" style="fill:rgb(255, 204, 51); stroke-width:0; stroke:rgb(255, 204, 51)"/>
<rect x="4.84482758621" y="1.0" width="0.0905172413793" height="0.96" style="fill:rgb(204, 0, 17); stroke-width:0; stroke:rgb(204, 0, 17)"/>
<rect x="4.84482758621" y="1.96" width="0.0905172413793" height="0.78" style="fill:rgb(255, 136, 0); stroke-width:0; stroke:rgb(255, 136, 0)"/>
<rect x="4.84482758621" y="2.74" width="0.0905172413793" height="0.06" style="fill:rgb(255, 204, 51); stroke-width:0; stroke:rgb(255, 204, 51)"/>
<rect x="4.93534482759" y="1.0" width="0.0905172413793" height="0.75" style="fill:rgb(204, 0, 17); stroke-width:0; stroke:rgb(204, 0, 17)"/>
<rect x="4.93534482759" y="1.75" width="0.0905172413793" height="1.05" style="fill:rgb(255, 136, 0); stroke-width:0; stroke:rgb(255, 136, 0)"/>
<rect x="4.93534482759" y="2.8" width="0.0905172413793" height="0.0" style="fill:rgb(255, 204, 51); stroke-width:0; stroke:rgb(255, 204, 51)"/>
<rect x="5.02586206897" y="1.0" width="0.0905172413793" height="0.9" style="fill:rgb(204, 0, 17); stroke-width:0; stroke:rgb(204, 0, 17)"/>
<rect x="5.02586206897" y="1.9" width="0.0905172413793" height="0.9" style="fill:rgb(255, 136, 0); stroke-width:0; stroke:rgb(255, 136, 0)"/>
<rect x="5.02586206897" y="2.8" width="0.0905172413793" height="0.0" style="fill:rgb(255, 204, 51); stroke-width:0; stroke:rgb(255, 204, 51)"/>
<rect x="5.11637931034" y="1.0" width="0.0905172413793" height="0.0" style="fill:rgb(204, 0, 17); stroke-width:0; stroke:rgb(204, 0, 17)"/>
<rect x="5.11637931034" y="1.0" width="0.0905172413793" height="1.575" style="fill:rgb(255, 136, 0); stroke-width:0; stroke:rgb(255, 136, 0)"/>
<rect x="5.11637931034" y="2.575" width="0.0905172413793" height="0.225" style="fill:rgb(255, 204, 51); stroke-width:0; stroke:rgb(255, 204, 51)"/>
<rect x="5.20689655172" y="1.0" width="0.0905172413793" height="0.0" style="fill:rgb(204, 0, 17); stroke-width:0; stroke:rgb(204, 0, 17)"/>
<rect x="5.20689655172" y="1.0" width="0.0905172413793" height="1.8" style="fill:rgb(255, 136, 0); stroke-width:0; stroke:rgb(255, 136, 0)"/>
<rect x="5.20689655172" y="2.8" width="0.0905172413793" height="0.0" style="fill:rgb(255, 204, 51); stroke-width:0; stroke:rgb(255, 204, 51)"/>
<rect x="5.2974137931" y="1.0" width="0.0905172413793" height="1.8" style="fill:rgb(204, 0, 17); stroke-width:0; stroke:rgb(204, 0, 17)"/>
<rect x="5.2974137931" y="2.8" width="0.0905172413793" height="0.0" style="fill:rgb(255, 136, 0); stroke-width:0; stroke:rgb(255, 136, 0)"/>
<rect x="5.2974137931" y="2.8" width="0.0905172413793" height="0.0" style="fill:rgb(255, 204, 51); stroke-width:0; stroke:rgb(255, 204, 51)"/>
<line x1="5.2974137931" y1="0.95" x2="5.2974137931" y2="2.8" style="stroke: rgb(0, 0, 0); stroke-width: 0.02"/> 
<text x="4.4375" y="-0.75" style="fill:rgb(0, 0, 0)" font-size="0.2" font-family="sans-serif" transform="scale(1,-1) rotate(0,4.4375,-0.75)" text-anchor="middle">GA</text>
<rect x="5.38793103448" y="1.0" width="0.0905172413793" height="1.58823529412" style="fill:rgb(204, 0, 17); stroke-width:0; stroke:rgb(204, 0, 17)"/>
<rect x="5.38793103448" y="2.58823529412" width="0.0905172413793" height="0.158823529412" style="fill:rgb(255, 136, 0); stroke-width:0; stroke:rgb(255, 136, 0)"/>
<rect x="5.38793103448" y="2.74705882353" width="0.0905172413793" height="0.0529411764706" style="fill:rgb(255, 204, 51); stroke-width:0; stroke:rgb(255, 204, 51)"/>
<rect x="5.47844827586" y="1.0" width="0.0905172413793" height="1.41428571429" style="fill:rgb(204, 0, 17); stroke-width:0; stroke:rgb(204, 0, 17)"/>
<rect x="5.47844827586" y="2.41428571429" width="0.0905172413793" height="0.257142857143" style="fill:rgb(255, 136, 0); stroke-width:0; stroke:rgb(255, 136, 0)"/>
<rect x="5.47844827586" y="2.67142857143" width="0.0905172413793" height="0.128571428571" style="fill:rgb(255, 204, 51); stroke-width:0; stroke:rgb(255, 204, 51)"/>
<rect x="5.56896551724" y="1.0" width="0.0905172413793" height="1.8" style="fill:rgb(204, 0, 17); stroke-width:0; stroke:rgb(204, 0, 17)"/>
<rect x="5.56896551724" y="2.8" width="0.0905172413793" height="0.0" style="fill:rgb(255, 136, 0); stroke-width:0; stroke:rgb(255, 136, 0)"/>
<rect x="5.56896551724" y="2.8" width="0.0905172413793" height="0.0" style="fill:rgb(255, 204, 51); stroke-width:0; stroke:rgb(255, 204, 51)"/>
<rect x="5.65948275862" y="1.0" width="0.0905172413793" height="1.66153846154" style="fill:rgb(204, 0, 17); stroke-width:0; stroke:rgb(204, 0, 17)"/>
<rect x="5.65948275862" y="2.66153846154" width="0.0905172413793" height="0.138461538462" style="fill:rgb(255, 136, 0); stroke-width:0; stroke:rgb(255, 136, 0)"/>
<rect x="5.65948275862" y="2.8" width="0.0905172413793" height="0.0" style="fill:rgb(255, 204, 51); stroke-width:0; stroke:rgb(255, 204, 51)"/>
<text x="5.47844827586" y="-0.75" style="fill:rgb(0, 0, 0)" font-size="0.2" font-family="sans-serif" transform="scale(1,-1) rotate(0,5.47844827586,-0.75)" text-anchor="middle">AA</text>
<line x1="0.45" y1="1.45" x2="0.55" y2="1.45" style="stroke: rgb(0, 0, 0); stroke-width: 0.02"/> 
<text x="0.25" y="-1.4" style="fill:rgb(0, 0, 0)" font-size="0.2" font-family="sans-serif" transform="scale(1,-1) rotate(0,0.25,-1.4)" text-anchor="middle">0.25</text>
<line x1="0.45" y1="1.9" x2="0.55" y2="1.9" style="stroke: rgb(0, 0, 0); stroke-width: 0.02"/> 
<text x="0.25" y="-1.85" style="fill:rgb(0, 0, 0)" font-size="0.2" font-family="sans-serif" transform="scale(1,-1) rotate(0,0.25,-1.85)" text-anchor="middle">0.5</text>
<line x1="0.45" y1="2.35" x2="0.55" y2="2.35" style="stroke: rgb(0, 0, 0); stroke-width: 0.02"/> 
<text x="0.25" y="-2.3" style="fill:rgb(0, 0, 0)" font-size="0.2" font-family="sans-serif" transform="scale(1,-1) rotate(0,0.25,-2.3)" text-anchor="middle">0.75</text>
<line x1="0.45" y1="2.8" x2="0.55" y2="2.8" style="stroke: rgb(0, 0, 0); stroke-width: 0.02"/> 
<text x="0.25" y="-2.75" style="fill:rgb(0, 0, 0)" font-size="0.2" font-family="sans-serif" transform="scale(1,-1) rotate(0,0.25,-2.75)" text-anchor="middle">1.0</text>
<line x1="0.49" y1="2.8" x2="5.76" y2="2.8" style="stroke: rgb(0, 0, 0); stroke-width: 0.02"/> 
<line x1="0.5" y1="2.81" x2="0.5" y2="0.99" style="stroke: rgb(0, 0, 0); stroke-width: 0.02"/> 
<line x1="5.75" y1="0.99" x2="5.75" y2="2.81" style="stroke: rgb(0, 0, 0); stroke-width: 0.02"/> 
<line x1="5.76" y1="1.0" x2="0.49" y2="1.0" style="stroke: rgb(0, 0, 0); stroke-width: 0.02"/> 
<text x="3.125" y="-0.5" style="fill:rgb(0, 0, 0)" font-size="0.27" font-family="sans-serif" transform="scale(1,-1) rotate(0,3.125,-0.5)" text-anchor="middle">chr1:79082772</text>
<rect x="6.0" y="2.25" width="0.2" height="0.2" style="fill:rgb(204, 0, 17); stroke-width:0; stroke:rgb(204, 0, 17)"/>
<text x="6.4" y="-2.25" style="fill:rgb(0, 0, 0)" font-size="0.2" font-family="sans-serif" transform="scale(1,-1) rotate(0,6.4,-2.25)" text-anchor="left">chr1:79086256-79093591</text>
<rect x="6.0" y="1.85" width="0.2" height="0.2" style="fill:rgb(255, 136, 0); stroke-width:0; stroke:rgb(255, 136, 0)"/>
<text x="6.4" y="-1.85" style="fill:rgb(0, 0, 0)" font-size="0.2" font-family="sans-serif" transform="scale(1,-1) rotate(0,6.4,-1.85)" text-anchor="left">chr1:79086256-79094636</text>
<rect x="6.0" y="1.45" width="0.2" height="0.2" style="fill:rgb(255, 204, 51); stroke-width:0; stroke:rgb(255, 204, 51)"/>
<text x="6.4" y="-1.45" style="fill:rgb(0, 0, 0)" font-size="0.2" font-family="sans-serif" transform="scale(1,-1) rotate(0,6.4,-1.45)" text-anchor="left">chr1:79086256-79086563</text>
</g>
</svg>
