<?xml version="1.0"?>
<!DOCTYPE svg PUBLIC "-//W3C//DTD SVG 1.1//EN" "http://www.w3.org/Graphics/SVG/1.1/DTD/svg11.dtd">
<svg width="8in" height="8in" version="1.1" xmlns="http://www.w3.org/2000/svg" xmlns:xlink="http://www.w3.org/1999/xlink" viewBox="0 0 8 8">
<g transform="translate(4.0,4.0) scale(1, -1)">
<path d = "M5.40885669623e-17,0.883333333333 Q-2.11819418743,1.02583302492 -1.87638837487,-1.08333333333" fill="none" style="stroke: rgb(255, 128, 0); stroke-width: 0.015"/> 
<path d = "M-1.87638837487,-1.08333333333 Q-0.248290376865,-1.89838426427 0.259807621135,-0.15" fill="none" style="stroke: rgb(255, 128, 0); stroke-width: 0.015"/> 
<path d = "M1.21507924603e-16,1.984375 Q-1.97174166045,1.27949624254 -0.922858320908,-0.5328125" fill="none" style="stroke: rgb(0, 200, 102); stroke-width: 0.015"/> 
<path d = "M-0.922858320908,-0.5328125 Q-0.101837849886,-1.05100581523 0.259807621135,-0.15" fill="none" style="stroke: rgb(0, 200, 102); stroke-width: 0.015"/> 
<path d = "M2.5870663632e-17,0.4225 Q-2.17949087422,0.919664049066 -2.27548174844,-1.31375" fill="none" style="stroke: rgb(255, 128, 0); stroke-width: 0.015"/> 
<path d = "M-2.27548174844,-1.31375 Q-0.309587063654,-2.25304862175 0.259807621135,-0.15" fill="none" style="stroke: rgb(255, 128, 0); stroke-width: 0.015"/> 
<path d = "M6.12323399574e-17,1.0 Q-2.10267603888,1.05271124665 -1.77535207776,-1.025" fill="none" style="stroke: rgb(255, 128, 0); stroke-width: 0.015"/> 
<path d = "M-1.77535207776,-1.025 Q-0.232772228311,-1.80859581934 0.259807621135,-0.15" fill="none" style="stroke: rgb(255, 128, 0); stroke-width: 0.015"/> 
<path d = "M5.40885669623e-17,0.883333333333 Q-2.03267603888,0.994377913322 -1.77535207776,-1.025" fill="none" style="stroke: rgb(255, 128, 0); stroke-width: 0.015"/> 
<path d = "M-1.77535207776,-1.025 Q-0.217254079757,-1.89838426427 0.360843918244,-0.208333333333" fill="none" style="stroke: rgb(255, 128, 0); stroke-width: 0.015"/> 
<path d = "M6.83761129524e-17,1.11666666667 Q-2.08715789032,1.07958946839 -1.67431578065,-0.966666666667" fill="none" style="stroke: rgb(0, 200, 102); stroke-width: 0.015"/> 
<path d = "M-1.67431578065,-0.966666666667 Q-0.217254079757,-1.7188073744 0.259807621135,-0.15" fill="none" style="stroke: rgb(0, 200, 102); stroke-width: 0.015"/> 
<path d = "M1.83697019872e-17,0.3 Q-2.1957849302,0.891441916244 -2.38156986041,-1.375" fill="none" style="stroke: rgb(255, 128, 0); stroke-width: 0.015"/> 
<path d = "M-2.38156986041,-1.375 Q-0.325881119636,-2.34732648893 0.259807621135,-0.15" fill="none" style="stroke: rgb(255, 128, 0); stroke-width: 0.015"/> 
<path d = "M2.6265451087e-17,0.428947368421 Q-2.17863329233,0.921149424478 -2.2698981636,-1.31052631579" fill="none" style="stroke: rgb(255, 128, 0); stroke-width: 0.015"/> 
<path d = "M-2.2698981636,-1.31052631579 Q-0.30872948176,-2.24808662874 0.259807621135,-0.15" fill="none" style="stroke: rgb(255, 128, 0); stroke-width: 0.015"/> 
<path d = "M1.22229170915e-16,1.99615384615 Q-1.9701749243,1.28220990916 -0.912657540911,-0.526923076923" fill="none" style="stroke: rgb(255, 128, 0); stroke-width: 0.015"/> 
<path d = "M-0.912657540911,-0.526923076923 Q-0.100271113734,-1.04194063569 0.259807621135,-0.15" fill="none" style="stroke: rgb(255, 128, 0); stroke-width: 0.015"/> 
<path d = "M1.18382523918e-16,1.93333333333 Q-1.97853085045,1.26773702054 -0.967061700893,-0.558333333333" fill="none" style="stroke: rgb(0, 200, 102); stroke-width: 0.015"/> 
<path d = "M-0.967061700893,-0.558333333333 Q-0.108627039879,-1.09028825988 0.259807621135,-0.15" fill="none" style="stroke: rgb(0, 200, 102); stroke-width: 0.015"/> 
<path d = "M5.17073092973e-17,0.844444444444 Q-2.12336690362,1.01687361767 -1.91006714057,-1.10277777778" fill="none" style="stroke: rgb(255, 128, 0); stroke-width: 0.015"/> 
<path d = "M-1.91006714057,-1.10277777778 Q-0.25346309305,-1.92831374591 0.259807621135,-0.15" fill="none" style="stroke: rgb(255, 128, 0); stroke-width: 0.015"/> 
<path d = "M1.68388934883e-16,2.75 Q-1.86990381057,1.45588457268 -0.259807621135,-0.15" fill="none" style="stroke: rgb(51, 153, 255); stroke-width: 0.015"/> 
<path d = "M-0.259807621135,-0.15 Q-9.43689570931e-17,-0.461769145362 0.259807621135,-0.15" fill="none" style="stroke: rgb(51, 153, 255); stroke-width: 0.015"/> 
<path d = "M5.58745102111e-17,0.9125 Q-2.11431465029,1.03255258035 -1.85112930059,-1.06875" fill="none" style="stroke: rgb(255, 128, 0); stroke-width: 0.015"/> 
<path d = "M-1.85112930059,-1.06875 Q-0.244410839727,-1.87593715303 0.259807621135,-0.15" fill="none" style="stroke: rgb(255, 128, 0); stroke-width: 0.015"/> 
<path d = "M6.19236728279e-17,1.01129032258 Q-2.04324263355,1.03400406348 -1.69713042838,-0.979838709677" fill="none" style="stroke: rgb(255, 128, 0); stroke-width: 0.015"/> 
<path d = "M-1.69713042838,-0.979838709677 Q-0.210245883636,-1.79990661499 0.328251564338,-0.189516129032" fill="none" style="stroke: rgb(255, 128, 0); stroke-width: 0.015"/> 
<path d = "M1.04094977928e-16,1.7 Q-2.00956714755,1.21398057707 -1.16913429511,-0.675" fill="none" style="stroke: rgb(0, 200, 102); stroke-width: 0.015"/> 
<path d = "M-1.16913429511,-0.675 Q-0.139663336987,-1.26986514975 0.259807621135,-0.15" fill="none" style="stroke: rgb(0, 200, 102); stroke-width: 0.015"/> 
<path d = "M8.32428837799e-17,1.35945945946 Q-2.05486336496,1.13552522714 -1.46405105424,-0.84527027027" fill="none" style="stroke: rgb(255, 128, 0); stroke-width: 0.015"/> 
<path d = "M-1.46405105424,-0.84527027027 Q-0.184959554388,-1.53195034036 0.259807621135,-0.15" fill="none" style="stroke: rgb(255, 128, 0); stroke-width: 0.015"/> 
<path d = "M2.24242758493e-17,0.366216216216 Q-2.18697733238,0.906697123175 -2.32422493502,-1.34189189189" fill="none" style="stroke: rgb(255, 128, 0); stroke-width: 0.015"/> 
<path d = "M-2.32422493502,-1.34189189189 Q-0.317073521808,-2.29636547964 0.259807621135,-0.15" fill="none" style="stroke: rgb(255, 128, 0); stroke-width: 0.015"/> 
<path d = "M4.46230677439e-17,0.72875 Q-2.09385870628,0.973705447532 -1.95721741255,-1.13" fill="none" style="stroke: rgb(255, 128, 0); stroke-width: 0.015"/> 
<path d = "M-1.95721741255,-1.13 Q-0.252557867718,-2.0173539538 0.312851677117,-0.180625" fill="none" style="stroke: rgb(255, 128, 0); stroke-width: 0.015"/> 
<path d = "M3.66647303891e-17,0.598780487805 Q-2.02463739466,0.911942922378 -1.96756747226,-1.13597560976" fill="none" style="stroke: rgb(255, 128, 0); stroke-width: 0.015"/> 
<path d = "M-1.96756747226,-1.13597560976 Q-0.238449599734,-2.11738047142 0.415058516692,-0.239634146341" fill="none" style="stroke: rgb(255, 128, 0); stroke-width: 0.015"/> 
<path d = "M1.50739613366e-16,2.46176470588 Q-1.85542273289,1.37005139711 -0.447021936365,-0.258088235294" fill="none" style="stroke: rgb(51, 153, 255); stroke-width: 0.015"/> 
<path d = "M-0.447021936365,-0.258088235294 Q-0.0191694776256,-0.683599421076 0.322212392879,-0.186029411765" fill="none" style="stroke: rgb(51, 153, 255); stroke-width: 0.015"/> 
<path d = "M1.36241956405e-16,2.225 Q-1.81145825623,1.28774990748 -0.56291651246,-0.325" fill="none" style="stroke: rgb(51, 153, 255); stroke-width: 0.015"/> 
<path d = "M-0.56291651246,-0.325 Q-0.0232772228311,-0.865817147554 0.411362066798,-0.2375" fill="none" style="stroke: rgb(51, 153, 255); stroke-width: 0.015"/> 
<path d = "M1.23938791803e-16,2.02407407407 Q-1.9442898075,1.28048727517 -0.862283318706,-0.497839506173" fill="none" style="stroke: rgb(0, 200, 102); stroke-width: 0.015"/> 
<path d = "M-0.862283318706,-0.497839506173 Q-0.0885109213826,-1.02045280271 0.286002216682,-0.16512345679" fill="none" style="stroke: rgb(0, 200, 102); stroke-width: 0.015"/> 
<path d = "M1.08381241725e-16,1.77 Q-1.92043931977,1.20074940595 -1.01421197288,-0.585555555556" fill="none" style="stroke: rgb(0, 200, 102); stroke-width: 0.015"/> 
<path d = "M-1.01421197288,-0.585555555556 Q-0.10138523722,-1.21599208279 0.354108165103,-0.204444444444" fill="none" style="stroke: rgb(0, 200, 102); stroke-width: 0.015"/> 
<path d = "M4.90554541704e-17,0.801136363636 Q-2.12912742846,1.00689609597 -1.94757303874,-1.12443181818" fill="none" style="stroke: rgb(255, 128, 0); stroke-width: 0.015"/> 
<path d = "M-1.94757303874,-1.12443181818 Q-0.259223617892,-1.96164430501 0.259807621135,-0.15" fill="none" style="stroke: rgb(255, 128, 0); stroke-width: 0.015"/> 
<path d = "M6.83761129524e-17,1.11666666667 Q-2.08715789032,1.07958946839 -1.67431578065,-0.966666666667" fill="none" style="stroke: rgb(0, 200, 102); stroke-width: 0.015"/> 
<path d = "M-1.67431578065,-0.966666666667 Q-0.217254079757,-1.7188073744 0.259807621135,-0.15" fill="none" style="stroke: rgb(0, 200, 102); stroke-width: 0.015"/> 
<path d = "M1.12131722547e-16,1.83125 Q-1.99210923043,1.24421857652 -1.05546846086,-0.609375" fill="none" style="stroke: rgb(255, 128, 0); stroke-width: 0.015"/> 
<path d = "M-1.05546846086,-0.609375 Q-0.122205419863,-1.1688531492 0.259807621135,-0.15" fill="none" style="stroke: rgb(255, 128, 0); stroke-width: 0.015"/> 
<path d = "M9.11062997548e-17,1.48787878788 Q-2.03778196311,1.165111083 -1.35283665349,-0.781060606061" fill="none" style="stroke: rgb(255, 128, 0); stroke-width: 0.015"/> 
<path d = "M-1.35283665349,-0.781060606061 Q-0.16787815254,-1.4331168678 0.259807621135,-0.15" fill="none" style="stroke: rgb(255, 128, 0); stroke-width: 0.015"/> 
<path d = "M4.42350869692e-17,0.722413793103 Q-2.13959853027,0.98875961563 -2.01574878467,-1.16379310345" fill="none" style="stroke: rgb(255, 128, 0); stroke-width: 0.015"/> 
<path d = "M-2.01574878467,-1.16379310345 Q-0.269694719699,-2.02223039521 0.259807621135,-0.15" fill="none" style="stroke: rgb(255, 128, 0); stroke-width: 0.015"/> 
<path d = "M3.71221060992e-17,0.60625 Q-2.15504979025,0.961997248299 -2.1163495805,-1.221875" fill="none" style="stroke: rgb(255, 128, 0); stroke-width: 0.015"/> 
<path d = "M-2.1163495805,-1.221875 Q-0.285145979681,-2.11163182098 0.259807621135,-0.15" fill="none" style="stroke: rgb(255, 128, 0); stroke-width: 0.015"/> 
<path d = "M3.28876922674e-17,0.537096774194 Q-2.16424804766,0.946065399125 -2.1762380308,-1.2564516129" fill="none" style="stroke: rgb(255, 128, 0); stroke-width: 0.015"/> 
<path d = "M-2.1762380308,-1.2564516129 Q-0.294344237091,-2.16485319761 0.259807621135,-0.15" fill="none" style="stroke: rgb(255, 128, 0); stroke-width: 0.015"/> 
<path d = "M6.38300755919e-17,1.04242424242 Q-2.09703307577,1.06248514547 -1.73861160608,-1.00378787879" fill="none" style="stroke: rgb(255, 128, 0); stroke-width: 0.015"/> 
<path d = "M-1.73861160608,-1.00378787879 Q-0.227129265201,-1.77594547572 0.259807621135,-0.15" fill="none" style="stroke: rgb(255, 128, 0); stroke-width: 0.015"/> 
<path d = "M1.41914952607e-16,2.31764705882 Q-1.92741224344,1.35627704507 -0.634236251595,-0.366176470588" fill="none" style="stroke: rgb(0, 200, 102); stroke-width: 0.015"/> 
<path d = "M-0.634236251595,-0.366176470588 Q-0.0575084328769,-0.794514558932 0.259807621135,-0.15" fill="none" style="stroke: rgb(0, 200, 102); stroke-width: 0.015"/> 
<path d = "M1.83697019872e-17,0.3 Q-2.1957849302,0.891441916244 -2.38156986041,-1.375" fill="none" style="stroke: rgb(255, 128, 0); stroke-width: 0.015"/> 
<path d = "M-2.38156986041,-1.375 Q-0.325881119636,-2.34732648893 0.259807621135,-0.15" fill="none" style="stroke: rgb(255, 128, 0); stroke-width: 0.015"/> 
<path d = "M3.08713047285e-17,0.504166666667 Q-2.16862817023,0.938478804281 -2.20475634047,-1.27291666667" fill="none" style="stroke: rgb(255, 128, 0); stroke-width: 0.015"/> 
<path d = "M-2.20475634047,-1.27291666667 Q-0.298724359666,-2.1901967103 0.259807621135,-0.15" fill="none" style="stroke: rgb(255, 128, 0); stroke-width: 0.015"/> 
<path d = "M1.25526296913e-16,2.05 Q-1.96301270189,1.29461524227 -0.866025403784,-0.5" fill="none" style="stroke: rgb(0, 200, 102); stroke-width: 0.015"/> 
<path d = "M-0.866025403784,-0.5 Q-0.0931088913246,-1.00049981495 0.259807621135,-0.15" fill="none" style="stroke: rgb(0, 200, 102); stroke-width: 0.015"/> 
<path d = "M6.83761129524e-17,1.11666666667 Q-2.08715789032,1.07958946839 -1.67431578065,-0.966666666667" fill="none" style="stroke: rgb(0, 200, 102); stroke-width: 0.015"/> 
<path d = "M-1.67431578065,-0.966666666667 Q-0.217254079757,-1.7188073744 0.259807621135,-0.15" fill="none" style="stroke: rgb(0, 200, 102); stroke-width: 0.015"/> 
<path d = "M9.14559949363e-17,1.49358974359 Q-1.94492586578,1.13255206458 -1.2390825008,-0.715384615385" fill="none" style="stroke: rgb(255, 128, 0); stroke-width: 0.015"/> 
<path d = "M-1.2390825008,-0.715384615385 Q-0.133694818312,-1.42872162924 0.368615941098,-0.212820512821" fill="none" style="stroke: rgb(255, 128, 0); stroke-width: 0.015"/> 
<path d = "M1.2647179628e-16,2.06544117647 Q-1.96095882929,1.29817265397 -0.852652952697,-0.492279411765" fill="none" style="stroke: rgb(0, 200, 102); stroke-width: 0.015"/> 
<path d = "M-0.852652952697,-0.492279411765 Q-0.0910550187218,-0.988616050182 0.259807621135,-0.15" fill="none" style="stroke: rgb(0, 200, 102); stroke-width: 0.015"/> 
<path d = "M5.58745102111e-17,0.9125 Q-2.11431465029,1.03255258035 -1.85112930059,-1.06875" fill="none" style="stroke: rgb(255, 128, 0); stroke-width: 0.015"/> 
<path d = "M-1.85112930059,-1.06875 Q-0.244410839727,-1.87593715303 0.259807621135,-0.15" fill="none" style="stroke: rgb(255, 128, 0); stroke-width: 0.015"/> 
<path d = "M1.05880921176e-16,1.72916666667 Q-2.00568761042,1.2207001325 -1.14387522083,-0.660416666667" fill="none" style="stroke: rgb(0, 200, 102); stroke-width: 0.015"/> 
<path d = "M-1.14387522083,-0.660416666667 Q-0.135783799848,-1.24741803851 0.259807621135,-0.15" fill="none" style="stroke: rgb(0, 200, 102); stroke-width: 0.015"/> 
<path d = "M8.50449166075e-17,1.38888888889 Q-2.05094887703,1.14230531911 -1.43856442073,-0.830555555556" fill="none" style="stroke: rgb(255, 128, 0); stroke-width: 0.015"/> 
<path d = "M-1.43856442073,-0.830555555556 Q-0.181045066464,-1.5093010029 0.259807621135,-0.15" fill="none" style="stroke: rgb(255, 128, 0); stroke-width: 0.015"/> 
<path d = "M1.21014440284e-16,1.97631578947 Q-1.97281363782,1.27763952328 -0.929837801958,-0.536842105263" fill="none" style="stroke: rgb(0, 200, 102); stroke-width: 0.015"/> 
<path d = "M-0.929837801958,-0.536842105263 Q-0.102909827253,-1.05720830649 0.259807621135,-0.15" fill="none" style="stroke: rgb(0, 200, 102); stroke-width: 0.015"/> 
<path d = "M6.61030942722e-17,1.07954545455 Q-2.09209548305,1.07103730693 -1.70646369337,-0.985227272727" fill="none" style="stroke: rgb(0, 200, 102); stroke-width: 0.015"/> 
<path d = "M-1.70646369337,-0.985227272727 Q-0.222191672479,-1.74737642506 0.259807621135,-0.15" fill="none" style="stroke: rgb(0, 200, 102); stroke-width: 0.015"/> 
<path d = "M9.83799595315e-17,1.60666666667 Q-1.96211896241,1.17045942156 -1.17923792482,-0.680833333333" fill="none" style="stroke: rgb(0, 200, 102); stroke-width: 0.015"/> 
<path d = "M-1.17923792482,-0.680833333333 Q-0.130352447854,-1.34169590569 0.330533029111,-0.190833333333" fill="none" style="stroke: rgb(0, 200, 102); stroke-width: 0.015"/> 
<path d = "M5.17073092973e-17,0.844444444444 Q-2.12336690362,1.01687361767 -1.91006714057,-1.10277777778" fill="none" style="stroke: rgb(255, 128, 0); stroke-width: 0.015"/> 
<path d = "M-1.91006714057,-1.10277777778 Q-0.25346309305,-1.92831374591 0.259807621135,-0.15" fill="none" style="stroke: rgb(255, 128, 0); stroke-width: 0.015"/> 
<path d = "M8.08777156937e-17,1.32083333333 Q-2.06000113036,1.12662635643 -1.49750226071,-0.864583333333" fill="none" style="stroke: rgb(0, 200, 102); stroke-width: 0.015"/> 
<path d = "M-1.49750226071,-0.864583333333 Q-0.190097319788,-1.56167759577 0.259807621135,-0.15" fill="none" style="stroke: rgb(0, 200, 102); stroke-width: 0.015"/> 
<path d = "M5.39005729362e-17,0.880263157895 Q-2.11860255976,1.0251257033 -1.87904722479,-1.08486842105" fill="none" style="stroke: rgb(255, 128, 0); stroke-width: 0.015"/> 
<path d = "M-1.87904722479,-1.08486842105 Q-0.248698749196,-1.90074711808 0.259807621135,-0.15" fill="none" style="stroke: rgb(255, 128, 0); stroke-width: 0.015"/> 
<path d = "M9.3379318435e-17,1.525 Q-2.03284437039,1.17366324446 -1.32068874077,-0.7625" fill="none" style="stroke: rgb(0, 200, 102); stroke-width: 0.015"/> 
<path d = "M-1.32068874077,-0.7625 Q-0.162940559818,-1.40454781714 0.259807621135,-0.15" fill="none" style="stroke: rgb(0, 200, 102); stroke-width: 0.015"/> 
<path d = "M5.83748307594e-17,0.953333333333 Q-2.1088832983,1.04195995796 -1.8157665966,-1.04833333333" fill="none" style="stroke: rgb(255, 128, 0); stroke-width: 0.015"/> 
<path d = "M-1.8157665966,-1.04833333333 Q-0.238979487733,-1.84451119731 0.259807621135,-0.15" fill="none" style="stroke: rgb(255, 128, 0); stroke-width: 0.015"/> 
<path d = "M9.3379318435e-17,1.525 Q-2.03284437039,1.17366324446 -1.32068874077,-0.7625" fill="none" style="stroke: rgb(255, 128, 0); stroke-width: 0.015"/> 
<path d = "M-1.32068874077,-0.7625 Q-0.162940559818,-1.40454781714 0.259807621135,-0.15" fill="none" style="stroke: rgb(255, 128, 0); stroke-width: 0.015"/> 
<path d = "M3.33716252768e-17,0.545 Q-2.10333411425,0.925867603769 -2.0986682285,-1.21166666667" fill="none" style="stroke: rgb(255, 128, 0); stroke-width: 0.015"/> 
<path d = "M-2.0986682285,-1.21166666667 Q-0.271567599697,-2.15877075457 0.330533029111,-0.190833333333" fill="none" style="stroke: rgb(255, 128, 0); stroke-width: 0.015"/> 
<path d = "M1.83697019872e-17,0.3 Q-2.1957849302,0.891441916244 -2.38156986041,-1.375" fill="none" style="stroke: rgb(255, 128, 0); stroke-width: 0.015"/> 
<path d = "M-2.38156986041,-1.375 Q-0.325881119636,-2.34732648893 0.259807621135,-0.15" fill="none" style="stroke: rgb(255, 128, 0); stroke-width: 0.015"/> 
<path d = "M1.68388934883e-16,2.75 Q-1.86990381057,1.45588457268 -0.259807621135,-0.15" fill="none" style="stroke: rgb(51, 153, 255); stroke-width: 0.015"/> 
<path d = "M-0.259807621135,-0.15 Q-9.43689570931e-17,-0.461769145362 0.259807621135,-0.15" fill="none" style="stroke: rgb(51, 153, 255); stroke-width: 0.015"/> 
<path d = "M1.83697019872e-17,0.3 Q-1.97129979025,0.808872248299 -2.1163495805,-1.221875" fill="none" style="stroke: rgb(0, 200, 102); stroke-width: 0.015"/> 
<path d = "M-2.1163495805,-1.221875 Q-0.244410839727,-2.34732648893 0.525027901044,-0.303125" fill="none" style="stroke: rgb(0, 200, 102); stroke-width: 0.015"/> 
<path d = "M7.4626914323e-17,1.21875 Q-2.07357951034,1.10310791241 -1.58590902068,-0.915625" fill="none" style="stroke: rgb(255, 128, 0); stroke-width: 0.015"/> 
<path d = "M-1.58590902068,-0.915625 Q-0.203675699772,-1.64024248509 0.259807621135,-0.15" fill="none" style="stroke: rgb(255, 128, 0); stroke-width: 0.015"/> 
<path d = "M1.83697019872e-17,0.3 Q-2.1957849302,0.891441916244 -2.38156986041,-1.375" fill="none" style="stroke: rgb(0, 200, 102); stroke-width: 0.015"/> 
<path d = "M-2.38156986041,-1.375 Q-0.325881119636,-2.34732648893 0.259807621135,-0.15" fill="none" style="stroke: rgb(0, 200, 102); stroke-width: 0.015"/> 
<path d = "M1.56848993891e-16,2.56153846154 Q-1.894971589,1.4124659068 -0.423020101079,-0.244230769231" fill="none" style="stroke: rgb(51, 153, 255); stroke-width: 0.015"/> 
<path d = "M-0.423020101079,-0.244230769231 Q-0.0250677784335,-0.606812017944 0.259807621135,-0.15" fill="none" style="stroke: rgb(51, 153, 255); stroke-width: 0.015"/> 
<path d = "M1.17066565734e-16,1.91184210526 Q-1.93412942729,1.24540268117 -0.929837801958,-0.536842105263" fill="none" style="stroke: rgb(255, 128, 0); stroke-width: 0.015"/> 
<path d = "M-0.929837801958,-0.536842105263 Q-0.0943340083157,-1.10682823658 0.315643469537,-0.182236842105" fill="none" style="stroke: rgb(255, 128, 0); stroke-width: 0.015"/> 
<line x1="1.83697019872e-17" y1="0.3" x2="2.45" y2="0.3" style="stroke: rgb(0, 0, 0); stroke-width: 0.05" transform="rotate(90,1.83697019872e-17,0.3)"/> 
<line x1="1.83697019872e-17" y1="0.3" x2="0.04" y2="0.3" style="stroke: rgb(0, 0, 0); stroke-width: 0.015" transform="rotate(180,1.83697019872e-17,0.3)"/> 
<line x1="1.83697019872e-17" y1="0.3" x2="0.04" y2="0.3" style="stroke: rgb(0, 0, 0); stroke-width: 0.015" transform="rotate(0,1.83697019872e-17,0.3)"/> 
<text x="-0.175" y="-0.3" style="fill:rgb(0, 0, 0)" font-size="0.175" font-family="sans-serif" transform="scale(1,-1) rotate(-90,-0.175,-0.3)" text-anchor="middle">0</text>
<line x1="5.58745102111e-17" y1="0.9125" x2="0.04" y2="0.9125" style="stroke: rgb(0, 0, 0); stroke-width: 0.015" transform="rotate(180,5.58745102111e-17,0.9125)"/> 
<line x1="5.58745102111e-17" y1="0.9125" x2="0.04" y2="0.9125" style="stroke: rgb(0, 0, 0); stroke-width: 0.015" transform="rotate(0,5.58745102111e-17,0.9125)"/> 
<text x="-0.175" y="-0.9125" style="fill:rgb(0, 0, 0)" font-size="0.175" font-family="sans-serif" transform="scale(1,-1) rotate(-90,-0.175,-0.9125)" text-anchor="middle">0.25</text>
<line x1="9.3379318435e-17" y1="1.525" x2="0.04" y2="1.525" style="stroke: rgb(0, 0, 0); stroke-width: 0.015" transform="rotate(180,9.3379318435e-17,1.525)"/> 
<line x1="9.3379318435e-17" y1="1.525" x2="0.04" y2="1.525" style="stroke: rgb(0, 0, 0); stroke-width: 0.015" transform="rotate(0,9.3379318435e-17,1.525)"/> 
<text x="-0.175" y="-1.525" style="fill:rgb(0, 0, 0)" font-size="0.175" font-family="sans-serif" transform="scale(1,-1) rotate(-90,-0.175,-1.525)" text-anchor="middle">0.5</text>
<line x1="1.30884126659e-16" y1="2.1375" x2="0.04" y2="2.1375" style="stroke: rgb(0, 0, 0); stroke-width: 0.015" transform="rotate(180,1.30884126659e-16,2.1375)"/> 
<line x1="1.30884126659e-16" y1="2.1375" x2="0.04" y2="2.1375" style="stroke: rgb(0, 0, 0); stroke-width: 0.015" transform="rotate(0,1.30884126659e-16,2.1375)"/> 
<text x="-0.175" y="-2.1375" style="fill:rgb(0, 0, 0)" font-size="0.175" font-family="sans-serif" transform="scale(1,-1) rotate(-90,-0.175,-2.1375)" text-anchor="middle">0.75</text>
<line x1="1.68388934883e-16" y1="2.75" x2="0.04" y2="2.75" style="stroke: rgb(0, 0, 0); stroke-width: 0.015" transform="rotate(180,1.68388934883e-16,2.75)"/> 
<line x1="1.68388934883e-16" y1="2.75" x2="0.04" y2="2.75" style="stroke: rgb(0, 0, 0); stroke-width: 0.015" transform="rotate(0,1.68388934883e-16,2.75)"/> 
<text x="-0.175" y="-2.75" style="fill:rgb(0, 0, 0)" font-size="0.175" font-family="sans-serif" transform="scale(1,-1) rotate(-90,-0.175,-2.75)" text-anchor="middle">1.0</text>
<line x1="-0.259807621135" y1="-0.15" x2="2.19019237886" y2="-0.15" style="stroke: rgb(0, 0, 0); stroke-width: 0.05" transform="rotate(210,-0.259807621135,-0.15)"/> 
<line x1="-0.259807621135" y1="-0.15" x2="-0.219807621135" y2="-0.15" style="stroke: rgb(0, 0, 0); stroke-width: 0.015" transform="rotate(300,-0.259807621135,-0.15)"/> 
<line x1="-0.259807621135" y1="-0.15" x2="-0.219807621135" y2="-0.15" style="stroke: rgb(0, 0, 0); stroke-width: 0.015" transform="rotate(120,-0.259807621135,-0.15)"/> 
<text x="-0.172307621135" y="0.301554445662" style="fill:rgb(0, 0, 0)" font-size="0.175" font-family="sans-serif" transform="scale(1,-1) rotate(-390,-0.172307621135,0.301554445662)" text-anchor="middle">0</text>
<line x1="-0.790248180953" y1="-0.45625" x2="-0.750248180953" y2="-0.45625" style="stroke: rgb(0, 0, 0); stroke-width: 0.015" transform="rotate(300,-0.790248180953,-0.45625)"/> 
<line x1="-0.790248180953" y1="-0.45625" x2="-0.750248180953" y2="-0.45625" style="stroke: rgb(0, 0, 0); stroke-width: 0.015" transform="rotate(120,-0.790248180953,-0.45625)"/> 
<text x="-0.702748180953" y="0.607804445662" style="fill:rgb(0, 0, 0)" font-size="0.175" font-family="sans-serif" transform="scale(1,-1) rotate(-390,-0.702748180953,0.607804445662)" text-anchor="middle">0.25</text>
<line x1="-1.32068874077" y1="-0.7625" x2="-1.28068874077" y2="-0.7625" style="stroke: rgb(0, 0, 0); stroke-width: 0.015" transform="rotate(300,-1.32068874077,-0.7625)"/> 
<line x1="-1.32068874077" y1="-0.7625" x2="-1.28068874077" y2="-0.7625" style="stroke: rgb(0, 0, 0); stroke-width: 0.015" transform="rotate(120,-1.32068874077,-0.7625)"/> 
<text x="-1.23318874077" y="0.914054445662" style="fill:rgb(0, 0, 0)" font-size="0.175" font-family="sans-serif" transform="scale(1,-1) rotate(-390,-1.23318874077,0.914054445662)" text-anchor="middle">0.5</text>
<line x1="-1.85112930059" y1="-1.06875" x2="-1.81112930059" y2="-1.06875" style="stroke: rgb(0, 0, 0); stroke-width: 0.015" transform="rotate(300,-1.85112930059,-1.06875)"/> 
<line x1="-1.85112930059" y1="-1.06875" x2="-1.81112930059" y2="-1.06875" style="stroke: rgb(0, 0, 0); stroke-width: 0.015" transform="rotate(120,-1.85112930059,-1.06875)"/> 
<text x="-1.76362930059" y="1.22030444566" style="fill:rgb(0, 0, 0)" font-size="0.175" font-family="sans-serif" transform="scale(1,-1) rotate(-390,-1.76362930059,1.22030444566)" text-anchor="middle">0.75</text>
<line x1="-2.38156986041" y1="-1.375" x2="-2.34156986041" y2="-1.375" style="stroke: rgb(0, 0, 0); stroke-width: 0.015" transform="rotate(300,-2.38156986041,-1.375)"/> 
<line x1="-2.38156986041" y1="-1.375" x2="-2.34156986041" y2="-1.375" style="stroke: rgb(0, 0, 0); stroke-width: 0.015" transform="rotate(120,-2.38156986041,-1.375)"/> 
<text x="-2.29406986041" y="1.52655444566" style="fill:rgb(0, 0, 0)" font-size="0.175" font-family="sans-serif" transform="scale(1,-1) rotate(-390,-2.29406986041,1.52655444566)" text-anchor="middle">1.0</text>
<line x1="0.259807621135" y1="-0.15" x2="2.70980762114" y2="-0.15" style="stroke: rgb(0, 0, 0); stroke-width: 0.05" transform="rotate(330,0.259807621135,-0.15)"/> 
<line x1="0.259807621135" y1="-0.15" x2="0.299807621135" y2="-0.15" style="stroke: rgb(0, 0, 0); stroke-width: 0.015" transform="rotate(420,0.259807621135,-0.15)"/> 
<line x1="0.259807621135" y1="-0.15" x2="0.299807621135" y2="-0.15" style="stroke: rgb(0, 0, 0); stroke-width: 0.015" transform="rotate(240,0.259807621135,-0.15)"/> 
<text x="0.347307621135" y="-0.00155444566228" style="fill:rgb(0, 0, 0)" font-size="0.175" font-family="sans-serif" transform="scale(1,-1) rotate(-330,0.347307621135,-0.00155444566228)" text-anchor="middle">0</text>
<line x1="0.790248180953" y1="-0.45625" x2="0.830248180953" y2="-0.45625" style="stroke: rgb(0, 0, 0); stroke-width: 0.015" transform="rotate(420,0.790248180953,-0.45625)"/> 
<line x1="0.790248180953" y1="-0.45625" x2="0.830248180953" y2="-0.45625" style="stroke: rgb(0, 0, 0); stroke-width: 0.015" transform="rotate(240,0.790248180953,-0.45625)"/> 
<text x="0.877748180953" y="0.304695554338" style="fill:rgb(0, 0, 0)" font-size="0.175" font-family="sans-serif" transform="scale(1,-1) rotate(-330,0.877748180953,0.304695554338)" text-anchor="middle">0.25</text>
<line x1="1.32068874077" y1="-0.7625" x2="1.36068874077" y2="-0.7625" style="stroke: rgb(0, 0, 0); stroke-width: 0.015" transform="rotate(420,1.32068874077,-0.7625)"/> 
<line x1="1.32068874077" y1="-0.7625" x2="1.36068874077" y2="-0.7625" style="stroke: rgb(0, 0, 0); stroke-width: 0.015" transform="rotate(240,1.32068874077,-0.7625)"/> 
<text x="1.40818874077" y="0.610945554338" style="fill:rgb(0, 0, 0)" font-size="0.175" font-family="sans-serif" transform="scale(1,-1) rotate(-330,1.40818874077,0.610945554338)" text-anchor="middle">0.5</text>
<line x1="1.85112930059" y1="-1.06875" x2="1.89112930059" y2="-1.06875" style="stroke: rgb(0, 0, 0); stroke-width: 0.015" transform="rotate(420,1.85112930059,-1.06875)"/> 
<line x1="1.85112930059" y1="-1.06875" x2="1.89112930059" y2="-1.06875" style="stroke: rgb(0, 0, 0); stroke-width: 0.015" transform="rotate(240,1.85112930059,-1.06875)"/> 
<text x="1.93862930059" y="0.917195554338" style="fill:rgb(0, 0, 0)" font-size="0.175" font-family="sans-serif" transform="scale(1,-1) rotate(-330,1.93862930059,0.917195554338)" text-anchor="middle">0.75</text>
<line x1="2.38156986041" y1="-1.375" x2="2.42156986041" y2="-1.375" style="stroke: rgb(0, 0, 0); stroke-width: 0.015" transform="rotate(420,2.38156986041,-1.375)"/> 
<line x1="2.38156986041" y1="-1.375" x2="2.42156986041" y2="-1.375" style="stroke: rgb(0, 0, 0); stroke-width: 0.015" transform="rotate(240,2.38156986041,-1.375)"/> 
<text x="2.46906986041" y="1.22344555434" style="fill:rgb(0, 0, 0)" font-size="0.175" font-family="sans-serif" transform="scale(1,-1) rotate(-330,2.46906986041,1.22344555434)" text-anchor="middle">1.0</text>
<text y="-3.25" style="fill:rgb(0, 0, 0)" font-size="0.2" font-family="sans-serif" transform="scale(1,-1)" text-anchor="middle"><tspan x="1.99005104861e-16">chr1</tspan><tspan x="1.99005104861e-16" dy="0.2">79086256-79093591</tspan></text><text y="1.625" style="fill:rgb(0, 0, 0)" font-size="0.2" font-family="sans-serif" transform="scale(1,-1)" text-anchor="middle"><tspan x="-2.8145825623">chr1</tspan><tspan x="-2.8145825623" dy="0.2">79086256-79094636</tspan></text><text y="1.625" style="fill:rgb(0, 0, 0)" font-size="0.2" font-family="sans-serif" transform="scale(1,-1)" text-anchor="middle"><tspan x="2.8145825623">chr1</tspan><tspan x="2.8145825623" dy="0.2">79086256-79086563</tspan></text><text x="1" y="-2" style="fill:rgb(0, 0, 0)" font-size="0.25" font-family="sans-serif" transform="scale(1,-1) rotate(0,1,-2)" text-anchor="left">chr1:79082772</text>
<rect x="1" y="1.65" width="0.2" height="0.2" style="fill:rgb(255, 128, 0); stroke-width:0.01; stroke:rgb(255, 128, 0)"/>
<text x="1.4" y="-1.65" style="fill:rgb(0, 0, 0)" font-size="0.2" font-family="sans-serif" transform="scale(1,-1) rotate(0,1.4,-1.65)" text-anchor="left">GG</text>
<rect x="1" y="1.25" width="0.2" height="0.2" style="fill:rgb(0, 200, 102); stroke-width:0.01; stroke:rgb(0, 200, 102)"/>
<text x="1.4" y="-1.25" style="fill:rgb(0, 0, 0)" font-size="0.2" font-family="sans-serif" transform="scale(1,-1) rotate(0,1.4,-1.25)" text-anchor="left">GA</text>
<rect x="1" y="0.85" width="0.2" height="0.2" style="fill:rgb(51, 153, 255); stroke-width:0.01; stroke:rgb(51, 153, 255)"/>
<text x="1.4" y="-0.85" style="fill:rgb(0, 0, 0)" font-size="0.2" font-family="sans-serif" transform="scale(1,-1) rotate(0,1.4,-0.85)" text-anchor="left">AA</text>
</g>
</svg>
