<?xml version="1.0"?>
<!DOCTYPE svg PUBLIC "-//W3C//DTD SVG 1.1//EN" "http://www.w3.org/Graphics/SVG/1.1/DTD/svg11.dtd">
<svg width="800px" height="800px" version="1.1" xmlns="http://www.w3.org/2000/svg" xmlns:xlink="http://www.w3.org/1999/xlink">
<g transform="translate(400,400) scale(1, -1)">
<path id = "curve" d = "M2.33580262337e-15,38.1465517241 Q-60.2336643809,32.8097076019 -44.1225011756,-25.474137931" fill="none" style="stroke: rgb(255, 128, 0); stroke-width: 1.0"/> 
<path id = "curve" d = "M-44.1225011756,-25.474137931 Q29.2570611102,-247.70331957 234.610761327,-135.452586207" fill="none" style="stroke: rgb(255, 128, 0); stroke-width: 1.0"/> 
<path id = "curve" d = "M1.09531494092e-14,178.878504673 Q-190.356205112,119.978848003 -98.0955877932,-56.6355140187" fill="none" style="stroke: rgb(0, 200, 102); stroke-width: 1.0"/> 
<path id = "curve" d = "M-98.0955877932,-56.6355140187 Q-6.04151150651,-139.393863507 58.7602283315,-33.9252336449" fill="none" style="stroke: rgb(0, 200, 102); stroke-width: 1.0"/> 
<path id = "curve" d = "M7.21972008335e-15,117.906976744 Q-137.610286585,83.5480415769 -78.9996429382,-45.6104651163" fill="none" style="stroke: rgb(51, 153, 255); stroke-width: 1.0"/> 
<path id = "curve" d = "M-78.9996429382,-45.6104651163 Q7.9343623338,-186.318480745 130.65906528,-75.4360465116" fill="none" style="stroke: rgb(51, 153, 255); stroke-width: 1.0"/> 
<path id = "curve" d = "M2.49827947026e-15,40.8 Q-59.6646096908,33.341531629 -41.5692193817,-24.0" fill="none" style="stroke: rgb(255, 128, 0); stroke-width: 1.0"/> 
<path id = "curve" d = "M-41.5692193817,-24.0 Q29.6884350623,-245.661185333 234.866089506,-135.6" fill="none" style="stroke: rgb(255, 128, 0); stroke-width: 1.0"/> 
<path id = "curve" d = "M8.53377294849e-15,139.367088608 Q-183.272866055,106.337565848 -117.735605527,-67.9746835443" fill="none" style="stroke: rgb(0, 200, 102); stroke-width: 1.0"/> 
<path id = "curve" d = "M-117.735605527,-67.9746835443 Q-6.81900560334,-169.802451554 73.3381006496,-42.3417721519" fill="none" style="stroke: rgb(0, 200, 102); stroke-width: 1.0"/> 
<path id = "curve" d = "M7.17942501247e-15,117.248908297 Q-170.986547369,95.6406254017 -118.89885893,-68.6462882096" fill="none" style="stroke: rgb(0, 200, 102); stroke-width: 1.0"/> 
<path id = "curve" d = "M-118.89885893,-68.6462882096 Q-4.23433448382,-186.824940253 91.3297532812,-52.7292576419" fill="none" style="stroke: rgb(0, 200, 102); stroke-width: 1.0"/> 
<path id = "curve" d = "M5.20772134006e-15,85.0485436893 Q-113.370789015,65.4546555562 -73.6541993898,-42.5242718447" fill="none" style="stroke: rgb(51, 153, 255); stroke-width: 1.0"/> 
<path id = "curve" d = "M-73.6541993898,-42.5242718447 Q13.9469629169,-211.606831661 164.460746583,-94.9514563107" fill="none" style="stroke: rgb(51, 153, 255); stroke-width: 1.0"/> 
<path id = "curve" d = "M9.8081087396e-15,160.178571429 Q-174.64421806,108.9766331 -92.7884361198,-53.5714285714" fill="none" style="stroke: rgb(0, 200, 102); stroke-width: 1.0"/> 
<path id = "curve" d = "M-92.7884361198,-53.5714285714 Q-1.9239337238,-153.785617161 80.2619972436,-46.3392857143" fill="none" style="stroke: rgb(0, 200, 102); stroke-width: 1.0"/> 
<path id = "curve" d = "M2.89225095118e-15,47.2340425532 Q-60.156295997,35.31947009 -37.5891877387,-21.7021276596" fill="none" style="stroke: rgb(255, 128, 0); stroke-width: 1.0"/> 
<path id = "curve" d = "M-37.5891877387,-21.7021276596 Q30.0552105127,-240.709448114 233.274076849,-134.680851064" fill="none" style="stroke: rgb(255, 128, 0); stroke-width: 1.0"/> 
<path id = "curve" d = "M3.55637430472e-15,58.08 Q-113.837448756,58.0937385071 -93.3228975118,-53.88" fill="none" style="stroke: rgb(51, 153, 255); stroke-width: 1.0"/> 
<path id = "curve" d = "M-93.3228975118,-53.88 Q11.4922974435,-232.362233946 168.147492399,-97.08" fill="none" style="stroke: rgb(51, 153, 255); stroke-width: 1.0"/> 
<path id = "curve" d = "M6.89016396796e-15,112.524916944 Q-119.093717695,75.2340559179 -60.938265954,-35.1827242525" fill="none" style="stroke: rgb(51, 153, 255); stroke-width: 1.0"/> 
<path id = "curve" d = "M-60.938265954,-35.1827242525 Q14.1983325973,-190.460596002 153.381442777,-88.5548172757" fill="none" style="stroke: rgb(51, 153, 255); stroke-width: 1.0"/> 
<path id = "curve" d = "M4.00519731852e-15,65.4098360656 Q-82.3254186276,48.5503384187 -50.8967388945,-29.3852459016" fill="none" style="stroke: rgb(255, 128, 0); stroke-width: 1.0"/> 
<path id = "curve" d = "M-50.8967388945,-29.3852459016 Q23.5497898432,-226.721080387 204.225826778,-117.909836066" fill="none" style="stroke: rgb(255, 128, 0); stroke-width: 1.0"/> 
<path id = "curve" d = "M6.73555739531e-15,110.0 Q-129.039092363,78.1869108353 -74.4781847255,-43.0" fill="none" style="stroke: rgb(51, 153, 255); stroke-width: 1.0"/> 
<path id = "curve" d = "M-74.4781847255,-43.0 Q10.3749907476,-192.403810568 142.028166221,-82.0" fill="none" style="stroke: rgb(51, 153, 255); stroke-width: 1.0"/> 
<path id = "curve" d = "M6.60316314675e-15,107.837837838 Q-117.00414954,73.1563307999 -61.7920828646,-35.6756756757" fill="none" style="stroke: rgb(51, 153, 255); stroke-width: 1.0"/> 
<path id = "curve" d = "M-61.7920828646,-35.6756756757 Q14.5594984504,-194.067843524 156.586755441,-90.4054054054" fill="none" style="stroke: rgb(51, 153, 255); stroke-width: 1.0"/> 
<path id = "curve" d = "M3.28030392629e-15,53.5714285714 Q-66.6991702321,39.4961471356 -40.8269118927,-23.5714285714" fill="none" style="stroke: rgb(255, 128, 0); stroke-width: 1.0"/> 
<path id = "curve" d = "M-40.8269118927,-23.5714285714 Q28.2176946157,-235.832099239 224.54801541,-129.642857143" fill="none" style="stroke: rgb(255, 128, 0); stroke-width: 1.0"/> 
<path id = "curve" d = "M8.53557704406e-15,139.396551724 Q-136.339016671,89.0826820736 -62.2642402376,-35.9482758621" fill="none" style="stroke: rgb(51, 153, 255); stroke-width: 1.0"/> 
<path id = "curve" d = "M-62.2642402376,-35.9482758621 Q10.2167514988,-169.779776291 128.783950132,-74.3534482759" fill="none" style="stroke: rgb(51, 153, 255); stroke-width: 1.0"/> 
<path id = "curve" d = "M6.13428676468e-15,100.180505415 Q-117.823130066,71.3188030106 -68.1877763774,-39.3682310469" fill="none" style="stroke: rgb(51, 153, 255); stroke-width: 1.0"/> 
<path id = "curve" d = "M-68.1877763774,-39.3682310469 Q13.6133938579,-199.961043272 156.822506332,-90.5415162455" fill="none" style="stroke: rgb(51, 153, 255); stroke-width: 1.0"/> 
<path id = "curve" d = "M2.59419455545e-15,42.3664122137 Q-62.5181237675,34.82861875 -43.8301406648,-25.3053435115" fill="none" style="stroke: rgb(255, 128, 0); stroke-width: 1.0"/> 
<path id = "curve" d = "M-43.8301406648,-25.3053435115 Q28.7855732721,-244.455650617 231.248615453,-133.511450382" fill="none" style="stroke: rgb(255, 128, 0); stroke-width: 1.0"/> 
<path id = "curve" d = "M6.94708729698e-15,113.454545455 Q-126.047368241,78.0513873432 -68.4947364811,-39.5454545455" fill="none" style="stroke: rgb(51, 153, 255); stroke-width: 1.0"/> 
<path id = "curve" d = "M-68.4947364811,-39.5454545455 Q11.7534860217,-189.745139731 145.019890343,-83.7272727273" fill="none" style="stroke: rgb(51, 153, 255); stroke-width: 1.0"/> 
<path id = "curve" d = "M3.0873448718e-15,50.4201680672 Q-60.5581722127,36.3572016132 -35.8054200556,-20.6722689076" fill="none" style="stroke: rgb(255, 128, 0); stroke-width: 1.0"/> 
<path id = "curve" d = "M-35.8054200556,-20.6722689076 Q30.1793525302,-238.257357355 232.298578897,-134.117647059" fill="none" style="stroke: rgb(255, 128, 0); stroke-width: 1.0"/> 
<path id = "curve" d = "M6.68896757143e-15,109.239130435 Q-120.877969724,74.9725854084 -65.3755046661,-37.7445652174" fill="none" style="stroke: rgb(51, 153, 255); stroke-width: 1.0"/> 
<path id = "curve" d = "M-65.3755046661,-37.7445652174 Q13.2723543845,-192.989387382 151.789778652,-87.6358695652" fill="none" style="stroke: rgb(51, 153, 255); stroke-width: 1.0"/> 
<path id = "curve" d = "M8.14182554179e-15,132.966101695 Q-180.599967387,103.566571034 -119.115189012,-68.7711864407" fill="none" style="stroke: rgb(0, 200, 102); stroke-width: 1.0"/> 
<path id = "curve" d = "M-119.115189012,-68.7711864407 Q-6.39137304855,-174.728748648 77.5019344404,-44.7457627119" fill="none" style="stroke: rgb(0, 200, 102); stroke-width: 1.0"/> 
<path id = "curve" d = "M3.11968214783e-15,50.9482758621 Q-71.3269993725,40.465675109 -48.1539987449,-27.8017241379" fill="none" style="stroke: rgb(255, 128, 0); stroke-width: 1.0"/> 
<path id = "curve" d = "M-48.1539987449,-27.8017241379 Q26.3158750726,-237.850917547 219.492645442,-126.724137931" fill="none" style="stroke: rgb(255, 128, 0); stroke-width: 1.0"/> 
<path id = "curve" d = "M7.04049932737e-15,114.980079681 Q-126.460916228,78.6295934976 -67.9019121374,-39.203187251" fill="none" style="stroke: rgb(51, 153, 255); stroke-width: 1.0"/> 
<path id = "curve" d = "M-67.9019121374,-39.203187251 Q11.7326741828,-188.571065337 144.291563292,-83.3067729084" fill="none" style="stroke: rgb(51, 153, 255); stroke-width: 1.0"/> 
<path id = "curve" d = "M1.05512672498e-14,172.315270936 Q-173.151750742,111.81756887 -82.4217280843,-47.5862068966" fill="none" style="stroke: rgb(0, 200, 102); stroke-width: 1.0"/> 
<path id = "curve" d = "M-82.4217280843,-47.5862068966 Q-0.353826891733,-144.445028229 80.1180151875,-46.2561576355" fill="none" style="stroke: rgb(0, 200, 102); stroke-width: 1.0"/> 
<path id = "curve" d = "M1.10218211923e-14,180.0 Q-187.85980489,119.373871132 -94.3511887281,-54.4736842105" fill="none" style="stroke: rgb(0, 200, 102); stroke-width: 1.0"/> 
<path id = "curve" d = "M-94.3511887281,-54.4736842105 Q-5.04048133486,-138.530743609 61.5333839531,-35.5263157895" fill="none" style="stroke: rgb(0, 200, 102); stroke-width: 1.0"/> 
<path id = "curve" d = "M9.65477360258e-15,157.674418605 Q-183.333281706,111.473193861 -104.829354109,-60.523255814" fill="none" style="stroke: rgb(0, 200, 102); stroke-width: 1.0"/> 
<path id = "curve" d = "M-104.829354109,-60.523255814 Q-5.2895748892,-155.712851343 70.3897392146,-40.6395348837" fill="none" style="stroke: rgb(0, 200, 102); stroke-width: 1.0"/> 
<path id = "curve" d = "M6.64299688142e-15,108.488372093 Q-120.836082214,74.7474847029 -65.858210939,-38.023255814" fill="none" style="stroke: rgb(51, 153, 255); stroke-width: 1.0"/> 
<path id = "curve" d = "M-65.858210939,-38.023255814 Q13.223937223,-193.567182446 151.957248176,-87.7325581395" fill="none" style="stroke: rgb(51, 153, 255); stroke-width: 1.0"/> 
<path id = "curve" d = "M8.27603415845e-15,135.157894737 Q-136.417906027,87.9278030219 -65.3621278435,-37.7368421053" fill="none" style="stroke: rgb(51, 153, 255); stroke-width: 1.0"/> 
<path id = "curve" d = "M-65.3621278435,-37.7368421053 Q9.82893860298,-173.041911315 129.356847155,-74.6842105263" fill="none" style="stroke: rgb(51, 153, 255); stroke-width: 1.0"/> 
<path id = "curve" d = "M7.67205200642e-15,125.294117647 Q-97.166851645,70.7355160916 -25.9807621135,-15.0" fill="none" style="stroke: rgb(51, 153, 255); stroke-width: 1.0"/> 
<path id = "curve" d = "M-25.9807621135,-15.0 Q23.2381014482,-180.633224509 177.280494422,-102.352941176" fill="none" style="stroke: rgb(51, 153, 255); stroke-width: 1.0"/> 
<path id = "curve" d = "M2.75545529808e-15,45.0 Q-66.2685376014,36.9436736931 -46.3942180599,-26.7857142857" fill="none" style="stroke: rgb(255, 128, 0); stroke-width: 1.0"/> 
<path id = "curve" d = "M-46.3942180599,-26.7857142857 Q27.647640179,-242.428801315 226.403784132,-130.714285714" fill="none" style="stroke: rgb(255, 128, 0); stroke-width: 1.0"/> 
<path id = "curve" d = "M2.71871589411e-15,44.4 Q-53.9080725104,32.2296870125 -32.2161450208,-18.6" fill="none" style="stroke: rgb(255, 128, 0); stroke-width: 1.0"/> 
<path id = "curve" d = "M-32.2161450208,-18.6 Q32.0826636964,-242.890570461 241.101472414,-139.2" fill="none" style="stroke: rgb(255, 128, 0); stroke-width: 1.0"/> 
<path id = "curve" d = "M1.0103336093e-14,165.0 Q-151.22715501,101.710086012 -61.7043100196,-35.625" fill="none" style="stroke: rgb(51, 153, 255); stroke-width: 1.0"/> 
<path id = "curve" d = "M-61.7043100196,-35.625 Q6.98316684934,-150.074972243 107.170643718,-61.875" fill="none" style="stroke: rgb(51, 153, 255); stroke-width: 1.0"/> 
<path id = "curve" d = "M6.59148130129e-15,107.647058824 Q-116.330308369,72.855193572 -61.131204973,-35.2941176471" fill="none" style="stroke: rgb(51, 153, 255); stroke-width: 1.0"/> 
<path id = "curve" d = "M-61.131204973,-35.2941176471 Q14.7878827398,-194.214669961 157.412852806,-90.8823529412" fill="none" style="stroke: rgb(51, 153, 255); stroke-width: 1.0"/> 
<path id = "curve" d = "M9.42257654873e-15,153.882352941 Q-178.350608251,108.581318137 -101.630628268,-58.6764705882" fill="none" style="stroke: rgb(0, 200, 102); stroke-width: 1.0"/> 
<path id = "curve" d = "M-101.630628268,-58.6764705882 Q-3.8025984188,-158.631282877 76.8724902536,-44.3823529412" fill="none" style="stroke: rgb(0, 200, 102); stroke-width: 1.0"/> 
<path id = "curve" d = "M2.83291789682e-15,46.265060241 Q-75.9789078594,40.8686653349 -56.9698639116,-32.8915662651" fill="none" style="stroke: rgb(255, 128, 0); stroke-width: 1.0"/> 
<path id = "curve" d = "M-56.9698639116,-32.8915662651 Q24.2307476218,-241.455191671 214.732563975,-123.975903614" fill="none" style="stroke: rgb(255, 128, 0); stroke-width: 1.0"/> 
<path id = "curve" d = "M7.48428947301e-15,122.227722772 Q-129.618945576,81.8155069684 -66.4953168945,-38.3910891089" fill="none" style="stroke: rgb(51, 153, 255); stroke-width: 1.0"/> 
<path id = "curve" d = "M-66.4953168945,-38.3910891089 Q11.2007230653,-182.993168744 139.4215155,-80.495049505" fill="none" style="stroke: rgb(51, 153, 255); stroke-width: 1.0"/> 
<path id = "curve" d = "M6.47231555998e-15,105.700934579 Q-120.554447979,73.8653375751 -67.501419323,-38.9719626168" fill="none" style="stroke: rgb(51, 153, 255); stroke-width: 1.0"/> 
<path id = "curve" d = "M-67.501419323,-38.9719626168 Q13.0899415974,-195.712436843 152.72803149,-88.1775700935" fill="none" style="stroke: rgb(51, 153, 255); stroke-width: 1.0"/> 
<line x1="1.83697019872e-15" y1="30.0" x2="270.0" y2="30.0" style="stroke: rgb(0, 0, 0); stroke-width: 5.0" transform="rotate(90,1.83697019872e-15,30.0)"/> 
<line x1="1.83697019872e-15" y1="30.0" x2="4.0" y2="30.0" style="stroke: rgb(0, 0, 0); stroke-width: 1.5" transform="rotate(180,1.83697019872e-15,30.0)"/> 
<line x1="1.83697019872e-15" y1="30.0" x2="4.0" y2="30.0" style="stroke: rgb(0, 0, 0); stroke-width: 1.5" transform="rotate(0,1.83697019872e-15,30.0)"/> 
<text x="-15.0" y="-30.0" style="fill:rgb(0, 0, 0)" font-size="10.0" font-family="sans-serif" transform="scale(1,-1) rotate(-90,-15.0,-30.0)" text-anchor="middle">0</text><line x1="5.97015314584e-15" y1="97.5" x2="4.0" y2="97.5" style="stroke: rgb(0, 0, 0); stroke-width: 1.5" transform="rotate(180,5.97015314584e-15,97.5)"/> 
<line x1="5.97015314584e-15" y1="97.5" x2="4.0" y2="97.5" style="stroke: rgb(0, 0, 0); stroke-width: 1.5" transform="rotate(0,5.97015314584e-15,97.5)"/> 
<text x="-15.0" y="-97.5" style="fill:rgb(0, 0, 0)" font-size="10.0" font-family="sans-serif" transform="scale(1,-1) rotate(-90,-15.0,-97.5)" text-anchor="middle">0.25</text><line x1="1.0103336093e-14" y1="165.0" x2="4.0" y2="165.0" style="stroke: rgb(0, 0, 0); stroke-width: 1.5" transform="rotate(180,1.0103336093e-14,165.0)"/> 
<line x1="1.0103336093e-14" y1="165.0" x2="4.0" y2="165.0" style="stroke: rgb(0, 0, 0); stroke-width: 1.5" transform="rotate(0,1.0103336093e-14,165.0)"/> 
<text x="-15.0" y="-165.0" style="fill:rgb(0, 0, 0)" font-size="10.0" font-family="sans-serif" transform="scale(1,-1) rotate(-90,-15.0,-165.0)" text-anchor="middle">0.5</text><line x1="1.42365190401e-14" y1="232.5" x2="4.0" y2="232.5" style="stroke: rgb(0, 0, 0); stroke-width: 1.5" transform="rotate(180,1.42365190401e-14,232.5)"/> 
<line x1="1.42365190401e-14" y1="232.5" x2="4.0" y2="232.5" style="stroke: rgb(0, 0, 0); stroke-width: 1.5" transform="rotate(0,1.42365190401e-14,232.5)"/> 
<text x="-15.0" y="-232.5" style="fill:rgb(0, 0, 0)" font-size="10.0" font-family="sans-serif" transform="scale(1,-1) rotate(-90,-15.0,-232.5)" text-anchor="middle">0.75</text><line x1="1.83697019872e-14" y1="300.0" x2="4.0" y2="300.0" style="stroke: rgb(0, 0, 0); stroke-width: 1.5" transform="rotate(180,1.83697019872e-14,300.0)"/> 
<line x1="1.83697019872e-14" y1="300.0" x2="4.0" y2="300.0" style="stroke: rgb(0, 0, 0); stroke-width: 1.5" transform="rotate(0,1.83697019872e-14,300.0)"/> 
<text x="-15.0" y="-300.0" style="fill:rgb(0, 0, 0)" font-size="10.0" font-family="sans-serif" transform="scale(1,-1) rotate(-90,-15.0,-300.0)" text-anchor="middle">1.0</text><line x1="-25.9807621135" y1="-15.0" x2="244.019237886" y2="-15.0" style="stroke: rgb(0, 0, 0); stroke-width: 5.0" transform="rotate(210,-25.9807621135,-15.0)"/> 
<line x1="-25.9807621135" y1="-15.0" x2="-21.9807621135" y2="-15.0" style="stroke: rgb(0, 0, 0); stroke-width: 1.5" transform="rotate(300,-25.9807621135,-15.0)"/> 
<line x1="-25.9807621135" y1="-15.0" x2="-21.9807621135" y2="-15.0" style="stroke: rgb(0, 0, 0); stroke-width: 1.5" transform="rotate(120,-25.9807621135,-15.0)"/> 
<text x="-18.4807621135" y="27.9903810568" style="fill:rgb(0, 0, 0)" font-size="10.0" font-family="sans-serif" transform="scale(1,-1) rotate(-390,-18.4807621135,27.9903810568)" text-anchor="middle">0</text><line x1="-84.437476869" y1="-48.75" x2="-80.437476869" y2="-48.75" style="stroke: rgb(0, 0, 0); stroke-width: 1.5" transform="rotate(300,-84.437476869,-48.75)"/> 
<line x1="-84.437476869" y1="-48.75" x2="-80.437476869" y2="-48.75" style="stroke: rgb(0, 0, 0); stroke-width: 1.5" transform="rotate(120,-84.437476869,-48.75)"/> 
<text x="-76.937476869" y="61.7403810568" style="fill:rgb(0, 0, 0)" font-size="10.0" font-family="sans-serif" transform="scale(1,-1) rotate(-390,-76.937476869,61.7403810568)" text-anchor="middle">0.25</text><line x1="-142.894191624" y1="-82.5" x2="-138.894191624" y2="-82.5" style="stroke: rgb(0, 0, 0); stroke-width: 1.5" transform="rotate(300,-142.894191624,-82.5)"/> 
<line x1="-142.894191624" y1="-82.5" x2="-138.894191624" y2="-82.5" style="stroke: rgb(0, 0, 0); stroke-width: 1.5" transform="rotate(120,-142.894191624,-82.5)"/> 
<text x="-135.394191624" y="95.4903810568" style="fill:rgb(0, 0, 0)" font-size="10.0" font-family="sans-serif" transform="scale(1,-1) rotate(-390,-135.394191624,95.4903810568)" text-anchor="middle">0.5</text><line x1="-201.35090638" y1="-116.25" x2="-197.35090638" y2="-116.25" style="stroke: rgb(0, 0, 0); stroke-width: 1.5" transform="rotate(300,-201.35090638,-116.25)"/> 
<line x1="-201.35090638" y1="-116.25" x2="-197.35090638" y2="-116.25" style="stroke: rgb(0, 0, 0); stroke-width: 1.5" transform="rotate(120,-201.35090638,-116.25)"/> 
<text x="-193.85090638" y="129.240381057" style="fill:rgb(0, 0, 0)" font-size="10.0" font-family="sans-serif" transform="scale(1,-1) rotate(-390,-193.85090638,129.240381057)" text-anchor="middle">0.75</text><line x1="-259.807621135" y1="-150.0" x2="-255.807621135" y2="-150.0" style="stroke: rgb(0, 0, 0); stroke-width: 1.5" transform="rotate(300,-259.807621135,-150.0)"/> 
<line x1="-259.807621135" y1="-150.0" x2="-255.807621135" y2="-150.0" style="stroke: rgb(0, 0, 0); stroke-width: 1.5" transform="rotate(120,-259.807621135,-150.0)"/> 
<text x="-252.307621135" y="162.990381057" style="fill:rgb(0, 0, 0)" font-size="10.0" font-family="sans-serif" transform="scale(1,-1) rotate(-390,-252.307621135,162.990381057)" text-anchor="middle">1.0</text><line x1="25.9807621135" y1="-15.0" x2="295.980762114" y2="-15.0" style="stroke: rgb(0, 0, 0); stroke-width: 5.0" transform="rotate(330,25.9807621135,-15.0)"/> 
<line x1="25.9807621135" y1="-15.0" x2="29.9807621135" y2="-15.0" style="stroke: rgb(0, 0, 0); stroke-width: 1.5" transform="rotate(420,25.9807621135,-15.0)"/> 
<line x1="25.9807621135" y1="-15.0" x2="29.9807621135" y2="-15.0" style="stroke: rgb(0, 0, 0); stroke-width: 1.5" transform="rotate(240,25.9807621135,-15.0)"/> 
<text x="33.4807621135" y="2.00961894323" style="fill:rgb(0, 0, 0)" font-size="10.0" font-family="sans-serif" transform="scale(1,-1) rotate(-330,33.4807621135,2.00961894323)" text-anchor="middle">0</text><line x1="84.437476869" y1="-48.75" x2="88.437476869" y2="-48.75" style="stroke: rgb(0, 0, 0); stroke-width: 1.5" transform="rotate(420,84.437476869,-48.75)"/> 
<line x1="84.437476869" y1="-48.75" x2="88.437476869" y2="-48.75" style="stroke: rgb(0, 0, 0); stroke-width: 1.5" transform="rotate(240,84.437476869,-48.75)"/> 
<text x="91.937476869" y="35.7596189432" style="fill:rgb(0, 0, 0)" font-size="10.0" font-family="sans-serif" transform="scale(1,-1) rotate(-330,91.937476869,35.7596189432)" text-anchor="middle">0.25</text><line x1="142.894191624" y1="-82.5" x2="146.894191624" y2="-82.5" style="stroke: rgb(0, 0, 0); stroke-width: 1.5" transform="rotate(420,142.894191624,-82.5)"/> 
<line x1="142.894191624" y1="-82.5" x2="146.894191624" y2="-82.5" style="stroke: rgb(0, 0, 0); stroke-width: 1.5" transform="rotate(240,142.894191624,-82.5)"/> 
<text x="150.394191624" y="69.5096189432" style="fill:rgb(0, 0, 0)" font-size="10.0" font-family="sans-serif" transform="scale(1,-1) rotate(-330,150.394191624,69.5096189432)" text-anchor="middle">0.5</text><line x1="201.35090638" y1="-116.25" x2="205.35090638" y2="-116.25" style="stroke: rgb(0, 0, 0); stroke-width: 1.5" transform="rotate(420,201.35090638,-116.25)"/> 
<line x1="201.35090638" y1="-116.25" x2="205.35090638" y2="-116.25" style="stroke: rgb(0, 0, 0); stroke-width: 1.5" transform="rotate(240,201.35090638,-116.25)"/> 
<text x="208.85090638" y="103.259618943" style="fill:rgb(0, 0, 0)" font-size="10.0" font-family="sans-serif" transform="scale(1,-1) rotate(-330,208.85090638,103.259618943)" text-anchor="middle">0.75</text><line x1="259.807621135" y1="-150.0" x2="263.807621135" y2="-150.0" style="stroke: rgb(0, 0, 0); stroke-width: 1.5" transform="rotate(420,259.807621135,-150.0)"/> 
<line x1="259.807621135" y1="-150.0" x2="263.807621135" y2="-150.0" style="stroke: rgb(0, 0, 0); stroke-width: 1.5" transform="rotate(240,259.807621135,-150.0)"/> 
<text x="267.307621135" y="137.009618943" style="fill:rgb(0, 0, 0)" font-size="10.0" font-family="sans-serif" transform="scale(1,-1) rotate(-330,267.307621135,137.009618943)" text-anchor="middle">1.0</text><text y="-350.0" style="fill:rgb(0, 0, 0)" font-size="15.0" font-family="sans-serif" transform="scale(1,-1)" text-anchor="middle"><tspan x="2.14313189851e-14">TLR1</tspan><tspan x="2.14313189851e-14" dy="15.0">38806375-38800519</tspan></text><text y="175.0" style="fill:rgb(0, 0, 0)" font-size="15.0" font-family="sans-serif" transform="scale(1,-1)" text-anchor="middle"><tspan x="-303.108891325">TLR1</tspan><tspan x="-303.108891325" dy="15.0">38806375-38802569</tspan></text><text y="175.0" style="fill:rgb(0, 0, 0)" font-size="15.0" font-family="sans-serif" transform="scale(1,-1)" text-anchor="middle"><tspan x="303.108891325">TLR1</tspan><tspan x="303.108891325" dy="15.0">38806375-38806003</tspan></text><text x="100" y="-200" style="fill:rgb(0, 0, 0)" font-size="20.0" font-family="sans-serif" transform="scale(1,-1) rotate(0,100,-200)" text-anchor="left">chr4:38806019</text><rect x="100" y="172.5" width="15.0" height="15.0" style="fill:rgb(255, 128, 0); stroke-width:1; stroke:rgb(255, 128, 0)"/>
<text x="130.0" y="-172.5" style="fill:rgb(0, 0, 0)" font-size="15.0" font-family="sans-serif" transform="scale(1,-1) rotate(0,130.0,-172.5)" text-anchor="left">AA</text><rect x="100" y="142.5" width="15.0" height="15.0" style="fill:rgb(0, 200, 102); stroke-width:1; stroke:rgb(0, 200, 102)"/>
<text x="130.0" y="-142.5" style="fill:rgb(0, 0, 0)" font-size="15.0" font-family="sans-serif" transform="scale(1,-1) rotate(0,130.0,-142.5)" text-anchor="left">GG</text><rect x="100" y="112.5" width="15.0" height="15.0" style="fill:rgb(51, 153, 255); stroke-width:1; stroke:rgb(51, 153, 255)"/>
<text x="130.0" y="-112.5" style="fill:rgb(0, 0, 0)" font-size="15.0" font-family="sans-serif" transform="scale(1,-1) rotate(0,130.0,-112.5)" text-anchor="left">AG</text></g>
</svg>
