<?xml version="1.0" encoding="utf-8"?>
<!-- Generator: Adobe Illustrator 16.0.4, SVG Export Plug-In . SVG Version: 6.00 Build 0)  -->
<!DOCTYPE svg PUBLIC "-//W3C//DTD SVG 1.1//EN" "http://www.w3.org/Graphics/SVG/1.1/DTD/svg11.dtd">
<svg version="1.1" id="Layer_1" xmlns="http://www.w3.org/2000/svg" xmlns:xlink="http://www.w3.org/1999/xlink" x="0px" y="0px"
	 width="800px" height="800px" viewBox="0 0 800 800" enable-background="new 0 0 800 800" xml:space="preserve">
<g transform="translate(400,400) scale(1, -1)">
	<path id="curve" fill="none" stroke="#FF8000" d="M0,38.146c-40.156-3.558-54.863-24.765-44.122-63.621"/>
	<path id="curve_1_" fill="none" stroke="#FF8000" d="M-44.122-25.475C4.797-173.627,97.708-210.286,234.61-135.452"/>
	<path id="curve_2_" fill="none" stroke="#00C866" d="M0,178.878C-126.904,139.612-159.603,61.107-98.096-56.636"/>
	<path id="curve_3_" fill="none" stroke="#00C866" d="M-98.096-56.636c61.369-55.172,113.654-47.602,156.855,22.711"/>
	<path id="curve_4_" fill="none" stroke="#3399FF" d="M0,117.907C-91.74,95.001-118.073,40.495-79-45.61"/>
	<path id="curve_5_" fill="none" stroke="#3399FF" d="M-79-45.61c57.956-93.806,127.843-103.747,209.659-29.825"/>
	<path id="curve_6_" fill="none" stroke="#FF8000" d="M0,40.8C-39.776,35.828-53.633,14.228-41.569-24"/>
	<path id="curve_7_" fill="none" stroke="#FF8000" d="M-41.569-24C5.936-171.774,98.081-208.975,234.866-135.6"/>
	<path id="curve_8_" fill="none" stroke="#00C866" d="M0,139.367c-122.182-22.02-161.427-91.134-117.735-207.342"/>
	<path id="curve_9_" fill="none" stroke="#00C866" d="M-117.735-67.975C-43.791-135.859,19.9-127.315,73.338-42.342"/>
	<path id="curve_10_" fill="none" stroke="#00C866" d="M0,117.249c-113.991-14.406-153.624-76.371-118.899-185.896"/>
	<path id="curve_11_" fill="none" stroke="#00C866" d="M-118.899-68.646C-42.456-147.432,27.62-142.126,91.33-52.729"/>
	<path id="curve_12_" fill="none" stroke="#3399FF" d="M0,85.048C-75.58,71.986-100.132,29.462-73.654-42.524"/>
	<path id="curve_13_" fill="none" stroke="#3399FF" d="M-73.654-42.524c58.4-112.722,137.772-130.197,238.115-52.427"/>
	<path id="curve_14_" fill="none" stroke="#00C866" d="M0,160.179c-116.43-34.135-147.359-105.385-92.788-213.75"/>
	<path id="curve_15_" fill="none" stroke="#00C866" d="M-92.788-53.571c60.576-66.81,118.26-64.398,173.05,7.232"/>
	<path id="curve_16_" fill="none" stroke="#FF8000" d="M0,47.234c-40.104-7.943-52.634-30.921-37.589-68.936"/>
	<path id="curve_17_" fill="none" stroke="#FF8000" d="M-37.589-21.702C7.507-167.707,97.795-205.366,233.274-134.681"/>
	<path id="curve_18_" fill="none" stroke="#3399FF" d="M0,58.08c-75.892,0.009-106.999-37.311-93.323-111.96"/>
	<path id="curve_19_" fill="none" stroke="#3399FF" d="M-93.323-53.88c69.877-118.988,157.034-133.389,261.471-43.2"/>
	<path id="curve_20_" fill="none" stroke="#3399FF" d="M0,112.525c-79.396-24.86-99.708-74.096-60.938-147.708"/>
	<path id="curve_21_" fill="none" stroke="#3399FF" d="M-60.938-35.183c50.091-103.519,121.531-121.31,214.32-53.372"/>
	<path id="curve_22_" fill="none" stroke="#FF8000" d="M0,65.41c-54.884-11.24-71.85-42.838-50.896-94.794"/>
	<path id="curve_23_" fill="none" stroke="#FF8000" d="M-50.896-29.385C-1.266-160.942,83.775-190.451,204.226-117.91"/>
	<path id="curve_24_" fill="none" stroke="#3399FF" d="M0,110C-86.026,88.791-110.852,37.791-74.479-43"/>
	<path id="curve_25_" fill="none" stroke="#3399FF" d="M-74.479-43c56.569-99.603,128.738-112.603,216.507-39"/>
	<path id="curve_26_" fill="none" stroke="#3399FF" d="M0,107.838C-78.003,84.717-98.6,36.879-61.792-35.676"/>
	<path id="curve_27_" fill="none" stroke="#3399FF" d="M-61.792-35.676c50.901-105.595,123.694-123.838,218.379-54.729"/>
	<path id="curve_28_" fill="none" stroke="#FF8000" d="M0,53.571c-44.466-9.383-58.075-35.098-40.827-77.143"/>
	<path id="curve_29_" fill="none" stroke="#FF8000" d="M-40.827-23.571C5.203-165.078,93.661-200.436,224.548-129.643"/>
	<path id="curve_30_" fill="none" stroke="#3399FF" d="M0,139.396c-90.893-33.542-111.647-91.991-62.265-175.345"/>
	<path id="curve_31_" fill="none" stroke="#3399FF" d="M-62.265-35.948c48.321-89.221,112.004-102.022,191.049-38.405"/>
	<path id="curve_32_" fill="none" stroke="#3399FF" d="M0,100.181C-78.549,80.939-101.278,34.423-68.188-39.368"/>
	<path id="curve_33_" fill="none" stroke="#3399FF" d="M-68.188-39.368c54.534-107.062,129.537-124.12,225.01-51.173"/>
	<path id="curve_34_" fill="none" stroke="#FF8000" d="M0,42.366c-41.679-5.025-56.289-27.582-43.83-67.672"/>
	<path id="curve_35_" fill="none" stroke="#FF8000" d="M-43.83-25.306c48.41-146.1,140.104-182.169,275.079-108.206"/>
	<path id="curve_36_" fill="none" stroke="#3399FF" d="M0,113.455c-84.031-23.602-106.863-74.602-68.495-153"/>
	<path id="curve_37_" fill="none" stroke="#3399FF" d="M-68.495-39.546c53.499-100.133,124.671-114.86,213.515-44.182"/>
	<path id="curve_38_" fill="none" stroke="#FF8000" d="M0,50.42c-40.372-9.375-52.308-33.073-35.806-71.092"/>
	<path id="curve_39_" fill="none" stroke="#FF8000" d="M-35.806-20.672C8.185-165.729,97.553-203.544,232.299-134.117"/>
	<path id="curve_40_" fill="none" stroke="#3399FF" d="M0,109.239C-80.585,86.395-102.377,37.4-65.375-37.744"/>
	<path id="curve_41_" fill="none" stroke="#3399FF" d="M-65.375-37.744c52.432-103.497,124.82-120.127,217.165-49.892"/>
	<path id="curve_42_" fill="none" stroke="#00C866" d="M0,132.966c-120.4-19.6-160.105-86.845-119.115-201.737"/>
	<path id="curve_43_" fill="none" stroke="#00C866" d="M-119.115-68.771c75.149-70.638,140.688-62.63,196.617,24.025"/>
	<path id="curve_44_" fill="none" stroke="#FF8000" d="M0,50.948c-47.552-6.988-63.603-33.238-48.154-78.75"/>
	<path id="curve_45_" fill="none" stroke="#FF8000" d="M-48.154-27.802C1.492-167.835,90.708-200.809,219.492-126.725"/>
	<path id="curve_46_" fill="none" stroke="#3399FF" d="M0,114.98C-84.308,90.747-106.941,39.352-67.902-39.203"/>
	<path id="curve_47_" fill="none" stroke="#3399FF" d="M-67.902-39.203c53.09-99.579,123.821-114.28,212.194-44.104"/>
	<path id="curve_48_" fill="none" stroke="#00C866" d="M0,172.315C-115.435,131.983-142.908,58.683-82.422-47.586"/>
	<path id="curve_49_" fill="none" stroke="#00C866" d="M-82.422-47.586c54.712-64.573,108.892-64.13,162.54,1.33"/>
	<path id="curve_50_" fill="none" stroke="#00C866" d="M0,180C-125.24,139.583-156.69,61.425-94.351-54.474"/>
	<path id="curve_51_" fill="none" stroke="#00C866" d="M-94.351-54.474c59.541-56.038,111.501-49.723,155.884,18.947"/>
	<path id="curve_52_" fill="none" stroke="#00C866" d="M0,157.674C-122.222,126.874-157.165,54.141-104.829-60.523"/>
	<path id="curve_53_" fill="none" stroke="#00C866" d="M-104.829-60.523C-38.47-123.983,19.937-117.355,70.39-40.64"/>
	<path id="curve_54_" fill="none" stroke="#3399FF" d="M0,108.488C-80.558,85.995-102.51,37.157-65.858-38.023"/>
	<path id="curve_55_" fill="none" stroke="#3399FF" d="M-65.858-38.023c52.722-103.695,125.327-120.266,217.815-49.709"/>
	<path id="curve_56_" fill="none" stroke="#3399FF" d="M0,135.158C-90.945,103.671-112.732,46.04-65.362-37.737"/>
	<path id="curve_57_" fill="none" stroke="#3399FF" d="M-65.362-37.737c50.128-90.203,115.034-102.519,194.719-36.947"/>
	<path id="curve_58_" fill="none" stroke="#3399FF" d="M0,125.294C-64.778,88.922-73.438,42.157-25.98-15"/>
	<path id="curve_59_" fill="none" stroke="#3399FF" d="M-25.98-15C6.832-125.422,74.586-154.54,177.28-102.353"/>
	<path id="curve_60_" fill="none" stroke="#FF8000" d="M0,45c-44.179-5.371-59.644-29.299-46.395-71.786"/>
	<path id="curve_61_" fill="none" stroke="#FF8000" d="M-46.395-26.786C2.967-170.548,93.899-205.19,226.404-130.714"/>
	<path id="curve_62_" fill="none" stroke="#FF8000" d="M0,44.4c-35.938-8.113-46.678-29.113-32.216-63"/>
	<path id="curve_63_" fill="none" stroke="#FF8000" d="M-32.216-18.6C10.649-168.127,101.756-208.327,241.102-139.2"/>
	<path id="curve_64_" fill="none" stroke="#3399FF" d="M0,165C-100.818,122.807-121.386,55.932-61.704-35.625"/>
	<path id="curve_65_" fill="none" stroke="#3399FF" d="M-61.704-35.625c45.791-76.3,102.083-85.05,168.875-26.25"/>
	<path id="curve_66_" fill="none" stroke="#3399FF" d="M0,107.647C-77.554,84.453-97.931,36.806-61.131-35.294"/>
	<path id="curve_67_" fill="none" stroke="#3399FF" d="M-61.131-35.294c50.612-105.947,123.46-124.477,218.544-55.589"/>
	<path id="curve_68_" fill="none" stroke="#00C866" d="M0,153.882C-118.9,123.682-152.777,52.829-101.631-58.677"/>
	<path id="curve_69_" fill="none" stroke="#00C866" d="M-101.631-58.677c65.219-66.637,124.72-61.871,178.503,14.294"/>
	<path id="curve_70_" fill="none" stroke="#FF8000" d="M0,46.265c-50.652-3.598-69.643-29.983-56.97-79.157"/>
	<path id="curve_71_" fill="none" stroke="#FF8000" d="M-56.97-32.892c54.134-139.042,144.701-169.403,271.702-91.084"/>
	<path id="curve_72_" fill="none" stroke="#3399FF" d="M0,122.228C-86.413,95.286-108.578,41.747-66.495-38.391"/>
	<path id="curve_73_" fill="none" stroke="#3399FF" d="M-66.495-38.391c51.797-96.402,120.437-110.437,205.917-42.104"/>
	<path id="curve_74_" fill="none" stroke="#3399FF" d="M0,105.701C-80.369,84.477-102.87,36.253-67.501-38.972"/>
	<path id="curve_75_" fill="none" stroke="#3399FF" d="M-67.501-38.972c53.728-104.494,127.137-120.896,220.229-49.206"/>
	<line fill="none" stroke="#000000" stroke-width="5" x1="0" y1="30" x2="0" y2="300"/>
	<line fill="none" stroke="#000000" stroke-width="1.5" x1="0" y1="30" x2="-4" y2="30"/>
	<line fill="none" stroke="#000000" stroke-width="1.5" x1="0" y1="30" x2="4" y2="30"/>
	<text transform="matrix(6.123234e-17 1 1 -6.123234e-17 -15 27.2188)" font-family="'Helvetica'" font-size="10">0</text>
	<line fill="none" stroke="#000000" stroke-width="1.5" x1="0" y1="97.5" x2="-4" y2="97.5"/>
	<line fill="none" stroke="#000000" stroke-width="1.5" x1="0" y1="97.5" x2="4" y2="97.5"/>
	<text transform="matrix(6.123234e-17 1 1 -6.123234e-17 -15 87.7686)" font-family="'Helvetica'" font-size="10">0.25</text>
	<line fill="none" stroke="#000000" stroke-width="1.5" x1="0" y1="165" x2="-4" y2="165"/>
	<line fill="none" stroke="#000000" stroke-width="1.5" x1="0" y1="165" x2="4" y2="165"/>
	<text transform="matrix(6.123234e-17 1 1 -6.123234e-17 -15 158.0488)" font-family="'Helvetica'" font-size="10">0.5</text>
	<line fill="none" stroke="#000000" stroke-width="1.5" x1="0" y1="232.5" x2="-4" y2="232.5"/>
	<line fill="none" stroke="#000000" stroke-width="1.5" x1="0" y1="232.5" x2="4" y2="232.5"/>
	<text transform="matrix(6.123234e-17 1 1 -6.123234e-17 -15 222.7686)" font-family="'Helvetica'" font-size="10">0.75</text>
	<line fill="none" stroke="#000000" stroke-width="1.5" x1="0" y1="300" x2="-4" y2="300"/>
	<line fill="none" stroke="#000000" stroke-width="1.5" x1="0" y1="300" x2="4" y2="300"/>
	<text transform="matrix(6.123234e-17 1 1 -6.123234e-17 -15 293.0488)" font-family="'Helvetica'" font-size="10">1.0</text>
	<line fill="none" stroke="#000000" stroke-width="5" x1="-25.98" y1="-15" x2="-259.808" y2="-150"/>
	<line fill="none" stroke="#000000" stroke-width="1.5" x1="-25.98" y1="-15" x2="-23.98" y2="-18.464"/>
	<line fill="none" stroke="#000000" stroke-width="1.5" x1="-25.98" y1="-15" x2="-27.98" y2="-11.536"/>
	<text transform="matrix(0.866 0.5 0.5 -0.866 -20.8887 -29.3809)" font-family="'Helvetica'" font-size="10">0</text>
	<line fill="none" stroke="#000000" stroke-width="1.5" x1="-84.438" y1="-48.75" x2="-82.438" y2="-52.214"/>
	<line fill="none" stroke="#000000" stroke-width="1.5" x1="-84.438" y1="-48.75" x2="-86.438" y2="-45.286"/>
	<text transform="matrix(0.866 0.5 0.5 -0.866 -85.3652 -66.6055)" font-family="'Helvetica'" font-size="10">0.25</text>
	<line fill="none" stroke="#000000" stroke-width="1.5" x1="-142.894" y1="-82.5" x2="-140.894" y2="-85.964"/>
	<line fill="none" stroke="#000000" stroke-width="1.5" x1="-142.894" y1="-82.5" x2="-144.894" y2="-79.036"/>
	<text transform="matrix(0.866 0.5 0.5 -0.866 -141.4141 -98.9658)" font-family="'Helvetica'" font-size="10">0.5</text>
	<line fill="none" stroke="#000000" stroke-width="1.5" x1="-201.351" y1="-116.25" x2="-199.351" y2="-119.714"/>
	<line fill="none" stroke="#000000" stroke-width="1.5" x1="-201.351" y1="-116.25" x2="-203.351" y2="-112.786"/>
	<text transform="matrix(0.866 0.5 0.5 -0.866 -202.2783 -134.1055)" font-family="'Helvetica'" font-size="10">0.75</text>
	<line fill="none" stroke="#000000" stroke-width="1.5" x1="-259.808" y1="-150" x2="-257.808" y2="-153.464"/>
	<line fill="none" stroke="#000000" stroke-width="1.5" x1="-259.808" y1="-150" x2="-261.808" y2="-146.536"/>
	<text transform="matrix(0.866 0.5 0.5 -0.866 -258.3271 -166.4658)" font-family="'Helvetica'" font-size="10">1.0</text>
	<line fill="none" stroke="#000000" stroke-width="5" x1="25.98" y1="-15" x2="259.808" y2="-150"/>
	<line fill="none" stroke="#000000" stroke-width="1.5" x1="25.98" y1="-15" x2="27.98" y2="-11.536"/>
	<line fill="none" stroke="#000000" stroke-width="1.5" x1="25.98" y1="-15" x2="23.98" y2="-18.464"/>
	<text transform="matrix(0.866 -0.5 -0.5 -0.866 31.0723 -0.6191)" font-family="'Helvetica'" font-size="10">0</text>
	<line fill="none" stroke="#000000" stroke-width="1.5" x1="84.438" y1="-48.75" x2="86.438" y2="-45.286"/>
	<line fill="none" stroke="#000000" stroke-width="1.5" x1="84.438" y1="-48.75" x2="82.438" y2="-52.214"/>
	<text transform="matrix(0.866 -0.5 -0.5 -0.866 83.5098 -30.8936)" font-family="'Helvetica'" font-size="10">0.25</text>
	<line fill="none" stroke="#000000" stroke-width="1.5" x1="142.895" y1="-82.5" x2="144.895" y2="-79.036"/>
	<line fill="none" stroke="#000000" stroke-width="1.5" x1="142.895" y1="-82.5" x2="140.895" y2="-85.964"/>
	<text transform="matrix(0.866 -0.5 -0.5 -0.866 144.375 -66.0342)" font-family="'Helvetica'" font-size="10">0.5</text>
	<line fill="none" stroke="#000000" stroke-width="1.5" x1="201.351" y1="-116.25" x2="203.351" y2="-112.786"/>
	<line fill="none" stroke="#000000" stroke-width="1.5" x1="201.351" y1="-116.25" x2="199.351" y2="-119.714"/>
	<text transform="matrix(0.866 -0.5 -0.5 -0.866 200.4238 -98.3936)" font-family="'Helvetica'" font-size="10">0.75</text>
	<line fill="none" stroke="#000000" stroke-width="1.5" x1="259.808" y1="-150" x2="261.808" y2="-146.536"/>
	<line fill="none" stroke="#000000" stroke-width="1.5" x1="259.808" y1="-150" x2="257.808" y2="-153.464"/>
	<text transform="matrix(0.866 -0.5 -0.5 -0.866 261.2881 -133.5342)" font-family="'Helvetica'" font-size="10">1.0</text>
	<text transform="matrix(1 0 0 -1 -18.3398 350)" font-family="'Helvetica'" font-size="15">TLR1</text>
	<text transform="matrix(1 0 0 -1 -69.2358 335)" font-family="'Helvetica'" font-size="15">38806375-38800519</text>
	<text transform="matrix(1 0 0 -1 -321.4487 -175)" font-family="'Helvetica'" font-size="15">TLR1</text>
	<text transform="matrix(1 0 0 -1 -372.3447 -190)" font-family="'Helvetica'" font-size="15">38806375-38802569</text>
	<text transform="matrix(1 0 0 -1 284.7695 -175)" font-family="'Helvetica'" font-size="15">TLR1</text>
	<text transform="matrix(1 0 0 -1 233.873 -190)" font-family="'Helvetica'" font-size="15">38806375-38806003</text>
	<text transform="matrix(1 0 0 -1 100 200)" font-family="'Helvetica'" font-size="20">chr4:38806019</text>
	<rect x="100" y="187.5" fill="#FF8000" stroke="#FF8000" width="15" height="-15"/>
	<text transform="matrix(1 0 0 -1 130 172.5)" font-family="'Helvetica'" font-size="15">AA</text>
	<rect x="100" y="157.5" fill="#00C866" stroke="#00C866" width="15" height="-15"/>
	<text transform="matrix(1 0 0 -1 130 142.5)" font-family="'Helvetica'" font-size="15">GG</text>
	<rect x="100" y="127.5" fill="#3399FF" stroke="#3399FF" width="15" height="-15"/>
	<text transform="matrix(1 0 0 -1 130 112.5)" font-family="'Helvetica'" font-size="15">AG</text>
</g>
</svg>
