<?xml version="1.0"?>
<!DOCTYPE svg PUBLIC "-//W3C//DTD SVG 1.1//EN" "http://www.w3.org/Graphics/SVG/1.1/DTD/svg11.dtd">
<svg width="1000px" height="300px" version="1.1" xmlns="http://www.w3.org/2000/svg" xmlns:xlink="http://www.w3.org/1999/xlink">
<g transform="translate(0,300) scale(1,-1)">
<rect x="100" y="100" width="15" height="4.52586206897" style="fill:rgb(255, 128, 0); stroke-width:1; stroke:rgb(255, 128, 0)"/>
<rect x="100" y="104.525862069" width="15" height="11.6379310345" style="fill:rgb(0, 200, 102); stroke-width:1; stroke:rgb(0, 200, 102)"/>
<rect x="100" y="116.163793103" width="15" height="133.836206897" style="fill:rgb(51, 153, 255); stroke-width:1; stroke:rgb(51, 153, 255)"/>
<rect x="115" y="100" width="15" height="6.0" style="fill:rgb(255, 128, 0); stroke-width:1; stroke:rgb(255, 128, 0)"/>
<rect x="115" y="106.0" width="15" height="10.0" style="fill:rgb(0, 200, 102); stroke-width:1; stroke:rgb(0, 200, 102)"/>
<rect x="115" y="116.0" width="15" height="134.0" style="fill:rgb(51, 153, 255); stroke-width:1; stroke:rgb(51, 153, 255)"/>
<rect x="130" y="100" width="15" height="9.57446808511" style="fill:rgb(255, 128, 0); stroke-width:1; stroke:rgb(255, 128, 0)"/>
<rect x="130" y="109.574468085" width="15" height="7.44680851064" style="fill:rgb(0, 200, 102); stroke-width:1; stroke:rgb(0, 200, 102)"/>
<rect x="130" y="117.021276596" width="15" height="132.978723404" style="fill:rgb(51, 153, 255); stroke-width:1; stroke:rgb(51, 153, 255)"/>
<rect x="145" y="100" width="15" height="19.6721311475" style="fill:rgb(255, 128, 0); stroke-width:1; stroke:rgb(255, 128, 0)"/>
<rect x="145" y="119.672131148" width="15" height="15.9836065574" style="fill:rgb(0, 200, 102); stroke-width:1; stroke:rgb(0, 200, 102)"/>
<rect x="145" y="135.655737705" width="15" height="114.344262295" style="fill:rgb(51, 153, 255); stroke-width:1; stroke:rgb(51, 153, 255)"/>
<rect x="160" y="100" width="15" height="13.0952380952" style="fill:rgb(255, 128, 0); stroke-width:1; stroke:rgb(255, 128, 0)"/>
<rect x="160" y="113.095238095" width="15" height="9.52380952381" style="fill:rgb(0, 200, 102); stroke-width:1; stroke:rgb(0, 200, 102)"/>
<rect x="160" y="122.619047619" width="15" height="127.380952381" style="fill:rgb(51, 153, 255); stroke-width:1; stroke:rgb(51, 153, 255)"/>
<rect x="175" y="100" width="15" height="6.87022900763" style="fill:rgb(255, 128, 0); stroke-width:1; stroke:rgb(255, 128, 0)"/>
<rect x="175" y="106.870229008" width="15" height="11.4503816794" style="fill:rgb(0, 200, 102); stroke-width:1; stroke:rgb(0, 200, 102)"/>
<rect x="175" y="118.320610687" width="15" height="131.679389313" style="fill:rgb(51, 153, 255); stroke-width:1; stroke:rgb(51, 153, 255)"/>
<rect x="190" y="100" width="15" height="11.3445378151" style="fill:rgb(255, 128, 0); stroke-width:1; stroke:rgb(255, 128, 0)"/>
<rect x="190" y="111.344537815" width="15" height="6.3025210084" style="fill:rgb(0, 200, 102); stroke-width:1; stroke:rgb(0, 200, 102)"/>
<rect x="190" y="117.647058824" width="15" height="132.352941176" style="fill:rgb(51, 153, 255); stroke-width:1; stroke:rgb(51, 153, 255)"/>
<rect x="205" y="100" width="15" height="11.6379310345" style="fill:rgb(255, 128, 0); stroke-width:1; stroke:rgb(255, 128, 0)"/>
<rect x="205" y="111.637931034" width="15" height="14.224137931" style="fill:rgb(0, 200, 102); stroke-width:1; stroke:rgb(0, 200, 102)"/>
<rect x="205" y="125.862068966" width="15" height="124.137931034" style="fill:rgb(51, 153, 255); stroke-width:1; stroke:rgb(51, 153, 255)"/>
<rect x="220" y="100" width="15" height="8.33333333333" style="fill:rgb(255, 128, 0); stroke-width:1; stroke:rgb(255, 128, 0)"/>
<rect x="220" y="108.333333333" width="15" height="13.0952380952" style="fill:rgb(0, 200, 102); stroke-width:1; stroke:rgb(0, 200, 102)"/>
<rect x="220" y="121.428571429" width="15" height="128.571428571" style="fill:rgb(51, 153, 255); stroke-width:1; stroke:rgb(51, 153, 255)"/>
<rect x="235" y="100" width="15" height="8.0" style="fill:rgb(255, 128, 0); stroke-width:1; stroke:rgb(255, 128, 0)"/>
<rect x="235" y="108.0" width="15" height="4.0" style="fill:rgb(0, 200, 102); stroke-width:1; stroke:rgb(0, 200, 102)"/>
<rect x="235" y="112.0" width="15" height="138.0" style="fill:rgb(51, 153, 255); stroke-width:1; stroke:rgb(51, 153, 255)"/>
<rect x="250" y="100" width="15" height="9.03614457831" style="fill:rgb(255, 128, 0); stroke-width:1; stroke:rgb(255, 128, 0)"/>
<rect x="250" y="109.036144578" width="15" height="19.8795180723" style="fill:rgb(0, 200, 102); stroke-width:1; stroke:rgb(0, 200, 102)"/>
<rect x="250" y="128.915662651" width="15" height="121.084337349" style="fill:rgb(51, 153, 255); stroke-width:1; stroke:rgb(51, 153, 255)"/>
<rect x="265" y="100" width="15" height="48.8372093023" style="fill:rgb(255, 128, 0); stroke-width:1; stroke:rgb(255, 128, 0)"/>
<rect x="265" y="148.837209302" width="15" height="34.011627907" style="fill:rgb(0, 200, 102); stroke-width:1; stroke:rgb(0, 200, 102)"/>
<rect x="265" y="182.848837209" width="15" height="67.1511627907" style="fill:rgb(51, 153, 255); stroke-width:1; stroke:rgb(51, 153, 255)"/>
<line x1="265" y1="95.0" x2="265" y2="250" style="stroke: rgb(0, 0, 0); stroke-width: 2.0"/> 
<text x="182.5" y="-78.0" style="fill:rgb(0, 0, 0)" font-size="15.0" font-family="sans-serif" transform="scale(1,-1) rotate(0,182.5,-78.0)" text-anchor="middle">AA</text><rect x="280" y="100" width="15" height="30.5825242718" style="fill:rgb(255, 128, 0); stroke-width:1; stroke:rgb(255, 128, 0)"/>
<rect x="280" y="130.582524272" width="15" height="30.5825242718" style="fill:rgb(0, 200, 102); stroke-width:1; stroke:rgb(0, 200, 102)"/>
<rect x="280" y="161.165048544" width="15" height="88.8349514563" style="fill:rgb(51, 153, 255); stroke-width:1; stroke:rgb(51, 153, 255)"/>
<rect x="295" y="100" width="15" height="15.6" style="fill:rgb(255, 128, 0); stroke-width:1; stroke:rgb(255, 128, 0)"/>
<rect x="295" y="115.6" width="15" height="43.2" style="fill:rgb(0, 200, 102); stroke-width:1; stroke:rgb(0, 200, 102)"/>
<rect x="295" y="158.8" width="15" height="91.2" style="fill:rgb(51, 153, 255); stroke-width:1; stroke:rgb(51, 153, 255)"/>
<rect x="310" y="100" width="15" height="45.8471760797" style="fill:rgb(255, 128, 0); stroke-width:1; stroke:rgb(255, 128, 0)"/>
<rect x="310" y="145.84717608" width="15" height="22.4252491694" style="fill:rgb(0, 200, 102); stroke-width:1; stroke:rgb(0, 200, 102)"/>
<rect x="310" y="168.272425249" width="15" height="81.7275747508" style="fill:rgb(51, 153, 255); stroke-width:1; stroke:rgb(51, 153, 255)"/>
<rect x="325" y="100" width="15" height="44.4444444444" style="fill:rgb(255, 128, 0); stroke-width:1; stroke:rgb(255, 128, 0)"/>
<rect x="325" y="144.444444444" width="15" height="31.1111111111" style="fill:rgb(0, 200, 102); stroke-width:1; stroke:rgb(0, 200, 102)"/>
<rect x="325" y="175.555555556" width="15" height="74.4444444444" style="fill:rgb(51, 153, 255); stroke-width:1; stroke:rgb(51, 153, 255)"/>
<rect x="340" y="100" width="15" height="43.2432432432" style="fill:rgb(255, 128, 0); stroke-width:1; stroke:rgb(255, 128, 0)"/>
<rect x="340" y="143.243243243" width="15" height="22.972972973" style="fill:rgb(0, 200, 102); stroke-width:1; stroke:rgb(0, 200, 102)"/>
<rect x="340" y="166.216216216" width="15" height="83.7837837838" style="fill:rgb(51, 153, 255); stroke-width:1; stroke:rgb(51, 153, 255)"/>
<rect x="355" y="100" width="15" height="60.775862069" style="fill:rgb(255, 128, 0); stroke-width:1; stroke:rgb(255, 128, 0)"/>
<rect x="355" y="160.775862069" width="15" height="23.275862069" style="fill:rgb(0, 200, 102); stroke-width:1; stroke:rgb(0, 200, 102)"/>
<rect x="355" y="184.051724138" width="15" height="65.9482758621" style="fill:rgb(51, 153, 255); stroke-width:1; stroke:rgb(51, 153, 255)"/>
<rect x="370" y="100" width="15" height="38.9891696751" style="fill:rgb(255, 128, 0); stroke-width:1; stroke:rgb(255, 128, 0)"/>
<rect x="370" y="138.989169675" width="15" height="27.0758122744" style="fill:rgb(0, 200, 102); stroke-width:1; stroke:rgb(0, 200, 102)"/>
<rect x="370" y="166.064981949" width="15" height="83.9350180505" style="fill:rgb(51, 153, 255); stroke-width:1; stroke:rgb(51, 153, 255)"/>
<rect x="385" y="100" width="15" height="46.3636363636" style="fill:rgb(255, 128, 0); stroke-width:1; stroke:rgb(255, 128, 0)"/>
<rect x="385" y="146.363636364" width="15" height="27.2727272727" style="fill:rgb(0, 200, 102); stroke-width:1; stroke:rgb(0, 200, 102)"/>
<rect x="385" y="173.636363636" width="15" height="76.3636363636" style="fill:rgb(51, 153, 255); stroke-width:1; stroke:rgb(51, 153, 255)"/>
<rect x="400" y="100" width="15" height="44.0217391304" style="fill:rgb(255, 128, 0); stroke-width:1; stroke:rgb(255, 128, 0)"/>
<rect x="400" y="144.02173913" width="15" height="25.2717391304" style="fill:rgb(0, 200, 102); stroke-width:1; stroke:rgb(0, 200, 102)"/>
<rect x="400" y="169.293478261" width="15" height="80.7065217391" style="fill:rgb(51, 153, 255); stroke-width:1; stroke:rgb(51, 153, 255)"/>
<rect x="415" y="100" width="15" height="47.2111553785" style="fill:rgb(255, 128, 0); stroke-width:1; stroke:rgb(255, 128, 0)"/>
<rect x="415" y="147.211155378" width="15" height="26.8924302789" style="fill:rgb(0, 200, 102); stroke-width:1; stroke:rgb(0, 200, 102)"/>
<rect x="415" y="174.103585657" width="15" height="75.8964143426" style="fill:rgb(51, 153, 255); stroke-width:1; stroke:rgb(51, 153, 255)"/>
<rect x="430" y="100" width="15" height="43.6046511628" style="fill:rgb(255, 128, 0); stroke-width:1; stroke:rgb(255, 128, 0)"/>
<rect x="430" y="143.604651163" width="15" height="25.5813953488" style="fill:rgb(0, 200, 102); stroke-width:1; stroke:rgb(0, 200, 102)"/>
<rect x="430" y="169.186046512" width="15" height="80.8139534884" style="fill:rgb(51, 153, 255); stroke-width:1; stroke:rgb(51, 153, 255)"/>
<rect x="445" y="100" width="15" height="58.4210526316" style="fill:rgb(255, 128, 0); stroke-width:1; stroke:rgb(255, 128, 0)"/>
<rect x="445" y="158.421052632" width="15" height="25.2631578947" style="fill:rgb(0, 200, 102); stroke-width:1; stroke:rgb(0, 200, 102)"/>
<rect x="445" y="183.684210526" width="15" height="66.3157894737" style="fill:rgb(51, 153, 255); stroke-width:1; stroke:rgb(51, 153, 255)"/>
<rect x="460" y="100" width="15" height="52.9411764706" style="fill:rgb(255, 128, 0); stroke-width:1; stroke:rgb(255, 128, 0)"/>
<rect x="460" y="152.941176471" width="15" height="0.0" style="fill:rgb(0, 200, 102); stroke-width:1; stroke:rgb(0, 200, 102)"/>
<rect x="460" y="152.941176471" width="15" height="97.0588235294" style="fill:rgb(51, 153, 255); stroke-width:1; stroke:rgb(51, 153, 255)"/>
<rect x="475" y="100" width="15" height="75.0" style="fill:rgb(255, 128, 0); stroke-width:1; stroke:rgb(255, 128, 0)"/>
<rect x="475" y="175.0" width="15" height="22.9166666667" style="fill:rgb(0, 200, 102); stroke-width:1; stroke:rgb(0, 200, 102)"/>
<rect x="475" y="197.916666667" width="15" height="52.0833333333" style="fill:rgb(51, 153, 255); stroke-width:1; stroke:rgb(51, 153, 255)"/>
<rect x="490" y="100" width="15" height="43.137254902" style="fill:rgb(255, 128, 0); stroke-width:1; stroke:rgb(255, 128, 0)"/>
<rect x="490" y="143.137254902" width="15" height="22.5490196078" style="fill:rgb(0, 200, 102); stroke-width:1; stroke:rgb(0, 200, 102)"/>
<rect x="490" y="165.68627451" width="15" height="84.3137254902" style="fill:rgb(51, 153, 255); stroke-width:1; stroke:rgb(51, 153, 255)"/>
<rect x="505" y="100" width="15" height="51.2376237624" style="fill:rgb(255, 128, 0); stroke-width:1; stroke:rgb(255, 128, 0)"/>
<rect x="505" y="151.237623762" width="15" height="25.9900990099" style="fill:rgb(0, 200, 102); stroke-width:1; stroke:rgb(0, 200, 102)"/>
<rect x="505" y="177.227722772" width="15" height="72.7722772277" style="fill:rgb(51, 153, 255); stroke-width:1; stroke:rgb(51, 153, 255)"/>
<rect x="520" y="100" width="15" height="42.0560747664" style="fill:rgb(255, 128, 0); stroke-width:1; stroke:rgb(255, 128, 0)"/>
<rect x="520" y="142.056074766" width="15" height="26.6355140187" style="fill:rgb(0, 200, 102); stroke-width:1; stroke:rgb(0, 200, 102)"/>
<rect x="520" y="168.691588785" width="15" height="81.308411215" style="fill:rgb(51, 153, 255); stroke-width:1; stroke:rgb(51, 153, 255)"/>
<rect x="535" y="100" width="15" height="82.7102803738" style="fill:rgb(255, 128, 0); stroke-width:1; stroke:rgb(255, 128, 0)"/>
<rect x="535" y="182.710280374" width="15" height="46.261682243" style="fill:rgb(0, 200, 102); stroke-width:1; stroke:rgb(0, 200, 102)"/>
<rect x="535" y="228.971962617" width="15" height="21.0280373832" style="fill:rgb(51, 153, 255); stroke-width:1; stroke:rgb(51, 153, 255)"/>
<line x1="535" y1="95.0" x2="535" y2="250" style="stroke: rgb(0, 0, 0); stroke-width: 2.0"/> 
<text x="400.0" y="-78.0" style="fill:rgb(0, 0, 0)" font-size="15.0" font-family="sans-serif" transform="scale(1,-1) rotate(0,400.0,-78.0)" text-anchor="middle">AG</text><rect x="550" y="100" width="15" height="60.7594936709" style="fill:rgb(255, 128, 0); stroke-width:1; stroke:rgb(255, 128, 0)"/>
<rect x="550" y="160.759493671" width="15" height="58.8607594937" style="fill:rgb(0, 200, 102); stroke-width:1; stroke:rgb(0, 200, 102)"/>
<rect x="550" y="219.620253165" width="15" height="30.3797468354" style="fill:rgb(51, 153, 255); stroke-width:1; stroke:rgb(51, 153, 255)"/>
<rect x="565" y="100" width="15" height="48.4716157205" style="fill:rgb(255, 128, 0); stroke-width:1; stroke:rgb(255, 128, 0)"/>
<rect x="565" y="148.471615721" width="15" height="59.6069868996" style="fill:rgb(0, 200, 102); stroke-width:1; stroke:rgb(0, 200, 102)"/>
<rect x="565" y="208.07860262" width="15" height="41.9213973799" style="fill:rgb(51, 153, 255); stroke-width:1; stroke:rgb(51, 153, 255)"/>
<rect x="580" y="100" width="15" height="72.3214285714" style="fill:rgb(255, 128, 0); stroke-width:1; stroke:rgb(255, 128, 0)"/>
<rect x="580" y="172.321428571" width="15" height="42.8571428571" style="fill:rgb(0, 200, 102); stroke-width:1; stroke:rgb(0, 200, 102)"/>
<rect x="580" y="215.178571429" width="15" height="34.8214285714" style="fill:rgb(51, 153, 255); stroke-width:1; stroke:rgb(51, 153, 255)"/>
<rect x="595" y="100" width="15" height="57.2033898305" style="fill:rgb(255, 128, 0); stroke-width:1; stroke:rgb(255, 128, 0)"/>
<rect x="595" y="157.203389831" width="15" height="59.7457627119" style="fill:rgb(0, 200, 102); stroke-width:1; stroke:rgb(0, 200, 102)"/>
<rect x="595" y="216.949152542" width="15" height="33.0508474576" style="fill:rgb(51, 153, 255); stroke-width:1; stroke:rgb(51, 153, 255)"/>
<rect x="610" y="100" width="15" height="79.0640394089" style="fill:rgb(255, 128, 0); stroke-width:1; stroke:rgb(255, 128, 0)"/>
<rect x="610" y="179.064039409" width="15" height="36.2068965517" style="fill:rgb(0, 200, 102); stroke-width:1; stroke:rgb(0, 200, 102)"/>
<rect x="610" y="215.270935961" width="15" height="34.7290640394" style="fill:rgb(51, 153, 255); stroke-width:1; stroke:rgb(51, 153, 255)"/>
<rect x="625" y="100" width="15" height="83.3333333333" style="fill:rgb(255, 128, 0); stroke-width:1; stroke:rgb(255, 128, 0)"/>
<rect x="625" y="183.333333333" width="15" height="43.8596491228" style="fill:rgb(0, 200, 102); stroke-width:1; stroke:rgb(0, 200, 102)"/>
<rect x="625" y="227.192982456" width="15" height="22.8070175439" style="fill:rgb(51, 153, 255); stroke-width:1; stroke:rgb(51, 153, 255)"/>
<rect x="640" y="100" width="15" height="70.9302325581" style="fill:rgb(255, 128, 0); stroke-width:1; stroke:rgb(255, 128, 0)"/>
<rect x="640" y="170.930232558" width="15" height="50.5813953488" style="fill:rgb(0, 200, 102); stroke-width:1; stroke:rgb(0, 200, 102)"/>
<rect x="640" y="221.511627907" width="15" height="28.488372093" style="fill:rgb(51, 153, 255); stroke-width:1; stroke:rgb(51, 153, 255)"/>
<rect x="655" y="100" width="15" height="68.8235294118" style="fill:rgb(255, 128, 0); stroke-width:1; stroke:rgb(255, 128, 0)"/>
<rect x="655" y="168.823529412" width="15" height="48.5294117647" style="fill:rgb(0, 200, 102); stroke-width:1; stroke:rgb(0, 200, 102)"/>
<rect x="655" y="217.352941176" width="15" height="32.6470588235" style="fill:rgb(51, 153, 255); stroke-width:1; stroke:rgb(51, 153, 255)"/>
<text x="595.0" y="-78.0" style="fill:rgb(0, 0, 0)" font-size="15.0" font-family="sans-serif" transform="scale(1,-1) rotate(0,595.0,-78.0)" text-anchor="middle">GG</text><line x1="95.0" y1="130.0" x2="105.0" y2="130.0" style="stroke: rgb(0, 0, 0); stroke-width: 2.0"/> 
<text x="85.0" y="-127.5" style="fill:rgb(0, 0, 0)" font-size="10.0" font-family="sans-serif" transform="scale(1,-1) rotate(0,85.0,-127.5)" text-anchor="middle">0.2</text><line x1="95.0" y1="160.0" x2="105.0" y2="160.0" style="stroke: rgb(0, 0, 0); stroke-width: 2.0"/> 
<text x="85.0" y="-157.5" style="fill:rgb(0, 0, 0)" font-size="10.0" font-family="sans-serif" transform="scale(1,-1) rotate(0,85.0,-157.5)" text-anchor="middle">0.4</text><line x1="95.0" y1="190.0" x2="105.0" y2="190.0" style="stroke: rgb(0, 0, 0); stroke-width: 2.0"/> 
<text x="85.0" y="-187.5" style="fill:rgb(0, 0, 0)" font-size="10.0" font-family="sans-serif" transform="scale(1,-1) rotate(0,85.0,-187.5)" text-anchor="middle">0.6</text><line x1="95.0" y1="220.0" x2="105.0" y2="220.0" style="stroke: rgb(0, 0, 0); stroke-width: 2.0"/> 
<text x="85.0" y="-217.5" style="fill:rgb(0, 0, 0)" font-size="10.0" font-family="sans-serif" transform="scale(1,-1) rotate(0,85.0,-217.5)" text-anchor="middle">0.8</text><line x1="95.0" y1="250.0" x2="105.0" y2="250.0" style="stroke: rgb(0, 0, 0); stroke-width: 2.0"/> 
<text x="85.0" y="-247.5" style="fill:rgb(0, 0, 0)" font-size="10.0" font-family="sans-serif" transform="scale(1,-1) rotate(0,85.0,-247.5)" text-anchor="middle">1.0</text><line x1="99.0" y1="250" x2="671.0" y2="250" style="stroke: rgb(0, 0, 0); stroke-width: 2.0"/> 
<line x1="100" y1="251.0" x2="100" y2="99.0" style="stroke: rgb(0, 0, 0); stroke-width: 2.0"/> 
<line x1="670" y1="99.0" x2="670" y2="251.0" style="stroke: rgb(0, 0, 0); stroke-width: 2.0"/> 
<line x1="671.0" y1="100" x2="99.0" y2="100" style="stroke: rgb(0, 0, 0); stroke-width: 2.0"/> 
<text x="385.0" y="-55.0" style="fill:rgb(0, 0, 0)" font-size="20.0" font-family="sans-serif" transform="scale(1,-1) rotate(0,385.0,-55.0)" text-anchor="middle">chr4:38806019</text><rect x="710" y="192.5" width="15.0" height="15.0" style="fill:rgb(255, 128, 0); stroke-width:1; stroke:rgb(255, 128, 0)"/>
<text x="740.0" y="-192.5" style="fill:rgb(0, 0, 0)" font-size="15.0" font-family="sans-serif" transform="scale(1,-1) rotate(0,740.0,-192.5)" text-anchor="left">TLR1:38806375-38800519</text><rect x="710" y="162.5" width="15.0" height="15.0" style="fill:rgb(0, 200, 102); stroke-width:1; stroke:rgb(0, 200, 102)"/>
<text x="740.0" y="-162.5" style="fill:rgb(0, 0, 0)" font-size="15.0" font-family="sans-serif" transform="scale(1,-1) rotate(0,740.0,-162.5)" text-anchor="left">TLR1:38806375-38802569</text><rect x="710" y="132.5" width="15.0" height="15.0" style="fill:rgb(51, 153, 255); stroke-width:1; stroke:rgb(51, 153, 255)"/>
<text x="740.0" y="-132.5" style="fill:rgb(0, 0, 0)" font-size="15.0" font-family="sans-serif" transform="scale(1,-1) rotate(0,740.0,-132.5)" text-anchor="left">TLR1:38806375-38806003</text></g>
</svg>
